HiburMono-Regular.ufo
<glyph name="exclam" format="2">
  <advance width="600"/>
  <unicode hex="0021"/>
  <outline>
    <contour>
      <point x="339" y="202" type="line"/>
      <point x="355" y="714" type="line"/>
      <point x="246" y="714" type="line"/>
      <point x="262" y="202" type="line"/>
    </contour>
    <contour>
      <point x="300" y="-10" type="curve" smooth="yes"/>
      <point x="334" y="-10"/>
      <point x="362" y="10"/>
      <point x="362" y="58" type="curve" smooth="yes"/>
      <point x="362" y="108"/>
      <point x="334" y="126"/>
      <point x="300" y="126" type="curve" smooth="yes"/>
      <point x="265" y="126"/>
      <point x="238" y="108"/>
      <point x="238" y="58" type="curve" smooth="yes"/>
      <point x="238" y="10"/>
      <point x="265" y="-10"/>
    </contour>
  </outline>
</glyph>
<glyph name="quotedbl" format="2">
  <advance width="600"/>
  <unicode hex="0022"/>
  <outline>
    <contour>
      <point x="365" y="456" type="line"/>
      <point x="345" y="714" type="line"/>
      <point x="440" y="714" type="line"/>
      <point x="420" y="456" type="line"/>
    </contour>
    <contour>
      <point x="180" y="456" type="line"/>
      <point x="160" y="714" type="line"/>
      <point x="255" y="714" type="line"/>
      <point x="235" y="456" type="line"/>
    </contour>
  </outline>
</glyph>
<glyph name="dollar" format="2">
  <advance width="600"/>
  <unicode hex="0024"/>
  <outline>
    <contour>
      <point x="263" y="34" type="line"/>
      <point x="213" y="35"/>
      <point x="122" y="52"/>
      <point x="90" y="67" type="qcurve"/>
      <point x="90" y="152" type="line"/>
      <point x="124" y="136"/>
      <point x="217" y="112"/>
      <point x="263" y="111" type="qcurve"/>
      <point x="263" y="328" type="line"/>
      <point x="203" y="348"/>
      <point x="121" y="395"/>
      <point x="80" y="464"/>
      <point x="80" y="515" type="qcurve" smooth="yes"/>
      <point x="80" y="565"/>
      <point x="125" y="639"/>
      <point x="207" y="682"/>
      <point x="263" y="686" type="qcurve"/>
      <point x="263" y="759" type="line"/>
      <point x="327" y="759" type="line"/>
      <point x="327" y="687" type="line"/>
      <point x="377" y="686"/>
      <point x="457" y="665"/>
      <point x="493" y="650" type="qcurve"/>
      <point x="466" y="576" type="line"/>
      <point x="434" y="589"/>
      <point x="364" y="608"/>
      <point x="327" y="611" type="qcurve"/>
      <point x="327" y="395" type="line"/>
      <point x="391" y="376"/>
      <point x="477" y="333"/>
      <point x="520" y="266"/>
      <point x="520" y="212" type="qcurve" smooth="yes"/>
      <point x="520" y="142"/>
      <point x="419" y="49"/>
      <point x="327" y="38" type="qcurve"/>
      <point x="327" y="-58" type="line"/>
      <point x="263" y="-58" type="line"/>
    </contour>
    <contour>
      <point x="327" y="116" type="line"/>
      <point x="383" y="123"/>
      <point x="434" y="174"/>
      <point x="434" y="214" type="qcurve" smooth="yes"/>
      <point x="434" y="239"/>
      <point x="415" y="272"/>
      <point x="369" y="296"/>
      <point x="327" y="307" type="qcurve"/>
    </contour>
    <contour>
      <point x="263" y="609" type="line"/>
      <point x="230" y="606"/>
      <point x="187" y="581"/>
      <point x="166" y="541"/>
      <point x="166" y="515" type="qcurve" smooth="yes"/>
      <point x="166" y="490"/>
      <point x="184" y="453"/>
      <point x="226" y="427"/>
      <point x="263" y="417" type="qcurve"/>
    </contour>
  </outline>
</glyph>
<glyph name="percent" format="2">
  <advance width="600"/>
  <unicode hex="0025"/>
  <outline>
    <contour>
      <point x="457" y="49" type="qcurve" smooth="yes"/>
      <point x="491" y="49"/>
      <point x="525" y="103"/>
      <point x="525" y="161" type="qcurve" smooth="yes"/>
      <point x="525" y="220"/>
      <point x="491" y="271"/>
      <point x="457" y="271" type="qcurve" smooth="yes"/>
      <point x="423" y="271"/>
      <point x="388" y="220"/>
      <point x="388" y="161" type="qcurve" smooth="yes"/>
      <point x="388" y="103"/>
      <point x="423" y="49"/>
    </contour>
    <contour>
      <point x="143" y="441" type="qcurve" smooth="yes"/>
      <point x="177" y="441"/>
      <point x="211" y="495"/>
      <point x="211" y="553" type="qcurve" smooth="yes"/>
      <point x="211" y="612"/>
      <point x="177" y="663"/>
      <point x="143" y="663" type="qcurve" smooth="yes"/>
      <point x="109" y="663"/>
      <point x="74" y="612"/>
      <point x="74" y="553" type="qcurve" smooth="yes"/>
      <point x="74" y="495"/>
      <point x="109" y="441"/>
    </contour>
    <contour>
      <point x="83" y="0" type="line"/>
      <point x="439" y="714" type="line"/>
      <point x="516" y="714" type="line"/>
      <point x="160" y="0" type="line"/>
    </contour>
    <contour>
      <point x="456" y="-9" type="qcurve" smooth="yes"/>
      <point x="395" y="-9"/>
      <point x="314" y="80"/>
      <point x="314" y="161" type="qcurve" smooth="yes"/>
      <point x="314" y="242"/>
      <point x="391" y="330"/>
      <point x="458" y="330" type="qcurve" smooth="yes"/>
      <point x="519" y="330"/>
      <point x="600" y="242"/>
      <point x="600" y="161" type="qcurve" smooth="yes"/>
      <point x="600" y="80"/>
      <point x="522" y="-9"/>
    </contour>
    <contour>
      <point x="142" y="383" type="qcurve" smooth="yes"/>
      <point x="81" y="383"/>
      <point x="0" y="472"/>
      <point x="0" y="553" type="qcurve" smooth="yes"/>
      <point x="0" y="634"/>
      <point x="77" y="722"/>
      <point x="144" y="722" type="qcurve" smooth="yes"/>
      <point x="205" y="722"/>
      <point x="286" y="634"/>
      <point x="286" y="553" type="qcurve" smooth="yes"/>
      <point x="286" y="472"/>
      <point x="208" y="383"/>
    </contour>
  </outline>
</glyph>
<glyph name="ampersand" format="2">
  <advance width="600"/>
  <unicode hex="0026"/>
  <outline>
    <contour>
      <point x="224" y="-10" type="qcurve" smooth="yes"/>
      <point x="165" y="-10"/>
      <point x="82" y="38"/>
      <point x="39" y="123"/>
      <point x="39" y="176" type="qcurve" smooth="yes"/>
      <point x="39" y="233"/>
      <point x="84" y="318"/>
      <point x="120" y="352" type="qcurve" smooth="yes"/>
      <point x="144" y="374"/>
      <point x="170" y="394" type="qcurve"/>
      <point x="159" y="410"/>
      <point x="149" y="427" type="qcurve" smooth="yes"/>
      <point x="127" y="461"/>
      <point x="99" y="538"/>
      <point x="99" y="578" type="qcurve" smooth="yes"/>
      <point x="99" y="644"/>
      <point x="179" y="725"/>
      <point x="249" y="725" type="qcurve" smooth="yes"/>
      <point x="319" y="725"/>
      <point x="399" y="644"/>
      <point x="399" y="580" type="qcurve" smooth="yes"/>
      <point x="399" y="530"/>
      <point x="353" y="450"/>
      <point x="318" y="419" type="qcurve" smooth="yes"/>
      <point x="297" y="399"/>
      <point x="275" y="381" type="qcurve"/>
      <point x="415" y="207" type="line"/>
      <point x="433" y="239"/>
      <point x="445" y="274" type="qcurve" smooth="yes"/>
      <point x="458" y="313"/>
      <point x="464" y="349" type="qcurve"/>
      <point x="547" y="349" type="line"/>
      <point x="537" y="292"/>
      <point x="498" y="186"/>
      <point x="469" y="141" type="qcurve"/>
      <point x="469" y="140"/>
      <point x="469" y="140" type="qcurve"/>
      <point x="581" y="0" type="line"/>
      <point x="474" y="0" type="line"/>
      <point x="416" y="74" type="line"/>
      <point x="410" y="68"/>
      <point x="403" y="62" type="qcurve" smooth="yes"/>
      <point x="366" y="28"/>
      <point x="276" y="-10"/>
    </contour>
    <contour>
      <point x="191" y="311" type="qcurve" smooth="yes"/>
      <point x="162" y="285"/>
      <point x="125" y="222"/>
      <point x="125" y="181" type="qcurve" smooth="yes"/>
      <point x="125" y="133"/>
      <point x="183" y="67"/>
      <point x="234" y="67" type="qcurve" smooth="yes"/>
      <point x="271" y="67"/>
      <point x="336" y="102"/>
      <point x="363" y="132" type="qcurve" smooth="yes"/>
      <point x="365" y="135"/>
      <point x="368" y="137" type="qcurve"/>
      <point x="216" y="333" type="line"/>
      <point x="203" y="322"/>
    </contour>
    <contour>
      <point x="248" y="454" type="qcurve" smooth="yes"/>
      <point x="276" y="478"/>
      <point x="318" y="541"/>
      <point x="318" y="580" type="qcurve" smooth="yes"/>
      <point x="318" y="616"/>
      <point x="280" y="656"/>
      <point x="249" y="656" type="qcurve" smooth="yes"/>
      <point x="218" y="656"/>
      <point x="181" y="614"/>
      <point x="181" y="576" type="qcurve" smooth="yes"/>
      <point x="181" y="550"/>
      <point x="198" y="494"/>
      <point x="213" y="468" type="qcurve" smooth="yes"/>
      <point x="221" y="453"/>
      <point x="230" y="439" type="qcurve"/>
      <point x="239" y="446"/>
    </contour>
  </outline>
</glyph>
<glyph name="quotesingle" format="2">
  <advance width="600"/>
  <unicode hex="0027"/>
  <outline>
    <contour>
      <point x="272" y="456" type="line"/>
      <point x="252" y="714" type="line"/>
      <point x="347" y="714" type="line"/>
      <point x="327" y="456" type="line"/>
    </contour>
  </outline>
</glyph>
<glyph name="parenleft" format="2">
  <advance width="600"/>
  <unicode hex="0028"/>
  <outline>
    <contour>
      <point x="347" y="-158" type="line"/>
      <point x="271" y="-70"/>
      <point x="200" y="153"/>
      <point x="200" y="274" type="qcurve" smooth="yes"/>
      <point x="200" y="396"/>
      <point x="271" y="623"/>
      <point x="347" y="714" type="qcurve"/>
      <point x="430" y="714" type="line"/>
      <point x="360" y="620"/>
      <point x="289" y="394"/>
      <point x="289" y="275" type="qcurve" smooth="yes"/>
      <point x="289" y="159"/>
      <point x="360" y="-64"/>
      <point x="429" y="-158" type="qcurve"/>
    </contour>
  </outline>
</glyph>
<glyph name="parenright" format="2">
  <advance width="600"/>
  <unicode hex="0029"/>
  <outline>
    <contour>
      <point x="253" y="714" type="line"/>
      <point x="329" y="626"/>
      <point x="400" y="403"/>
      <point x="400" y="282" type="qcurve" smooth="yes"/>
      <point x="400" y="160"/>
      <point x="329" y="-67"/>
      <point x="253" y="-158" type="qcurve"/>
      <point x="170" y="-158" type="line"/>
      <point x="240" y="-64"/>
      <point x="311" y="163"/>
      <point x="311" y="281" type="qcurve" smooth="yes"/>
      <point x="311" y="397"/>
      <point x="240" y="620"/>
      <point x="171" y="714" type="qcurve"/>
    </contour>
  </outline>
</glyph>
<glyph name="plus" format="2">
  <advance width="600"/>
  <unicode hex="002B"/>
  <outline>
    <contour>
      <point x="265" y="121" type="line"/>
      <point x="265" y="317" type="line"/>
      <point x="80" y="317" type="line"/>
      <point x="80" y="388" type="line"/>
      <point x="265" y="388" type="line"/>
      <point x="265" y="585" type="line"/>
      <point x="337" y="585" type="line"/>
      <point x="337" y="388" type="line"/>
      <point x="520" y="388" type="line"/>
      <point x="520" y="317" type="line"/>
      <point x="337" y="317" type="line"/>
      <point x="337" y="121" type="line"/>
    </contour>
  </outline>
</glyph>
<glyph name="comma" format="2">
  <advance width="600"/>
  <unicode hex="002C"/>
  <outline>
    <contour>
      <point x="211" y="-140" type="line"/>
      <point x="222" y="-96"/>
      <point x="242" y="-1"/>
      <point x="260" y="91"/>
      <point x="265" y="129" type="qcurve"/>
      <point x="372" y="129" type="line"/>
      <point x="380" y="117" type="line"/>
      <point x="373" y="88"/>
      <point x="351" y="23"/>
      <point x="326" y="-44"/>
      <point x="299" y="-110"/>
      <point x="285" y="-140" type="qcurve"/>
    </contour>
  </outline>
</glyph>
<glyph name="hyphen" format="2">
  <advance width="600"/>
  <unicode hex="002D"/>
  <outline>
    <contour>
      <point x="150" y="230" type="line"/>
      <point x="150" y="310" type="line"/>
      <point x="450" y="310" type="line"/>
      <point x="450" y="230" type="line"/>
    </contour>
  </outline>
</glyph>
<glyph name="period" format="2">
  <advance width="600"/>
  <unicode hex="002E"/>
  <outline>
    <contour>
      <point x="300" y="-10" type="qcurve" smooth="yes"/>
      <point x="274" y="-10"/>
      <point x="238" y="22"/>
      <point x="238" y="58" type="qcurve" smooth="yes"/>
      <point x="238" y="96"/>
      <point x="274" y="126"/>
      <point x="300" y="126" type="qcurve" smooth="yes"/>
      <point x="326" y="126"/>
      <point x="362" y="96"/>
      <point x="362" y="58" type="qcurve" smooth="yes"/>
      <point x="362" y="22"/>
      <point x="326" y="-10"/>
    </contour>
  </outline>
</glyph>
<glyph name="zero" format="2">
  <advance width="600"/>
  <unicode hex="0030"/>
  <outline>
    <contour>
      <point x="299" y="-10" type="curve" smooth="yes"/>
      <point x="472" y="-10"/>
      <point x="540" y="127"/>
      <point x="540" y="358" type="curve" smooth="yes"/>
      <point x="540" y="590"/>
      <point x="467" y="724"/>
      <point x="299" y="724" type="curve" smooth="yes"/>
      <point x="127" y="724"/>
      <point x="60" y="589"/>
      <point x="60" y="358" type="curve" smooth="yes"/>
      <point x="60" y="127"/>
      <point x="132" y="-10"/>
    </contour>
    <contour>
      <point x="458" y="560" type="line"/>
      <point x="406" y="626" type="line"/>
      <point x="126" y="152" type="line"/>
      <point x="185" y="100" type="line"/>
    </contour>
    <contour>
      <point x="299" y="69" type="curve" smooth="yes"/>
      <point x="187" y="69"/>
      <point x="144" y="172"/>
      <point x="144" y="358" type="curve" smooth="yes"/>
      <point x="144" y="553"/>
      <point x="191" y="645"/>
      <point x="299" y="645" type="curve" smooth="yes"/>
      <point x="409" y="645"/>
      <point x="459" y="547"/>
      <point x="459" y="358" type="curve" smooth="yes"/>
      <point x="459" y="161"/>
      <point x="408" y="69"/>
    </contour>
  </outline>
</glyph>
<glyph name="one" format="2">
  <advance width="600"/>
  <unicode hex="0031"/>
  <outline>
    <contour>
      <point x="133" y="0" type="line"/>
      <point x="133" y="60" type="line"/>
      <point x="283" y="70" type="line"/>
      <point x="283" y="446" type="line" smooth="yes"/>
      <point x="283" y="474"/>
      <point x="284" y="539"/>
      <point x="286" y="600"/>
      <point x="287" y="622" type="qcurve"/>
      <point x="271" y="613"/>
      <point x="245" y="601"/>
      <point x="219" y="588" type="qcurve" smooth="yes"/>
      <point x="136" y="545" type="line"/>
      <point x="97" y="613" type="line"/>
      <point x="296" y="714" type="line"/>
      <point x="369" y="714" type="line"/>
      <point x="369" y="70" type="line"/>
      <point x="520" y="60" type="line"/>
      <point x="520" y="0" type="line"/>
    </contour>
  </outline>
</glyph>
<glyph name="two" format="2">
  <advance width="600"/>
  <unicode hex="0032"/>
  <outline>
    <contour>
      <point x="70" y="0" type="line"/>
      <point x="70" y="76" type="line"/>
      <point x="260" y="262.676" type="line" smooth="yes"/>
      <point x="310" y="311.589"/>
      <point x="380" y="396.439"/>
      <point x="417" y="478.294"/>
      <point x="417" y="523.214" type="qcurve" smooth="yes"/>
      <point x="417" y="587.101"/>
      <point x="347" y="644"/>
      <point x="291.932" y="644" type="qcurve" smooth="yes"/>
      <point x="246" y="644"/>
      <point x="163" y="606.067"/>
      <point x="127" y="577.119" type="qcurve"/>
      <point x="77" y="639.009" type="line"/>
      <point x="104" y="663.241"/>
      <point x="170" y="701.722"/>
      <point x="250" y="724"/>
      <point x="296" y="724" type="qcurve" smooth="yes"/>
      <point x="360" y="724"/>
      <point x="455" y="677.418"/>
      <point x="507" y="590.096"/>
      <point x="507" y="526.209" type="qcurve" smooth="yes"/>
      <point x="507" y="472.304"/>
      <point x="468" y="375.476"/>
      <point x="395" y="282.641"/>
      <point x="344" y="232.729" type="qcurve" smooth="yes"/>
      <point x="191" y="83.9929" type="line"/>
      <point x="191" y="80" type="line"/>
      <point x="545" y="80" type="line"/>
      <point x="545" y="0" type="line"/>
    </contour>
  </outline>
</glyph>
<glyph name="three" format="2">
  <advance width="600"/>
  <unicode hex="0033"/>
  <outline>
    <contour>
      <point x="261" y="-10" type="qcurve" smooth="yes"/>
      <point x="218" y="-10"/>
      <point x="118" y="7"/>
      <point x="74" y="29" type="qcurve"/>
      <point x="74" y="114" type="line"/>
      <point x="118" y="92"/>
      <point x="220" y="69"/>
      <point x="267" y="69" type="qcurve" smooth="yes"/>
      <point x="354" y="69"/>
      <point x="434" y="143"/>
      <point x="434" y="203" type="qcurve" smooth="yes"/>
      <point x="434" y="249"/>
      <point x="391" y="304"/>
      <point x="311" y="329"/>
      <point x="253" y="329" type="qcurve" smooth="yes"/>
      <point x="179" y="329" type="line"/>
      <point x="179" y="409" type="line"/>
      <point x="253" y="409" type="line" smooth="yes"/>
      <point x="305" y="409"/>
      <point x="375" y="442"/>
      <point x="412" y="501"/>
      <point x="412" y="539" type="qcurve" smooth="yes"/>
      <point x="412" y="589"/>
      <point x="349" y="645"/>
      <point x="288" y="645" type="qcurve" smooth="yes"/>
      <point x="237" y="645"/>
      <point x="152" y="610"/>
      <point x="122" y="590" type="qcurve"/>
      <point x="77" y="651" type="line"/>
      <point x="115" y="681"/>
      <point x="225" y="724"/>
      <point x="294" y="724" type="qcurve" smooth="yes"/>
      <point x="363" y="724"/>
      <point x="456" y="678"/>
      <point x="503" y="599"/>
      <point x="503" y="547" type="qcurve" smooth="yes"/>
      <point x="503" y="499"/>
      <point x="466" y="428"/>
      <point x="399" y="384"/>
      <point x="354" y="376" type="qcurve"/>
      <point x="354" y="373" type="line"/>
      <point x="410" y="366"/>
      <point x="486" y="322"/>
      <point x="525" y="249"/>
      <point x="525" y="198" type="qcurve" smooth="yes"/>
      <point x="525" y="138"/>
      <point x="469" y="44"/>
      <point x="353" y="-10"/>
    </contour>
  </outline>
</glyph>
<glyph name="four" format="2">
  <advance width="600"/>
  <unicode hex="0034"/>
  <outline>
    <contour>
      <point x="446" y="0" type="line"/>
      <point x="446" y="160" type="line"/>
      <point x="550" y="160" type="line"/>
      <point x="550" y="237" type="line"/>
      <point x="446" y="237" type="line"/>
      <point x="446" y="718" type="line"/>
      <point x="344" y="718" type="line"/>
      <point x="50" y="234" type="line"/>
      <point x="50" y="160" type="line"/>
      <point x="360" y="160" type="line"/>
      <point x="360" y="0" type="line"/>
    </contour>
    <contour>
      <point x="318" y="538" type="line" smooth="yes"/>
      <point x="331" y="560"/>
      <point x="353" y="600"/>
      <point x="362" y="626" type="curve"/>
      <point x="366" y="626" type="line"/>
      <point x="364" y="581"/>
      <point x="360" y="488"/>
      <point x="360" y="415" type="curve" smooth="yes"/>
      <point x="360" y="237" type="line"/>
      <point x="137" y="237" type="line"/>
    </contour>
  </outline>
</glyph>
<glyph name="five" format="2">
  <advance width="600"/>
  <unicode hex="0035"/>
  <outline>
    <contour>
      <point x="257" y="-10" type="qcurve" smooth="yes"/>
      <point x="210" y="-10"/>
      <point x="114" y="10"/>
      <point x="80" y="29" type="qcurve"/>
      <point x="80" y="114" type="line"/>
      <point x="114" y="92"/>
      <point x="202" y="69"/>
      <point x="249" y="69" type="qcurve" smooth="yes"/>
      <point x="333" y="69"/>
      <point x="427" y="140"/>
      <point x="427" y="214" type="qcurve" smooth="yes"/>
      <point x="427" y="264"/>
      <point x="385" y="331"/>
      <point x="308" y="365"/>
      <point x="256" y="365" type="qcurve" smooth="yes"/>
      <point x="228" y="365"/>
      <point x="164" y="356"/>
      <point x="139" y="350" type="qcurve"/>
      <point x="95" y="378" type="line"/>
      <point x="122" y="714" type="line"/>
      <point x="478" y="714" type="line"/>
      <point x="478" y="634" type="line"/>
      <point x="199" y="634" type="line"/>
      <point x="180" y="428" type="line"/>
      <point x="201" y="433"/>
      <point x="262" y="438"/>
      <point x="285" y="438" type="qcurve" smooth="yes"/>
      <point x="350" y="438"/>
      <point x="456" y="390"/>
      <point x="519" y="293"/>
      <point x="519" y="220" type="qcurve" smooth="yes"/>
      <point x="519" y="150"/>
      <point x="458" y="47"/>
      <point x="341" y="-10"/>
    </contour>
  </outline>
</glyph>
<glyph name="six" format="2">
  <advance width="600"/>
  <unicode hex="0036"/>
  <outline>
    <contour>
      <point x="308" y="-10" type="qcurve" smooth="yes"/>
      <point x="251" y="-10"/>
      <point x="159" y="29.52"/>
      <point x="95" y="108.864"/>
      <point x="60" y="228.486"/>
      <point x="60" y="310.616" type="qcurve" smooth="yes"/>
      <point x="60" y="385"/>
      <point x="87" y="533"/>
      <point x="159" y="653"/>
      <point x="289" y="724"/>
      <point x="389.604" y="724" type="qcurve" smooth="yes"/>
      <point x="412" y="724"/>
      <point x="465" y="720"/>
      <point x="481" y="715" type="qcurve"/>
      <point x="481" y="636" type="line"/>
      <point x="464" y="642"/>
      <point x="418" y="648"/>
      <point x="393.393" y="648" type="qcurve" smooth="yes"/>
      <point x="323" y="648"/>
      <point x="229" y="603"/>
      <point x="175" y="525"/>
      <point x="151" y="422"/>
      <point x="149" y="364.057" type="qcurve"/>
      <point x="155" y="364.057" type="line"/>
      <point x="168" y="389"/>
      <point x="214" y="429"/>
      <point x="280" y="452"/>
      <point x="323.166" y="452" type="qcurve" smooth="yes"/>
      <point x="422" y="452"/>
      <point x="540" y="336.145"/>
      <point x="540" y="230.479" type="qcurve" smooth="yes"/>
      <point x="540" y="156.713"/>
      <point x="483" y="48.7733"/>
      <point x="379" y="-10"/>
    </contour>
    <contour>
      <point x="308.29" y="66" type="qcurve" smooth="yes"/>
      <point x="372" y="66"/>
      <point x="454" y="142.757"/>
      <point x="454" y="226.362" type="qcurve" smooth="yes"/>
      <point x="454" y="304.246"/>
      <point x="381" y="382"/>
      <point x="311.105" y="382" type="qcurve" smooth="yes"/>
      <point x="262" y="382"/>
      <point x="189" y="342.126"/>
      <point x="149" y="280.322"/>
      <point x="149" y="243.37" type="qcurve" smooth="yes"/>
      <point x="149" y="221.508"/>
      <point x="162" y="169.672"/>
      <point x="187" y="122.82"/>
      <point x="225" y="86.9338"/>
      <point x="276" y="66"/>
    </contour>
  </outline>
</glyph>
<glyph name="eight" format="2">
  <advance width="600"/>
  <unicode hex="0038"/>
  <outline>
    <contour>
      <point x="295" y="-10" type="qcurve" smooth="yes"/>
      <point x="226" y="-10"/>
      <point x="123.492" y="37.2603"/>
      <point x="68" y="122.802"/>
      <point x="68" y="180.604" type="qcurve" smooth="yes"/>
      <point x="68" y="231.43"/>
      <point x="107.738" y="304.181"/>
      <point x="173.818" y="357"/>
      <point x="214" y="374.939" type="qcurve"/>
      <point x="182" y="393.874"/>
      <point x="124.477" y="444.7"/>
      <point x="91" y="511.471"/>
      <point x="91" y="554.324" type="qcurve" smooth="yes"/>
      <point x="91" y="610.133"/>
      <point x="148.108" y="686"/>
      <point x="245" y="724"/>
      <point x="301" y="724" type="qcurve" smooth="yes"/>
      <point x="357" y="724"/>
      <point x="451" y="686"/>
      <point x="508" y="610.133"/>
      <point x="508" y="554.324" type="qcurve" smooth="yes"/>
      <point x="508" y="488.549"/>
      <point x="431" y="405.833"/>
      <point x="373" y="378.925" type="qcurve"/>
      <point x="417" y="357"/>
      <point x="489" y="302.188"/>
      <point x="531" y="230.433"/>
      <point x="531" y="181.601" type="qcurve" smooth="yes"/>
      <point x="531" y="126.788"/>
      <point x="473" y="40.3425"/>
      <point x="368" y="-10"/>
    </contour>
    <contour>
      <point x="296.463" y="65" type="qcurve" smooth="yes"/>
      <point x="369" y="65"/>
      <point x="444" y="133.765"/>
      <point x="444" y="186.584" type="qcurve" smooth="yes"/>
      <point x="444" y="222.461"/>
      <point x="409" y="272.29"/>
      <point x="340" y="316.14"/>
      <point x="287" y="341.055" type="qcurve"/>
      <point x="247" y="323.116"/>
      <point x="188" y="278.27"/>
      <point x="155" y="219.471"/>
      <point x="155" y="182.789" type="qcurve" smooth="yes"/>
      <point x="155" y="130.775"/>
      <point x="224" y="65"/>
    </contour>
    <contour>
      <point x="301" y="414.802" type="qcurve"/>
      <point x="335" y="429.751"/>
      <point x="389" y="465.628"/>
      <point x="421" y="515.457"/>
      <point x="421" y="549.341" type="qcurve" smooth="yes"/>
      <point x="421" y="598.174"/>
      <point x="355" y="649"/>
      <point x="299" y="649" type="qcurve" smooth="yes"/>
      <point x="244" y="649"/>
      <point x="178" y="599.171"/>
      <point x="178" y="549.341" type="qcurve" smooth="yes"/>
      <point x="178" y="512.468"/>
      <point x="214" y="462.638"/>
      <point x="270" y="428.754"/>
    </contour>
  </outline>
</glyph>
<glyph name="nine" format="2">
  <advance width="600"/>
  <unicode hex="0039"/>
  <outline>
    <contour>
      <point x="218.421" y="-10" type="qcurve" smooth="yes"/>
      <point x="194" y="-10"/>
      <point x="146" y="-5"/>
      <point x="129" y="-1" type="qcurve"/>
      <point x="129" y="78" type="line"/>
      <point x="146" y="72"/>
      <point x="189" y="66"/>
      <point x="213" y="66" type="qcurve" smooth="yes"/>
      <point x="281" y="66"/>
      <point x="371" y="111"/>
      <point x="424" y="190"/>
      <point x="449" y="292"/>
      <point x="451" y="349.943" type="qcurve"/>
      <point x="445" y="349.943" type="line"/>
      <point x="432" y="325"/>
      <point x="385" y="285"/>
      <point x="320" y="262"/>
      <point x="276.92" y="262" type="qcurve" smooth="yes"/>
      <point x="178" y="262"/>
      <point x="60" y="378.852"/>
      <point x="60" y="486.427" type="qcurve" smooth="yes"/>
      <point x="60" y="560.278"/>
      <point x="117" y="665.227"/>
      <point x="222" y="724"/>
      <point x="292.792" y="724" type="qcurve" smooth="yes"/>
      <point x="349" y="724"/>
      <point x="440" y="685.493"/>
      <point x="505" y="604.139"/>
      <point x="540" y="478.536"/>
      <point x="540" y="392.994" type="qcurve" smooth="yes"/>
      <point x="540" y="336.984"/>
      <point x="524" y="224"/>
      <point x="483" y="120"/>
      <point x="410" y="38"/>
      <point x="297" y="-10"/>
    </contour>
    <contour>
      <point x="287" y="332" type="qcurve" smooth="yes"/>
      <point x="334" y="332"/>
      <point x="408" y="368.883"/>
      <point x="451" y="434.675"/>
      <point x="451" y="476.543" type="qcurve" smooth="yes"/>
      <point x="451" y="502.461"/>
      <point x="432" y="561.274"/>
      <point x="394" y="614.107"/>
      <point x="334" y="648"/>
      <point x="291.919" y="648" type="qcurve" smooth="yes"/>
      <point x="226" y="648"/>
      <point x="146" y="568.252"/>
      <point x="146" y="486.511" type="qcurve" smooth="yes"/>
      <point x="146" y="405.767"/>
      <point x="221" y="332"/>
    </contour>
  </outline>
</glyph>
<glyph name="colon" format="2">
  <advance width="600"/>
  <unicode hex="003A"/>
  <outline>
    <contour>
      <point x="301" y="410" type="qcurve" smooth="yes"/>
      <point x="275" y="410"/>
      <point x="239" y="442"/>
      <point x="239" y="478" type="qcurve" smooth="yes"/>
      <point x="239" y="516"/>
      <point x="275" y="546"/>
      <point x="301" y="546" type="qcurve" smooth="yes"/>
      <point x="327" y="546"/>
      <point x="362" y="516"/>
      <point x="362" y="478" type="qcurve" smooth="yes"/>
      <point x="362" y="442"/>
      <point x="327" y="410"/>
    </contour>
    <contour>
      <point x="300" y="-10" type="qcurve" smooth="yes"/>
      <point x="274" y="-10"/>
      <point x="238" y="22"/>
      <point x="238" y="58" type="qcurve" smooth="yes"/>
      <point x="238" y="96"/>
      <point x="274" y="126"/>
      <point x="300" y="126" type="qcurve" smooth="yes"/>
      <point x="326" y="126"/>
      <point x="361" y="96"/>
      <point x="361" y="58" type="qcurve" smooth="yes"/>
      <point x="361" y="22"/>
      <point x="326" y="-10"/>
    </contour>
  </outline>
</glyph>
<glyph name="semicolon" format="2">
  <advance width="600"/>
  <unicode hex="003B"/>
  <outline>
    <contour>
      <point x="211" y="-140" type="line"/>
      <point x="222" y="-96"/>
      <point x="242" y="-1"/>
      <point x="260" y="91"/>
      <point x="265" y="129" type="qcurve"/>
      <point x="372" y="129" type="line"/>
      <point x="380" y="117" type="line"/>
      <point x="373" y="88"/>
      <point x="351" y="23"/>
      <point x="326" y="-44"/>
      <point x="299" y="-110"/>
      <point x="285" y="-140" type="qcurve"/>
    </contour>
    <contour>
      <point x="323" y="410" type="qcurve" smooth="yes"/>
      <point x="297" y="410"/>
      <point x="261" y="442"/>
      <point x="261" y="478" type="qcurve" smooth="yes"/>
      <point x="261" y="516"/>
      <point x="297" y="546"/>
      <point x="323" y="546" type="qcurve" smooth="yes"/>
      <point x="349" y="546"/>
      <point x="385" y="516"/>
      <point x="385" y="478" type="qcurve" smooth="yes"/>
      <point x="385" y="442"/>
      <point x="349" y="410"/>
    </contour>
  </outline>
</glyph>
<glyph name="less" format="2">
  <advance width="600"/>
  <unicode hex="003C"/>
  <outline>
    <contour>
      <point x="510" y="116" type="line"/>
      <point x="90" y="323" type="line"/>
      <point x="90" y="373" type="line"/>
      <point x="510" y="608" type="line"/>
      <point x="510" y="530" type="line"/>
      <point x="184" y="351" type="line"/>
      <point x="510" y="194" type="line"/>
    </contour>
  </outline>
</glyph>
<glyph name="question" format="2">
  <advance width="600"/>
  <unicode hex="003F"/>
  <outline>
    <contour>
      <point x="230" y="220" type="line" smooth="yes"/>
      <point x="230" y="258"/>
      <point x="248" y="314"/>
      <point x="293" y="365"/>
      <point x="331" y="392" type="qcurve" smooth="yes"/>
      <point x="365" y="416"/>
      <point x="406" y="458"/>
      <point x="425" y="508"/>
      <point x="425" y="545" type="qcurve" smooth="yes"/>
      <point x="425" y="589"/>
      <point x="360" y="646"/>
      <point x="298" y="646" type="qcurve" smooth="yes"/>
      <point x="246" y="646"/>
      <point x="163" y="621"/>
      <point x="122" y="602" type="qcurve"/>
      <point x="90" y="677" type="line"/>
      <point x="131" y="695"/>
      <point x="226" y="724"/>
      <point x="293" y="724" type="qcurve" smooth="yes"/>
      <point x="360" y="724"/>
      <point x="457" y="681"/>
      <point x="510" y="603"/>
      <point x="510" y="549" type="qcurve" smooth="yes"/>
      <point x="510" y="502"/>
      <point x="486" y="434"/>
      <point x="437" y="379"/>
      <point x="398" y="350" type="qcurve" smooth="yes"/>
      <point x="359" y="321"/>
      <point x="320" y="280"/>
      <point x="308" y="240"/>
      <point x="308" y="211" type="qcurve" smooth="yes"/>
      <point x="308" y="202" type="line"/>
      <point x="230" y="202" type="line"/>
    </contour>
    <contour>
      <point x="273" y="-10" type="qcurve" smooth="yes"/>
      <point x="247" y="-10"/>
      <point x="211" y="22"/>
      <point x="211" y="58" type="qcurve" smooth="yes"/>
      <point x="211" y="96"/>
      <point x="247" y="126"/>
      <point x="273" y="126" type="qcurve" smooth="yes"/>
      <point x="299" y="126"/>
      <point x="335" y="96"/>
      <point x="335" y="58" type="qcurve" smooth="yes"/>
      <point x="335" y="22"/>
      <point x="299" y="-10"/>
    </contour>
  </outline>
</glyph>
<glyph name="at" format="2">
  <advance width="600"/>
  <unicode hex="0040"/>
  <outline>
    <contour>
      <point x="289" y="171" type="qcurve" smooth="yes"/>
      <point x="326" y="171"/>
      <point x="356" y="256"/>
      <point x="360" y="323" type="qcurve" smooth="yes"/>
      <point x="367" y="447" type="line"/>
      <point x="357" y="451"/>
      <point x="331" y="457"/>
      <point x="317" y="457" type="qcurve" smooth="yes"/>
      <point x="284" y="457"/>
      <point x="245" y="409"/>
      <point x="227" y="335"/>
      <point x="227" y="294" type="qcurve" smooth="yes"/>
      <point x="227" y="229"/>
      <point x="261" y="171"/>
    </contour>
    <contour>
      <point x="324" y="-89" type="qcurve" smooth="yes"/>
      <point x="224" y="-89"/>
      <point x="86" y="5"/>
      <point x="15" y="178"/>
      <point x="15" y="294" type="qcurve" smooth="yes"/>
      <point x="15" y="386"/>
      <point x="54" y="540"/>
      <point x="131" y="652"/>
      <point x="245" y="714"/>
      <point x="319" y="714" type="qcurve" smooth="yes"/>
      <point x="400" y="714"/>
      <point x="519" y="628"/>
      <point x="585" y="468"/>
      <point x="585" y="357" type="qcurve" smooth="yes"/>
      <point x="585" y="311"/>
      <point x="572" y="223"/>
      <point x="545" y="151"/>
      <point x="500" y="108"/>
      <point x="467" y="108" type="qcurve" smooth="yes"/>
      <point x="433" y="108"/>
      <point x="395" y="162"/>
      <point x="390" y="196" type="qcurve"/>
      <point x="388" y="196" type="line"/>
      <point x="374" y="159"/>
      <point x="318" y="108"/>
      <point x="276" y="108" type="qcurve" smooth="yes"/>
      <point x="215" y="108"/>
      <point x="149" y="212"/>
      <point x="149" y="296" type="qcurve" smooth="yes"/>
      <point x="149" y="362"/>
      <point x="191" y="463"/>
      <point x="268" y="520"/>
      <point x="321" y="520" type="qcurve" smooth="yes"/>
      <point x="357" y="520"/>
      <point x="427" y="505"/>
      <point x="446" y="497" type="qcurve"/>
      <point x="435" y="294" type="line"/>
      <point x="434" y="286"/>
      <point x="434" y="257" type="qcurve" smooth="yes"/>
      <point x="434" y="205"/>
      <point x="456" y="171"/>
      <point x="469" y="171" type="qcurve" smooth="yes"/>
      <point x="487" y="171"/>
      <point x="509" y="222"/>
      <point x="518" y="307"/>
      <point x="518" y="358" type="qcurve" smooth="yes"/>
      <point x="518" y="497"/>
      <point x="407" y="648"/>
      <point x="318" y="648" type="qcurve" smooth="yes"/>
      <point x="242" y="648"/>
      <point x="137" y="560"/>
      <point x="84" y="403"/>
      <point x="84" y="297" type="qcurve" smooth="yes"/>
      <point x="84" y="199"/>
      <point x="138" y="55"/>
      <point x="246" y="-22"/>
      <point x="327" y="-22" type="qcurve" smooth="yes"/>
      <point x="377" y="-22"/>
      <point x="461" y="0"/>
      <point x="496" y="16" type="qcurve"/>
      <point x="496" y="-49" type="line"/>
      <point x="460" y="-67"/>
      <point x="378" y="-89"/>
    </contour>
  </outline>
</glyph>
<glyph name="A" format="2">
  <advance width="600"/>
  <unicode hex="0041"/>
  <outline>
    <contour>
      <point x="321" y="542" type="qcurve"/>
      <point x="315" y="559"/>
      <point x="304" y="602"/>
      <point x="299" y="622" type="qcurve"/>
      <point x="295" y="602"/>
      <point x="284" y="559"/>
      <point x="274" y="523"/>
      <point x="270" y="512" type="qcurve"/>
      <point x="204" y="299" type="line"/>
      <point x="395" y="299" type="line"/>
      <point x="329" y="512" type="line"/>
      <point x="326" y="524"/>
    </contour>
    <contour>
      <point x="20" y="0" type="line"/>
      <point x="252" y="717" type="line"/>
      <point x="347" y="717" type="line"/>
      <point x="580" y="0" type="line"/>
      <point x="488" y="0" type="line"/>
      <point x="420" y="219" type="line"/>
      <point x="179" y="219" type="line"/>
      <point x="111" y="0" type="line"/>
    </contour>
  </outline>
</glyph>
<glyph name="B" format="2">
  <advance width="600"/>
  <unicode hex="0042"/>
  <outline>
    <contour>
      <point x="95" y="0" type="line"/>
      <point x="95" y="714" type="line"/>
      <point x="286.579" y="714" type="line" smooth="yes"/>
      <point x="396.146" y="714"/>
      <point x="525" y="635"/>
      <point x="525" y="539" type="qcurve" smooth="yes"/>
      <point x="525" y="469"/>
      <point x="457" y="389"/>
      <point x="396.146" y="379" type="qcurve"/>
      <point x="396.146" y="374" type="line"/>
      <point x="437.211" y="367"/>
      <point x="505" y="331"/>
      <point x="545" y="263"/>
      <point x="545" y="207" type="qcurve" smooth="yes"/>
      <point x="545" y="142"/>
      <point x="490" y="49"/>
      <point x="387.181" y="0"/>
      <point x="316.461" y="0" type="qcurve" smooth="yes"/>
    </contour>
    <contour>
      <point x="300.524" y="78" type="line" smooth="yes"/>
      <point x="386.185" y="78"/>
      <point x="453" y="150"/>
      <point x="453" y="207" type="qcurve" smooth="yes"/>
      <point x="453" y="246"/>
      <point x="423.039" y="303"/>
      <point x="354.311" y="334"/>
      <point x="294.547" y="334" type="qcurve" smooth="yes"/>
      <point x="180" y="334" type="line"/>
      <point x="180" y="78" type="line"/>
    </contour>
    <contour>
      <point x="294.547" y="412" type="line" smooth="yes"/>
      <point x="369.252" y="412"/>
      <point x="433" y="469"/>
      <point x="433" y="527" type="qcurve" smooth="yes"/>
      <point x="433" y="586"/>
      <point x="364.272" y="636"/>
      <point x="279.606" y="636" type="qcurve" smooth="yes"/>
      <point x="180" y="636" type="line"/>
      <point x="180" y="412" type="line"/>
    </contour>
  </outline>
</glyph>
<glyph name="C" format="2">
  <advance width="600"/>
  <unicode hex="0043"/>
  <outline>
    <contour>
      <point x="365" y="-10" type="qcurve" smooth="yes"/>
      <point x="260" y="-10"/>
      <point x="128" y="84"/>
      <point x="66" y="249"/>
      <point x="66" y="357" type="qcurve" smooth="yes"/>
      <point x="66" y="442"/>
      <point x="106" y="577"/>
      <point x="184" y="673"/>
      <point x="296" y="724"/>
      <point x="369" y="724" type="qcurve" smooth="yes"/>
      <point x="421" y="724"/>
      <point x="512" y="702"/>
      <point x="550" y="682" type="qcurve"/>
      <point x="516" y="609" type="line"/>
      <point x="485" y="626"/>
      <point x="406" y="644"/>
      <point x="369" y="644" type="qcurve" smooth="yes"/>
      <point x="318" y="644"/>
      <point x="239" y="606"/>
      <point x="186" y="533"/>
      <point x="158" y="426"/>
      <point x="158" y="357" type="qcurve" smooth="yes"/>
      <point x="158" y="269"/>
      <point x="201" y="141"/>
      <point x="293" y="73"/>
      <point x="367" y="73" type="qcurve" smooth="yes"/>
      <point x="401" y="73"/>
      <point x="480" y="88"/>
      <point x="519" y="104" type="qcurve"/>
      <point x="519" y="19" type="line"/>
      <point x="479" y="4"/>
      <point x="406" y="-10"/>
    </contour>
  </outline>
</glyph>
<glyph name="D" format="2">
  <advance width="600"/>
  <unicode hex="0044"/>
  <outline>
    <contour>
      <point x="70" y="0" type="line"/>
      <point x="70" y="714" type="line"/>
      <point x="243" y="714" type="line" smooth="yes"/>
      <point x="338" y="714"/>
      <point x="478" y="634"/>
      <point x="555" y="479"/>
      <point x="555" y="364" type="qcurve" smooth="yes"/>
      <point x="555" y="244"/>
      <point x="476" y="82"/>
      <point x="328" y="0"/>
      <point x="223" y="0" type="qcurve" smooth="yes"/>
    </contour>
    <contour>
      <point x="214" y="78" type="line" smooth="yes"/>
      <point x="342" y="78"/>
      <point x="463" y="222"/>
      <point x="463" y="361" type="qcurve" smooth="yes"/>
      <point x="463" y="456"/>
      <point x="408" y="577"/>
      <point x="305" y="636"/>
      <point x="233" y="636" type="qcurve" smooth="yes"/>
      <point x="160" y="636" type="line"/>
      <point x="160" y="78" type="line"/>
    </contour>
  </outline>
</glyph>
<glyph name="E" format="2">
  <advance width="600"/>
  <unicode hex="0045"/>
  <outline>
    <contour>
      <point x="95" y="0" type="line"/>
      <point x="95" y="714" type="line"/>
      <point x="515" y="714" type="line"/>
      <point x="515" y="634" type="line"/>
      <point x="185" y="634" type="line"/>
      <point x="185" y="413" type="line"/>
      <point x="496" y="413" type="line"/>
      <point x="496" y="333" type="line"/>
      <point x="185" y="333" type="line"/>
      <point x="185" y="80" type="line"/>
      <point x="515" y="80" type="line"/>
      <point x="515" y="0" type="line"/>
    </contour>
  </outline>
</glyph>
<glyph name="F" format="2">
  <advance width="600"/>
  <unicode hex="0046"/>
  <anchor x="317" y="0" name="bottom"/>
  <anchor x="317" y="714" name="top"/>
  <anchor x="580" y="714" name="topright"/>
  <outline>
    <contour>
      <point x="185" y="0" type="line"/>
      <point x="185" y="302" type="line"/>
      <point x="496" y="302" type="line"/>
      <point x="496" y="382" type="line"/>
      <point x="185" y="382" type="line"/>
      <point x="185" y="634" type="line"/>
      <point x="515" y="634" type="line"/>
      <point x="515" y="714" type="line"/>
      <point x="95" y="714" type="line"/>
      <point x="95" y="0" type="line"/>
    </contour>
  </outline>
</glyph>
<glyph name="G" format="2">
  <advance width="600"/>
  <unicode hex="0047"/>
  <outline>
    <contour>
      <point x="342.388" y="-10" type="qcurve" smooth="yes"/>
      <point x="243" y="-10"/>
      <point x="111" y="71"/>
      <point x="45" y="230"/>
      <point x="45" y="346" type="qcurve" smooth="yes"/>
      <point x="45" y="466.335"/>
      <point x="115" y="635.97"/>
      <point x="252" y="724"/>
      <point x="352" y="724" type="qcurve" smooth="yes"/>
      <point x="403" y="724"/>
      <point x="485" y="702.272"/>
      <point x="522" y="682.519" type="qcurve"/>
      <point x="490" y="607.865" type="line"/>
      <point x="465" y="623.925"/>
      <point x="397" y="644"/>
      <point x="355.836" y="644" type="qcurve" smooth="yes"/>
      <point x="282" y="644"/>
      <point x="185" y="574.741"/>
      <point x="137" y="444.252"/>
      <point x="137" y="351.659" type="qcurve" smooth="yes"/>
      <point x="137" y="270"/>
      <point x="176" y="143"/>
      <point x="267" y="70"/>
      <point x="345.704" y="70" type="qcurve" smooth="yes"/>
      <point x="376" y="70"/>
      <point x="424" y="80"/>
      <point x="443" y="85" type="qcurve"/>
      <point x="443" y="297" type="line"/>
      <point x="313" y="297" type="line"/>
      <point x="313" y="377" type="line"/>
      <point x="530" y="377" type="line"/>
      <point x="530" y="27" type="line"/>
      <point x="493" y="12"/>
      <point x="396" y="-10"/>
    </contour>
  </outline>
</glyph>
<glyph name="H" format="2">
  <advance width="600"/>
  <unicode hex="0048"/>
  <outline>
    <contour>
      <point x="70" y="0" type="line"/>
      <point x="70" y="714" type="line"/>
      <point x="160" y="714" type="line"/>
      <point x="160" y="413" type="line"/>
      <point x="440" y="413" type="line"/>
      <point x="440" y="714" type="line"/>
      <point x="530" y="714" type="line"/>
      <point x="530" y="0" type="line"/>
      <point x="440" y="0" type="line"/>
      <point x="440" y="333" type="line"/>
      <point x="160" y="333" type="line"/>
      <point x="160" y="0" type="line"/>
    </contour>
  </outline>
</glyph>
<glyph name="I" format="2">
  <advance width="600"/>
  <unicode hex="0049"/>
  <outline>
    <contour>
      <point x="110" y="0" type="line"/>
      <point x="110" y="62" type="line"/>
      <point x="254" y="75" type="line"/>
      <point x="254" y="639" type="line"/>
      <point x="110" y="652" type="line"/>
      <point x="110" y="714" type="line"/>
      <point x="490" y="714" type="line"/>
      <point x="490" y="652" type="line"/>
      <point x="344" y="639" type="line"/>
      <point x="344" y="75" type="line"/>
      <point x="490" y="62" type="line"/>
      <point x="490" y="0" type="line"/>
    </contour>
  </outline>
</glyph>
<glyph name="J" format="2">
  <advance width="600"/>
  <unicode hex="004A"/>
  <outline>
    <contour>
      <point x="252" y="-10" type="qcurve" smooth="yes"/>
      <point x="214" y="-10"/>
      <point x="128" y="6"/>
      <point x="100" y="19" type="qcurve"/>
      <point x="100" y="104" type="line"/>
      <point x="123" y="94"/>
      <point x="205" y="73"/>
      <point x="245" y="73" type="qcurve" smooth="yes"/>
      <point x="285" y="73"/>
      <point x="343" y="104"/>
      <point x="375" y="172"/>
      <point x="375" y="229" type="qcurve" smooth="yes"/>
      <point x="375" y="714" type="line"/>
      <point x="465" y="714" type="line"/>
      <point x="465" y="217" type="line" smooth="yes"/>
      <point x="465" y="145"/>
      <point x="417" y="43"/>
      <point x="322" y="-10"/>
    </contour>
  </outline>
</glyph>
<glyph name="K" format="2">
  <advance width="600"/>
  <unicode hex="004B"/>
  <anchor x="310" y="0" name="bottom"/>
  <anchor x="300" y="714" name="top"/>
  <anchor x="580" y="714" name="topright"/>
  <outline>
    <contour>
      <point x="160" y="0" type="line"/>
      <point x="160" y="237" type="line"/>
      <point x="241" y="330" type="line"/>
      <point x="447" y="0" type="line"/>
      <point x="550" y="0" type="line"/>
      <point x="302" y="391" type="line"/>
      <point x="541" y="714" type="line"/>
      <point x="438" y="714" type="line"/>
      <point x="234" y="441" type="line" smooth="yes"/>
      <point x="206" y="403"/>
      <point x="183" y="366"/>
      <point x="160" y="330" type="curve"/>
      <point x="160" y="714" type="line"/>
      <point x="70" y="714" type="line"/>
      <point x="70" y="0" type="line"/>
    </contour>
  </outline>
</glyph>
<glyph name="L" format="2">
  <advance width="600"/>
  <unicode hex="004C"/>
  <anchor x="330" y="0" name="bottom"/>
  <anchor x="300" y="357" name="center"/>
  <anchor x="161" y="714" name="top"/>
  <anchor x="446" y="714" name="topright"/>
  <outline>
    <contour>
      <point x="515" y="0" type="line"/>
      <point x="515" y="83" type="line"/>
      <point x="205" y="83" type="line"/>
      <point x="205" y="714" type="line"/>
      <point x="115" y="714" type="line"/>
      <point x="115" y="0" type="line"/>
    </contour>
  </outline>
</glyph>
<glyph name="M" format="2">
  <advance width="600"/>
  <unicode hex="004D"/>
  <outline>
    <contour>
      <point x="50" y="0" type="line"/>
      <point x="50" y="714" type="line"/>
      <point x="179" y="714" type="line"/>
      <point x="298" y="295" type="line"/>
      <point x="301" y="295" type="line"/>
      <point x="420" y="714" type="line"/>
      <point x="550" y="714" type="line"/>
      <point x="550" y="0" type="line"/>
      <point x="465" y="0" type="line"/>
      <point x="465" y="387" type="line" smooth="yes"/>
      <point x="465" y="407"/>
      <point x="466" y="447"/>
      <point x="467" y="488"/>
      <point x="470" y="548" type="qcurve" smooth="yes"/>
      <point x="471" y="568"/>
      <point x="475" y="606"/>
      <point x="477" y="624" type="qcurve"/>
      <point x="473" y="624" type="line"/>
      <point x="341" y="178" type="line"/>
      <point x="258" y="178" type="line"/>
      <point x="125" y="625" type="line"/>
      <point x="121" y="625" type="line"/>
      <point x="123" y="610"/>
      <point x="127" y="574"/>
      <point x="130" y="534"/>
      <point x="133" y="491"/>
      <point x="134" y="448"/>
      <point x="135" y="406"/>
      <point x="135" y="387" type="qcurve" smooth="yes"/>
      <point x="135" y="0" type="line"/>
    </contour>
  </outline>
</glyph>
<glyph name="N" format="2">
  <advance width="600"/>
  <unicode hex="004E"/>
  <outline>
    <contour>
      <point x="70" y="0" type="line"/>
      <point x="70" y="714" type="line"/>
      <point x="189" y="714" type="line"/>
      <point x="449" y="119" type="line"/>
      <point x="452" y="119" type="line"/>
      <point x="449" y="148"/>
      <point x="446" y="201"/>
      <point x="444" y="252"/>
      <point x="443" y="306"/>
      <point x="443" y="336" type="qcurve" smooth="yes"/>
      <point x="443" y="714" type="line"/>
      <point x="530" y="714" type="line"/>
      <point x="530" y="0" type="line"/>
      <point x="421" y="0" type="line"/>
      <point x="148" y="622" type="line"/>
      <point x="144" y="622" type="line"/>
      <point x="146" y="594"/>
      <point x="151" y="538"/>
      <point x="155" y="482"/>
      <point x="157" y="426"/>
      <point x="157" y="398" type="qcurve" smooth="yes"/>
      <point x="157" y="0" type="line"/>
    </contour>
  </outline>
</glyph>
<glyph name="O" format="2">
  <advance width="600"/>
  <unicode hex="004F"/>
  <outline>
    <contour>
      <point x="299" y="-10" type="qcurve" smooth="yes"/>
      <point x="232" y="-10"/>
      <point x="136" y="43"/>
      <point x="74" y="140"/>
      <point x="45" y="275"/>
      <point x="45" y="357" type="qcurve" smooth="yes"/>
      <point x="45" y="467"/>
      <point x="98" y="633"/>
      <point x="211" y="726"/>
      <point x="300" y="726" type="qcurve" smooth="yes"/>
      <point x="367" y="726"/>
      <point x="463" y="674"/>
      <point x="525" y="576"/>
      <point x="555" y="442"/>
      <point x="555" y="359" type="qcurve" smooth="yes"/>
      <point x="555" y="276"/>
      <point x="525" y="140"/>
      <point x="463" y="43"/>
      <point x="366" y="-10"/>
    </contour>
    <contour>
      <point x="301" y="70" type="qcurve" smooth="yes"/>
      <point x="361" y="70"/>
      <point x="432" y="139"/>
      <point x="463" y="268"/>
      <point x="463" y="358" type="qcurve" smooth="yes"/>
      <point x="463" y="494"/>
      <point x="391" y="646"/>
      <point x="302" y="646" type="qcurve" smooth="yes"/>
      <point x="242" y="646"/>
      <point x="169" y="577"/>
      <point x="137" y="448"/>
      <point x="137" y="358" type="qcurve" smooth="yes"/>
      <point x="137" y="268"/>
      <point x="169" y="139"/>
      <point x="241" y="70"/>
    </contour>
  </outline>
</glyph>
<glyph name="P" format="2">
  <advance width="600"/>
  <unicode hex="0050"/>
  <outline>
    <contour>
      <point x="95" y="0" type="line"/>
      <point x="95" y="714" type="line"/>
      <point x="299" y="714" type="line" smooth="yes"/>
      <point x="427" y="714"/>
      <point x="545" y="605"/>
      <point x="545" y="505" type="qcurve" smooth="yes"/>
      <point x="545" y="446"/>
      <point x="496" y="340"/>
      <point x="383" y="275"/>
      <point x="286" y="275" type="qcurve" smooth="yes"/>
      <point x="185" y="275" type="line"/>
      <point x="185" y="0" type="line"/>
    </contour>
    <contour>
      <point x="276" y="353" type="line" smooth="yes"/>
      <point x="335" y="353"/>
      <point x="414" y="383"/>
      <point x="453" y="448"/>
      <point x="453" y="500" type="qcurve" smooth="yes"/>
      <point x="453" y="574"/>
      <point x="374" y="636"/>
      <point x="291" y="636" type="qcurve" smooth="yes"/>
      <point x="185" y="636" type="line"/>
      <point x="185" y="353" type="line"/>
    </contour>
  </outline>
</glyph>
<glyph name="Q" format="2">
  <advance width="600"/>
  <unicode hex="0051"/>
  <anchor x="300" y="-220" name="bottom"/>
  <anchor x="300" y="714" name="top"/>
  <anchor x="600" y="714" name="topright"/>
  <outline>
    <component base="O"/>
    <contour>
      <point x="541" y="-180" type="line"/>
      <point x="397" y="93" type="line"/>
      <point x="337" y="27" type="line"/>
      <point x="441" y="-180" type="line"/>
    </contour>
  </outline>
</glyph>
<glyph name="R" format="2">
  <advance width="600"/>
  <unicode hex="0052"/>
  <outline>
    <contour>
      <point x="95" y="0" type="line"/>
      <point x="95" y="714" type="line"/>
      <point x="262" y="714" type="line" smooth="yes"/>
      <point x="346" y="714"/>
      <point x="457" y="669"/>
      <point x="513" y="581"/>
      <point x="513" y="514" type="qcurve" smooth="yes"/>
      <point x="513" y="458"/>
      <point x="477" y="381"/>
      <point x="416" y="332"/>
      <point x="378" y="318" type="qcurve"/>
      <point x="569" y="0" type="line"/>
      <point x="469" y="0" type="line"/>
      <point x="297" y="292" type="line"/>
      <point x="185" y="292" type="line"/>
      <point x="185" y="0" type="line"/>
    </contour>
    <contour>
      <point x="259" y="370" type="line" smooth="yes"/>
      <point x="318" y="370"/>
      <point x="388" y="401"/>
      <point x="420" y="462"/>
      <point x="420" y="506" type="qcurve" smooth="yes"/>
      <point x="420" y="577"/>
      <point x="343" y="636"/>
      <point x="257" y="636" type="qcurve" smooth="yes"/>
      <point x="185" y="636" type="line"/>
      <point x="185" y="370" type="line"/>
    </contour>
  </outline>
</glyph>
<glyph name="S" format="2">
  <advance width="600"/>
  <unicode hex="0053"/>
  <outline>
    <contour>
      <point x="281" y="-10" type="qcurve" smooth="yes"/>
      <point x="224" y="-10"/>
      <point x="117" y="11"/>
      <point x="85" y="27" type="qcurve"/>
      <point x="85" y="110" type="line"/>
      <point x="122" y="94"/>
      <point x="228" y="67"/>
      <point x="283" y="67" type="qcurve" smooth="yes"/>
      <point x="334" y="67"/>
      <point x="403" y="95"/>
      <point x="437" y="151"/>
      <point x="437" y="192" type="qcurve" smooth="yes"/>
      <point x="437" y="226"/>
      <point x="409" y="266"/>
      <point x="338" y="303"/>
      <point x="274" y="331" type="qcurve" smooth="yes"/>
      <point x="232" y="350"/>
      <point x="152" y="396"/>
      <point x="101" y="472"/>
      <point x="101" y="534" type="qcurve" smooth="yes"/>
      <point x="101" y="596"/>
      <point x="156" y="680"/>
      <point x="258" y="724"/>
      <point x="329" y="724" type="qcurve" smooth="yes"/>
      <point x="383" y="724"/>
      <point x="479" y="701"/>
      <point x="515" y="684" type="qcurve"/>
      <point x="486" y="609" type="line"/>
      <point x="452" y="625"/>
      <point x="368" y="644"/>
      <point x="327" y="644" type="qcurve" smooth="yes"/>
      <point x="288" y="644"/>
      <point x="227" y="622"/>
      <point x="193" y="573"/>
      <point x="193" y="532" type="qcurve" smooth="yes"/>
      <point x="193" y="497"/>
      <point x="222" y="453"/>
      <point x="286" y="420"/>
      <point x="336" y="398" type="qcurve" smooth="yes"/>
      <point x="393" y="374"/>
      <point x="480" y="325"/>
      <point x="529" y="253"/>
      <point x="529" y="191" type="qcurve" smooth="yes"/>
      <point x="529" y="143"/>
      <point x="498" y="69"/>
      <point x="435" y="17"/>
      <point x="343" y="-10"/>
    </contour>
  </outline>
</glyph>
<glyph name="T" format="2">
  <advance width="600"/>
  <unicode hex="0054"/>
  <anchor x="300" y="0" name="bottom"/>
  <anchor x="300" y="357" name="center"/>
  <anchor x="300" y="714" name="top"/>
  <anchor x="580" y="714" name="topright"/>
  <outline>
    <contour>
      <point x="345" y="0" type="line"/>
      <point x="345" y="634" type="line"/>
      <point x="555" y="634" type="line"/>
      <point x="555" y="714" type="line"/>
      <point x="45" y="714" type="line"/>
      <point x="45" y="634" type="line"/>
      <point x="255" y="634" type="line"/>
      <point x="255" y="0" type="line"/>
    </contour>
  </outline>
</glyph>
<glyph name="U" format="2">
  <advance width="600"/>
  <unicode hex="0055"/>
  <outline>
    <contour>
      <point x="298" y="-10" type="qcurve" smooth="yes"/>
      <point x="216" y="-10"/>
      <point x="115" y="55"/>
      <point x="70" y="174"/>
      <point x="70" y="254" type="qcurve" smooth="yes"/>
      <point x="70" y="714" type="line"/>
      <point x="160" y="714" type="line"/>
      <point x="160" y="259" type="line" smooth="yes"/>
      <point x="160" y="203"/>
      <point x="185" y="117"/>
      <point x="246" y="70"/>
      <point x="300" y="70" type="qcurve" smooth="yes"/>
      <point x="357" y="70"/>
      <point x="418" y="120"/>
      <point x="440" y="207"/>
      <point x="440" y="260" type="qcurve" smooth="yes"/>
      <point x="440" y="714" type="line"/>
      <point x="530" y="714" type="line"/>
      <point x="530" y="252" type="line" smooth="yes"/>
      <point x="530" y="178"/>
      <point x="486" y="59"/>
      <point x="384" y="-10"/>
    </contour>
  </outline>
</glyph>
<glyph name="V" format="2">
  <advance width="600"/>
  <unicode hex="0056"/>
  <anchor x="300" y="0" name="bottom"/>
  <anchor x="300" y="714" name="top"/>
  <anchor x="580" y="714" name="topright"/>
  <outline>
    <contour>
      <point x="349" y="0" type="line"/>
      <point x="575" y="714" type="line"/>
      <point x="480" y="714" type="line"/>
      <point x="346" y="253" type="line" smooth="yes"/>
      <point x="328" y="192"/>
      <point x="314" y="134"/>
      <point x="304" y="87" type="curve"/>
      <point x="301" y="87" type="line"/>
      <point x="290" y="135"/>
      <point x="276" y="191"/>
      <point x="258" y="250" type="curve" smooth="yes"/>
      <point x="119" y="714" type="line"/>
      <point x="25" y="714" type="line"/>
      <point x="255" y="0" type="line"/>
    </contour>
  </outline>
</glyph>
<glyph name="W" format="2">
  <advance width="600"/>
  <unicode hex="0057"/>
  <outline>
    <contour>
      <point x="105" y="0" type="line"/>
      <point x="25" y="714" type="line"/>
      <point x="108" y="714" type="line"/>
      <point x="112" y="675"/>
      <point x="119" y="596"/>
      <point x="127" y="517"/>
      <point x="134" y="438"/>
      <point x="138" y="399" type="qcurve" smooth="yes"/>
      <point x="141" y="368"/>
      <point x="147" y="298"/>
      <point x="152" y="227"/>
      <point x="156" y="163"/>
      <point x="159" y="112"/>
      <point x="159" y="98" type="qcurve"/>
      <point x="161" y="98" type="line"/>
      <point x="164" y="115"/>
      <point x="174" y="166"/>
      <point x="186" y="224"/>
      <point x="199" y="281"/>
      <point x="204" y="304" type="qcurve" smooth="yes"/>
      <point x="258" y="536" type="line"/>
      <point x="344" y="536" type="line"/>
      <point x="400" y="302" type="line" smooth="yes"/>
      <point x="406" y="276"/>
      <point x="420" y="219"/>
      <point x="432" y="164"/>
      <point x="441" y="115"/>
      <point x="444" y="98" type="qcurve"/>
      <point x="446" y="98" type="line"/>
      <point x="447" y="112"/>
      <point x="449" y="159"/>
      <point x="452" y="218"/>
      <point x="456" y="288"/>
      <point x="462" y="363"/>
      <point x="465" y="402" type="qcurve" smooth="yes"/>
      <point x="468" y="433"/>
      <point x="473" y="496"/>
      <point x="479" y="558"/>
      <point x="484" y="620"/>
      <point x="489" y="683"/>
      <point x="492" y="714" type="qcurve"/>
      <point x="575" y="714" type="line"/>
      <point x="503" y="0" type="line"/>
      <point x="406" y="0" type="line"/>
      <point x="327" y="328" type="line" smooth="yes"/>
      <point x="320" y="358"/>
      <point x="310" y="407"/>
      <point x="304" y="442"/>
      <point x="302" y="450" type="qcurve"/>
      <point x="300" y="450" type="line"/>
      <point x="299" y="442"/>
      <point x="294" y="408"/>
      <point x="284" y="359"/>
      <point x="277" y="328" type="qcurve" smooth="yes"/>
      <point x="201" y="0" type="line"/>
    </contour>
  </outline>
</glyph>
<glyph name="X" format="2">
  <advance width="600"/>
  <unicode hex="0058"/>
  <outline>
    <contour>
      <point x="35" y="0" type="line"/>
      <point x="258" y="369" type="line"/>
      <point x="50" y="714" type="line"/>
      <point x="147" y="714" type="line"/>
      <point x="300" y="441" type="line"/>
      <point x="455" y="714" type="line"/>
      <point x="550" y="714" type="line"/>
      <point x="343" y="368" type="line"/>
      <point x="565" y="0" type="line"/>
      <point x="472" y="0" type="line"/>
      <point x="301" y="296" type="line"/>
      <point x="131" y="0" type="line"/>
    </contour>
  </outline>
</glyph>
<glyph name="Y" format="2">
  <advance width="600"/>
  <unicode hex="0059"/>
  <anchor x="300" y="0" name="bottom"/>
  <anchor x="300" y="714" name="top"/>
  <anchor x="20" y="714" name="topleft"/>
  <anchor x="580" y="714" name="topright"/>
  <outline>
    <contour>
      <point x="343" y="0" type="line"/>
      <point x="343" y="278" type="line"/>
      <point x="565" y="714" type="line"/>
      <point x="469" y="714" type="line"/>
      <point x="301" y="353" type="line"/>
      <point x="134" y="714" type="line"/>
      <point x="35" y="714" type="line"/>
      <point x="257" y="278" type="line"/>
      <point x="257" y="0" type="line"/>
    </contour>
  </outline>
</glyph>
<glyph name="Z" format="2">
  <advance width="600"/>
  <unicode hex="005A"/>
  <anchor x="312" y="0" name="bottom"/>
  <anchor x="312" y="714" name="top"/>
  <anchor x="580" y="714" name="topright"/>
  <outline>
    <contour>
      <point x="505" y="0" type="line"/>
      <point x="505" y="80" type="line"/>
      <point x="192" y="80" type="line"/>
      <point x="505" y="643" type="line"/>
      <point x="505" y="714" type="line"/>
      <point x="115" y="714" type="line"/>
      <point x="115" y="636" type="line"/>
      <point x="412" y="636" type="line"/>
      <point x="95" y="71" type="line"/>
      <point x="95" y="0" type="line"/>
    </contour>
  </outline>
</glyph>
<glyph name="backslash" format="2">
  <advance width="600"/>
  <unicode hex="005C"/>
  <outline>
    <contour>
      <point x="480" y="0" type="line"/>
      <point x="394" y="0" type="line"/>
      <point x="120" y="714" type="line"/>
      <point x="206" y="714" type="line"/>
    </contour>
  </outline>
</glyph>
<glyph name="bracketright" format="2">
  <advance width="600"/>
  <unicode hex="005D"/>
  <outline>
    <contour>
      <point x="360" y="714" type="line"/>
      <point x="360" y="-158" type="line"/>
      <point x="135" y="-158" type="line"/>
      <point x="135" y="-86" type="line"/>
      <point x="274" y="-86" type="line"/>
      <point x="274" y="642" type="line"/>
      <point x="135" y="642" type="line"/>
      <point x="135" y="714" type="line"/>
    </contour>
  </outline>
</glyph>
<glyph name="asciicircum" format="2">
  <advance width="600"/>
  <unicode hex="005E"/>
  <outline>
    <contour>
      <point x="50" y="267" type="line"/>
      <point x="264" y="719" type="line"/>
      <point x="314" y="719" type="line"/>
      <point x="550" y="267" type="line"/>
      <point x="472" y="267" type="line"/>
      <point x="290" y="626" type="line"/>
      <point x="128" y="267" type="line"/>
    </contour>
  </outline>
</glyph>
<glyph name="underscore" format="2">
  <advance width="600"/>
  <unicode hex="005F"/>
  <outline>
    <contour>
      <point x="0" y="-154" type="line"/>
      <point x="0" y="-74" type="line"/>
      <point x="600" y="-74" type="line"/>
      <point x="600" y="-154" type="line"/>
    </contour>
  </outline>
</glyph>
<glyph name="grave" format="2">
  <advance width="600"/>
  <unicode hex="0060"/>
  <outline>
    <contour>
      <point x="390" y="606" type="line"/>
      <point x="390" y="618" type="line"/>
      <point x="359" y="655"/>
      <point x="316" y="721"/>
      <point x="294" y="766" type="curve"/>
      <point x="189" y="766" type="line"/>
      <point x="189" y="756" type="line"/>
      <point x="212" y="719"/>
      <point x="285" y="642"/>
      <point x="331" y="606" type="curve"/>
    </contour>
  </outline>
</glyph>
<glyph name="a" format="2">
  <advance width="600"/>
  <unicode hex="0061"/>
  <outline>
    <contour>
      <point x="246" y="-10" type="qcurve" smooth="yes"/>
      <point x="167" y="-10"/>
      <point x="70" y="68"/>
      <point x="70" y="147" type="qcurve" smooth="yes"/>
      <point x="70" y="205"/>
      <point x="126" y="282"/>
      <point x="235" y="321"/>
      <point x="313" y="323" type="qcurve" smooth="yes"/>
      <point x="428" y="326" type="line"/>
      <point x="428" y="348" type="line" smooth="yes"/>
      <point x="428" y="420"/>
      <point x="356" y="473"/>
      <point x="295" y="473" type="qcurve" smooth="yes"/>
      <point x="252" y="473"/>
      <point x="174" y="451"/>
      <point x="139" y="431" type="qcurve"/>
      <point x="108" y="499" type="line"/>
      <point x="146" y="518"/>
      <point x="239" y="546"/>
      <point x="300" y="546" type="qcurve" smooth="yes"/>
      <point x="401" y="546"/>
      <point x="510" y="455"/>
      <point x="510" y="359" type="qcurve" smooth="yes"/>
      <point x="510" y="0" type="line"/>
      <point x="438" y="0" type="line"/>
      <point x="428" y="74" type="line"/>
      <point x="424" y="74" type="line"/>
      <point x="402" y="46"/>
      <point x="349" y="9"/>
      <point x="285" y="-10"/>
    </contour>
    <contour>
      <point x="261" y="63" type="qcurve" smooth="yes"/>
      <point x="306" y="63"/>
      <point x="382" y="96"/>
      <point x="428" y="163"/>
      <point x="428" y="214" type="qcurve" smooth="yes"/>
      <point x="428" y="262" type="line"/>
      <point x="332" y="259" type="line" smooth="yes"/>
      <point x="268" y="257"/>
      <point x="190" y="230"/>
      <point x="155" y="183"/>
      <point x="155" y="150" type="qcurve" smooth="yes"/>
      <point x="155" y="104"/>
      <point x="213" y="63"/>
    </contour>
  </outline>
</glyph>
<glyph name="b" format="2">
  <advance width="600"/>
  <unicode hex="0062"/>
  <outline>
    <contour>
      <point x="329" y="-10" type="qcurve" smooth="yes"/>
      <point x="270" y="-10"/>
      <point x="189" y="37"/>
      <point x="166" y="68" type="qcurve"/>
      <point x="160" y="68" type="line"/>
      <point x="152" y="0" type="line"/>
      <point x="80" y="0" type="line"/>
      <point x="80" y="760" type="line"/>
      <point x="167" y="760" type="line"/>
      <point x="167" y="576" type="line" smooth="yes"/>
      <point x="167" y="548"/>
      <point x="166" y="494"/>
      <point x="163" y="466" type="qcurve"/>
      <point x="167" y="466" type="line"/>
      <point x="188" y="498"/>
      <point x="268" y="546"/>
      <point x="329" y="546" type="qcurve" smooth="yes"/>
      <point x="377" y="546"/>
      <point x="457" y="511"/>
      <point x="514" y="441"/>
      <point x="545" y="337"/>
      <point x="545" y="269" type="qcurve" smooth="yes"/>
      <point x="545" y="200"/>
      <point x="514" y="96"/>
      <point x="456" y="25"/>
      <point x="377" y="-10"/>
    </contour>
    <contour>
      <point x="312" y="63" type="qcurve" smooth="yes"/>
      <point x="385" y="63"/>
      <point x="453" y="169"/>
      <point x="453" y="269" type="qcurve" smooth="yes"/>
      <point x="453" y="367"/>
      <point x="385" y="473"/>
      <point x="311" y="473" type="qcurve" smooth="yes"/>
      <point x="242" y="473"/>
      <point x="167" y="368"/>
      <point x="167" y="271" type="qcurve" smooth="yes"/>
      <point x="167" y="170"/>
      <point x="238" y="63"/>
    </contour>
  </outline>
</glyph>
<glyph name="c" format="2">
  <advance width="600"/>
  <unicode hex="0063"/>
  <outline>
    <contour>
      <point x="338" y="-10" type="qcurve" smooth="yes"/>
      <point x="260" y="-10"/>
      <point x="146" y="47"/>
      <point x="85" y="168"/>
      <point x="85" y="264" type="qcurve" smooth="yes"/>
      <point x="85" y="367"/>
      <point x="152" y="491"/>
      <point x="271" y="546"/>
      <point x="347" y="546" type="qcurve" smooth="yes"/>
      <point x="394" y="546"/>
      <point x="471" y="527"/>
      <point x="505" y="509" type="qcurve"/>
      <point x="478" y="436" type="line"/>
      <point x="446" y="453"/>
      <point x="386" y="468"/>
      <point x="351" y="468" type="qcurve" smooth="yes"/>
      <point x="290" y="468"/>
      <point x="213" y="423"/>
      <point x="177" y="334"/>
      <point x="177" y="266" type="qcurve" smooth="yes"/>
      <point x="177" y="195"/>
      <point x="215" y="107"/>
      <point x="292" y="67"/>
      <point x="348" y="67" type="qcurve" smooth="yes"/>
      <point x="392" y="67"/>
      <point x="470" y="86"/>
      <point x="499" y="99" type="qcurve"/>
      <point x="499" y="20" type="line"/>
      <point x="469" y="6"/>
      <point x="381" y="-10"/>
    </contour>
  </outline>
</glyph>
<glyph name="d" format="2">
  <advance width="600"/>
  <unicode hex="0064"/>
  <outline>
    <contour>
      <point x="274" y="-10" type="qcurve" smooth="yes"/>
      <point x="225" y="-10"/>
      <point x="144" y="24"/>
      <point x="86" y="94"/>
      <point x="55" y="200"/>
      <point x="55" y="271" type="qcurve" smooth="yes"/>
      <point x="55" y="360"/>
      <point x="106" y="483"/>
      <point x="208" y="546"/>
      <point x="284" y="546" type="qcurve" smooth="yes"/>
      <point x="321" y="546"/>
      <point x="378" y="526"/>
      <point x="419" y="491"/>
      <point x="431" y="468" type="qcurve"/>
      <point x="437" y="468" type="line"/>
      <point x="436" y="478"/>
      <point x="433" y="505"/>
      <point x="431" y="534"/>
      <point x="431" y="547" type="qcurve" smooth="yes"/>
      <point x="431" y="760" type="line"/>
      <point x="520" y="760" type="line"/>
      <point x="520" y="0" type="line"/>
      <point x="446" y="0" type="line"/>
      <point x="436" y="72" type="line"/>
      <point x="432" y="72" type="line"/>
      <point x="417" y="48"/>
      <point x="374" y="11"/>
      <point x="315" y="-10"/>
    </contour>
    <contour>
      <point x="291" y="63" type="qcurve" smooth="yes"/>
      <point x="362" y="63"/>
      <point x="431" y="162"/>
      <point x="431" y="247" type="qcurve" smooth="yes"/>
      <point x="431" y="267" type="line" smooth="yes"/>
      <point x="431" y="326"/>
      <point x="405" y="419"/>
      <point x="345" y="473"/>
      <point x="294" y="473" type="qcurve" smooth="yes"/>
      <point x="224" y="473"/>
      <point x="147" y="369"/>
      <point x="147" y="262" type="qcurve" smooth="yes"/>
      <point x="147" y="163"/>
      <point x="218" y="63"/>
    </contour>
  </outline>
</glyph>
<glyph name="e" format="2">
  <advance width="600"/>
  <unicode hex="0065"/>
  <outline>
    <contour>
      <point x="337" y="-10" type="qcurve" smooth="yes"/>
      <point x="251" y="-10"/>
      <point x="127" y="54"/>
      <point x="60" y="177"/>
      <point x="60" y="266" type="qcurve" smooth="yes"/>
      <point x="60" y="354"/>
      <point x="124" y="479"/>
      <point x="238" y="546"/>
      <point x="314" y="546" type="qcurve" smooth="yes"/>
      <point x="384" y="546"/>
      <point x="485" y="484"/>
      <point x="540" y="371"/>
      <point x="540" y="292" type="qcurve" smooth="yes"/>
      <point x="540" y="251" type="line"/>
      <point x="151" y="251" type="line"/>
      <point x="153" y="181"/>
      <point x="202" y="99"/>
      <point x="287" y="64"/>
      <point x="343" y="64" type="qcurve" smooth="yes"/>
      <point x="387" y="64"/>
      <point x="473" y="88"/>
      <point x="516" y="108" type="qcurve"/>
      <point x="516" y="28" type="line"/>
      <point x="470" y="8"/>
      <point x="378" y="-10"/>
    </contour>
    <contour>
      <point x="450" y="323" type="line"/>
      <point x="448" y="370"/>
      <point x="416" y="437"/>
      <point x="357" y="473"/>
      <point x="314" y="473" type="qcurve" smooth="yes"/>
      <point x="247" y="473"/>
      <point x="164" y="392"/>
      <point x="153" y="323" type="qcurve"/>
    </contour>
  </outline>
</glyph>
<glyph name="f" format="2">
  <advance width="600"/>
  <unicode hex="0066"/>
  <outline>
    <contour>
      <point x="241" y="0" type="line"/>
      <point x="241" y="461" type="line"/>
      <point x="66" y="461" type="line"/>
      <point x="66" y="523" type="line"/>
      <point x="241" y="536" type="line"/>
      <point x="241" y="597" type="line" smooth="yes"/>
      <point x="241" y="661"/>
      <point x="290" y="734"/>
      <point x="378" y="765"/>
      <point x="436" y="765" type="qcurve" smooth="yes"/>
      <point x="480" y="765"/>
      <point x="546" y="753"/>
      <point x="570" y="745" type="qcurve"/>
      <point x="550" y="676" type="line"/>
      <point x="530" y="682"/>
      <point x="470" y="691"/>
      <point x="441" y="691" type="qcurve" smooth="yes"/>
      <point x="389" y="691"/>
      <point x="331" y="647"/>
      <point x="331" y="585" type="qcurve" smooth="yes"/>
      <point x="331" y="536" type="line"/>
      <point x="533" y="536" type="line"/>
      <point x="533" y="461" type="line"/>
      <point x="331" y="461" type="line"/>
      <point x="331" y="0" type="line"/>
    </contour>
  </outline>
</glyph>
<glyph name="g" format="2">
  <advance width="600"/>
  <unicode hex="0067"/>
  <outline>
    <contour>
      <point x="261" y="-245" type="qcurve" smooth="yes"/>
      <point x="206" y="-245"/>
      <point x="109" y="-224"/>
      <point x="68" y="-207" type="qcurve"/>
      <point x="68" y="-127" type="line"/>
      <point x="108" y="-150"/>
      <point x="213" y="-173"/>
      <point x="258" y="-173" type="qcurve" smooth="yes"/>
      <point x="349" y="-173"/>
      <point x="421" y="-88"/>
      <point x="421" y="-14" type="qcurve" smooth="yes"/>
      <point x="421" y="5" type="line" smooth="yes"/>
      <point x="421" y="17"/>
      <point x="422" y="39"/>
      <point x="424" y="62" type="qcurve"/>
      <point x="420" y="62" type="line"/>
      <point x="392" y="21"/>
      <point x="317" y="-10"/>
      <point x="264" y="-10" type="qcurve" smooth="yes"/>
      <point x="158" y="-10"/>
      <point x="40" y="135"/>
      <point x="40" y="265" type="qcurve" smooth="yes"/>
      <point x="40" y="396"/>
      <point x="157" y="546"/>
      <point x="259" y="546" type="qcurve" smooth="yes"/>
      <point x="313" y="546"/>
      <point x="387" y="511"/>
      <point x="416" y="470" type="qcurve"/>
      <point x="421" y="470" type="line"/>
      <point x="433" y="536" type="line"/>
      <point x="505" y="536" type="line"/>
      <point x="505" y="-14" type="line" smooth="yes"/>
      <point x="505" y="-90"/>
      <point x="453" y="-193"/>
      <point x="345" y="-245"/>
    </contour>
    <contour>
      <point x="296" y="63" type="qcurve" smooth="yes"/>
      <point x="329" y="63"/>
      <point x="382" y="84"/>
      <point x="419" y="129"/>
      <point x="439" y="198"/>
      <point x="439" y="246" type="qcurve" smooth="yes"/>
      <point x="439" y="267" type="line" smooth="yes"/>
      <point x="439" y="340"/>
      <point x="404" y="431"/>
      <point x="338" y="473"/>
      <point x="293" y="473" type="qcurve" smooth="yes"/>
      <point x="217" y="473"/>
      <point x="147" y="366"/>
      <point x="147" y="268" type="qcurve" smooth="yes"/>
      <point x="147" y="168"/>
      <point x="220" y="63"/>
    </contour>
    <contour>
      <point x="581.155" y="-121.357" type="line"/>
      <point x="294.224" y="-121.357" type="line"/>
      <point x="294.224" y="-50.3567" type="line"/>
      <point x="581.155" y="-50.3567" type="line"/>
    </contour>
  </outline>
</glyph>
<glyph name="h" format="2">
  <advance width="600"/>
  <unicode hex="0068"/>
  <outline>
    <contour>
      <point x="80" y="0" type="line"/>
      <point x="80" y="760" type="line"/>
      <point x="170" y="760" type="line"/>
      <point x="170" y="544" type="line" smooth="yes"/>
      <point x="170" y="525"/>
      <point x="167" y="467"/>
      <point x="166" y="450" type="qcurve"/>
      <point x="171" y="450" type="line"/>
      <point x="188" y="483"/>
      <point x="239" y="525"/>
      <point x="303" y="546"/>
      <point x="339" y="546" type="qcurve" smooth="yes"/>
      <point x="422" y="546"/>
      <point x="525" y="453"/>
      <point x="525" y="350" type="qcurve" smooth="yes"/>
      <point x="525" y="0" type="line"/>
      <point x="435" y="0" type="line"/>
      <point x="435" y="332" type="line" smooth="yes"/>
      <point x="435" y="405"/>
      <point x="373" y="473"/>
      <point x="316" y="473" type="qcurve" smooth="yes"/>
      <point x="272" y="473"/>
      <point x="206" y="427"/>
      <point x="170" y="340"/>
      <point x="170" y="278" type="qcurve" smooth="yes"/>
      <point x="170" y="0" type="line"/>
    </contour>
  </outline>
</glyph>
<glyph name="i" format="2">
  <advance width="600"/>
  <unicode hex="0069"/>
  <outline>
    <contour>
      <point x="80" y="0" type="line"/>
      <point x="80" y="60" type="line"/>
      <point x="271" y="75" type="line"/>
      <point x="271" y="461" type="line"/>
      <point x="96" y="474" type="line"/>
      <point x="96" y="536" type="line"/>
      <point x="361" y="536" type="line"/>
      <point x="361" y="75" type="line"/>
      <point x="540" y="60" type="line"/>
      <point x="540" y="0" type="line"/>
    </contour>
    <contour>
      <point x="307" y="633" type="qcurve" smooth="yes"/>
      <point x="281" y="633"/>
      <point x="244" y="665"/>
      <point x="244" y="696" type="qcurve" smooth="yes"/>
      <point x="244" y="729"/>
      <point x="281" y="760"/>
      <point x="307" y="760" type="qcurve" smooth="yes"/>
      <point x="333" y="760"/>
      <point x="370" y="729"/>
      <point x="370" y="696" type="qcurve" smooth="yes"/>
      <point x="370" y="665"/>
      <point x="333" y="633"/>
    </contour>
  </outline>
</glyph>
<glyph name="j" format="2">
  <advance width="600"/>
  <unicode hex="006A"/>
  <outline>
    <contour>
      <point x="192" y="-245" type="qcurve" smooth="yes"/>
      <point x="161" y="-245"/>
      <point x="86" y="-235"/>
      <point x="60" y="-228" type="qcurve"/>
      <point x="60" y="-149" type="line"/>
      <point x="78" y="-155"/>
      <point x="119" y="-164"/>
      <point x="162" y="-170"/>
      <point x="182" y="-170" type="qcurve" smooth="yes"/>
      <point x="227" y="-170"/>
      <point x="282" y="-141"/>
      <point x="307" y="-82"/>
      <point x="307" y="-37" type="qcurve" smooth="yes"/>
      <point x="307" y="461" type="line"/>
      <point x="132" y="474" type="line"/>
      <point x="132" y="536" type="line"/>
      <point x="397" y="536" type="line"/>
      <point x="397" y="-52" type="line" smooth="yes"/>
      <point x="397" y="-145"/>
      <point x="290" y="-245"/>
    </contour>
    <contour>
      <point x="342" y="633" type="qcurve" smooth="yes"/>
      <point x="316" y="633"/>
      <point x="280" y="665"/>
      <point x="280" y="697" type="qcurve" smooth="yes"/>
      <point x="280" y="729"/>
      <point x="315" y="760"/>
      <point x="342" y="760" type="qcurve" smooth="yes"/>
      <point x="368" y="760"/>
      <point x="405" y="729"/>
      <point x="405" y="697" type="qcurve" smooth="yes"/>
      <point x="405" y="664"/>
      <point x="367" y="633"/>
    </contour>
  </outline>
</glyph>
<glyph name="k" format="2">
  <advance width="600"/>
  <unicode hex="006B"/>
  <outline>
    <contour>
      <point x="105" y="0" type="line"/>
      <point x="105" y="760" type="line"/>
      <point x="195" y="760" type="line"/>
      <point x="195" y="394" type="line" smooth="yes"/>
      <point x="195" y="373"/>
      <point x="193" y="321"/>
      <point x="190" y="267"/>
      <point x="188" y="243" type="qcurve"/>
      <point x="190" y="243" type="line"/>
      <point x="209" y="268"/>
      <point x="244" y="309"/>
      <point x="263" y="331" type="qcurve" smooth="yes"/>
      <point x="448" y="536" type="line"/>
      <point x="556" y="536" type="line"/>
      <point x="343" y="305" type="line"/>
      <point x="570" y="0" type="line"/>
      <point x="466" y="0" type="line"/>
      <point x="283" y="252" type="line"/>
      <point x="195" y="167" type="line"/>
      <point x="195" y="0" type="line"/>
    </contour>
  </outline>
</glyph>
<glyph name="l" format="2">
  <advance width="600"/>
  <unicode hex="006C"/>
  <anchor x="322" y="0" name="bottom"/>
  <anchor x="322" y="387" name="center"/>
  <anchor x="300" y="760" name="top"/>
  <anchor x="493" y="760" name="topright"/>
  <outline>
    <contour>
      <point x="540" y="0" type="line"/>
      <point x="540" y="60" type="line"/>
      <point x="366" y="75" type="line"/>
      <point x="366" y="760" type="line"/>
      <point x="86" y="760" type="line"/>
      <point x="86" y="698" type="line"/>
      <point x="276" y="685" type="line"/>
      <point x="276" y="75" type="line"/>
      <point x="80" y="60" type="line"/>
      <point x="80" y="0" type="line"/>
    </contour>
  </outline>
</glyph>
<glyph name="m" format="2">
  <advance width="600"/>
  <unicode hex="006D"/>
  <outline>
    <contour>
      <point x="50" y="0" type="line"/>
      <point x="50" y="536" type="line"/>
      <point x="112" y="536" type="line"/>
      <point x="125" y="477" type="line"/>
      <point x="130" y="477" type="line"/>
      <point x="143" y="504"/>
      <point x="173" y="534"/>
      <point x="208" y="546"/>
      <point x="229" y="546" type="qcurve" smooth="yes"/>
      <point x="270" y="546"/>
      <point x="315" y="507"/>
      <point x="327" y="469" type="qcurve"/>
      <point x="330" y="469" type="line"/>
      <point x="347" y="506"/>
      <point x="398" y="546"/>
      <point x="440" y="546" type="qcurve" smooth="yes"/>
      <point x="481" y="546"/>
      <point x="530" y="504"/>
      <point x="551" y="418"/>
      <point x="551" y="350" type="qcurve" smooth="yes"/>
      <point x="551" y="0" type="line"/>
      <point x="471" y="0" type="line"/>
      <point x="471" y="335" type="line" smooth="yes"/>
      <point x="471" y="377"/>
      <point x="464" y="436"/>
      <point x="442" y="468"/>
      <point x="417" y="468" type="qcurve" smooth="yes"/>
      <point x="393" y="468"/>
      <point x="359" y="423"/>
      <point x="341" y="335"/>
      <point x="341" y="268" type="qcurve" smooth="yes"/>
      <point x="341" y="0" type="line"/>
      <point x="261" y="0" type="line"/>
      <point x="261" y="335" type="line" smooth="yes"/>
      <point x="261" y="378"/>
      <point x="251" y="437"/>
      <point x="226" y="468"/>
      <point x="201" y="468" type="qcurve" smooth="yes"/>
      <point x="175" y="468"/>
      <point x="143" y="419"/>
      <point x="130" y="330"/>
      <point x="130" y="268" type="qcurve" smooth="yes"/>
      <point x="130" y="0" type="line"/>
    </contour>
  </outline>
</glyph>
<glyph name="n" format="2">
  <advance width="600"/>
  <unicode hex="006E"/>
  <outline>
    <contour>
      <point x="80" y="0" type="line"/>
      <point x="80" y="536" type="line"/>
      <point x="152" y="536" type="line"/>
      <point x="165" y="457" type="line"/>
      <point x="170" y="457" type="line"/>
      <point x="186" y="488"/>
      <point x="237" y="527"/>
      <point x="305" y="546"/>
      <point x="345" y="546" type="qcurve" smooth="yes"/>
      <point x="426" y="546"/>
      <point x="525" y="455"/>
      <point x="525" y="358" type="qcurve" smooth="yes"/>
      <point x="525" y="0" type="line"/>
      <point x="435" y="0" type="line"/>
      <point x="435" y="342" type="line" smooth="yes"/>
      <point x="435" y="410"/>
      <point x="380" y="473"/>
      <point x="319" y="473" type="qcurve" smooth="yes"/>
      <point x="237" y="473"/>
      <point x="170" y="369"/>
      <point x="170" y="275" type="qcurve" smooth="yes"/>
      <point x="170" y="0" type="line"/>
    </contour>
  </outline>
</glyph>
<glyph name="o" format="2">
  <advance width="600"/>
  <unicode hex="006F"/>
  <outline>
    <contour>
      <point x="301" y="-10" type="qcurve" smooth="yes"/>
      <point x="249" y="-10"/>
      <point x="159" y="24"/>
      <point x="92" y="94"/>
      <point x="55" y="199"/>
      <point x="55" y="270" type="qcurve" smooth="yes"/>
      <point x="55" y="363"/>
      <point x="118" y="485"/>
      <point x="228" y="546"/>
      <point x="298" y="546" type="qcurve" smooth="yes"/>
      <point x="368" y="546"/>
      <point x="480" y="485"/>
      <point x="545" y="362"/>
      <point x="545" y="267" type="qcurve" smooth="yes"/>
      <point x="545" y="197"/>
      <point x="508" y="93"/>
      <point x="443" y="24"/>
      <point x="354" y="-10"/>
    </contour>
    <contour>
      <point x="300" y="63" type="qcurve" smooth="yes"/>
      <point x="352" y="63"/>
      <point x="420" y="113"/>
      <point x="454" y="206"/>
      <point x="454" y="269" type="qcurve" smooth="yes"/>
      <point x="454" y="333"/>
      <point x="420" y="424"/>
      <point x="351" y="473"/>
      <point x="299" y="473" type="qcurve" smooth="yes"/>
      <point x="221" y="473"/>
      <point x="144" y="364"/>
      <point x="144" y="269" type="qcurve" smooth="yes"/>
      <point x="144" y="206"/>
      <point x="179" y="113"/>
      <point x="248" y="63"/>
    </contour>
  </outline>
</glyph>
<glyph name="p" format="2">
  <advance width="600"/>
  <unicode hex="0070"/>
  <outline>
    <contour>
      <point x="80" y="-240" type="line"/>
      <point x="80" y="536" type="line"/>
      <point x="154" y="536" type="line"/>
      <point x="165" y="463" type="line"/>
      <point x="169" y="463" type="line"/>
      <point x="185" y="489"/>
      <point x="229" y="526"/>
      <point x="289" y="546"/>
      <point x="329" y="546" type="qcurve" smooth="yes"/>
      <point x="378" y="546"/>
      <point x="458" y="511"/>
      <point x="515" y="441"/>
      <point x="545" y="337"/>
      <point x="545" y="269" type="qcurve" smooth="yes"/>
      <point x="545" y="178"/>
      <point x="492" y="53"/>
      <point x="395" y="-10"/>
      <point x="329" y="-10" type="qcurve" smooth="yes"/>
      <point x="290" y="-10"/>
      <point x="229" y="12"/>
      <point x="185" y="48"/>
      <point x="169" y="69" type="qcurve"/>
      <point x="163" y="69" type="line"/>
      <point x="166" y="50"/>
      <point x="169" y="9"/>
      <point x="169" y="-11" type="qcurve" smooth="yes"/>
      <point x="169" y="-240" type="line"/>
    </contour>
    <contour>
      <point x="310" y="63" type="qcurve" smooth="yes"/>
      <point x="385" y="63"/>
      <point x="453" y="166"/>
      <point x="453" y="271" type="qcurve" smooth="yes"/>
      <point x="453" y="374"/>
      <point x="386" y="473"/>
      <point x="309" y="473" type="qcurve" smooth="yes"/>
      <point x="236" y="473"/>
      <point x="169" y="378"/>
      <point x="169" y="289" type="qcurve" smooth="yes"/>
      <point x="169" y="269" type="line" smooth="yes"/>
      <point x="169" y="174"/>
      <point x="230" y="63"/>
    </contour>
  </outline>
</glyph>
<glyph name="q" format="2">
  <advance width="600"/>
  <unicode hex="0071"/>
  <outline>
    <contour>
      <point x="431" y="-11" type="line" smooth="yes"/>
      <point x="431" y="2"/>
      <point x="432" y="30"/>
      <point x="434" y="58"/>
      <point x="434" y="72" type="qcurve"/>
      <point x="431" y="72" type="line"/>
      <point x="409" y="38"/>
      <point x="334" y="-10"/>
      <point x="274" y="-10" type="qcurve" smooth="yes"/>
      <point x="226" y="-10"/>
      <point x="145" y="25"/>
      <point x="87" y="95"/>
      <point x="55" y="199"/>
      <point x="55" y="267" type="qcurve" smooth="yes"/>
      <point x="55" y="336"/>
      <point x="87" y="440"/>
      <point x="147" y="510"/>
      <point x="227" y="546"/>
      <point x="275" y="546" type="qcurve" smooth="yes"/>
      <point x="334" y="546"/>
      <point x="409" y="498"/>
      <point x="431" y="464" type="qcurve"/>
      <point x="435" y="464" type="line"/>
      <point x="448" y="536" type="line"/>
      <point x="520" y="536" type="line"/>
      <point x="520" y="-240" type="line"/>
      <point x="431" y="-240" type="line"/>
    </contour>
    <contour>
      <point x="290" y="63" type="qcurve" smooth="yes"/>
      <point x="360" y="63"/>
      <point x="431" y="155"/>
      <point x="431" y="247" type="qcurve" smooth="yes"/>
      <point x="431" y="267" type="line" smooth="yes"/>
      <point x="431" y="364"/>
      <point x="368" y="473"/>
      <point x="288" y="473" type="qcurve" smooth="yes"/>
      <point x="215" y="473"/>
      <point x="147" y="367"/>
      <point x="147" y="266" type="qcurve" smooth="yes"/>
      <point x="147" y="174"/>
      <point x="216" y="63"/>
    </contour>
  </outline>
</glyph>
<glyph name="r" format="2">
  <advance width="600"/>
  <unicode hex="0072"/>
  <anchor x="271" y="0" name="bottom"/>
  <anchor x="340" y="536" name="top"/>
  <anchor x="580" y="536" name="topright"/>
  <outline>
    <contour>
      <point x="472" y="0" type="line"/>
      <point x="472" y="60" type="line"/>
      <point x="316" y="75" type="line"/>
      <point x="316" y="269" type="line" smooth="yes"/>
      <point x="316" y="377"/>
      <point x="377" y="467"/>
      <point x="463" y="467" type="curve" smooth="yes"/>
      <point x="496" y="467"/>
      <point x="526" y="457"/>
      <point x="548" y="445" type="curve"/>
      <point x="572" y="524" type="line"/>
      <point x="543" y="537"/>
      <point x="508" y="546"/>
      <point x="463" y="546" type="curve" smooth="yes"/>
      <point x="389" y="546"/>
      <point x="350" y="508"/>
      <point x="313" y="438" type="curve"/>
      <point x="309" y="438" type="line"/>
      <point x="297" y="536" type="line"/>
      <point x="78" y="536" type="line"/>
      <point x="78" y="474" type="line"/>
      <point x="225" y="461" type="line"/>
      <point x="225" y="75" type="line"/>
      <point x="62" y="60" type="line"/>
      <point x="62" y="0" type="line"/>
    </contour>
  </outline>
</glyph>
<glyph name="s" format="2">
  <advance width="600"/>
  <unicode hex="0073"/>
  <outline>
    <contour>
      <point x="279" y="-10" type="qcurve" smooth="yes"/>
      <point x="229" y="-10"/>
      <point x="138" y="8"/>
      <point x="105" y="24" type="qcurve"/>
      <point x="105" y="107" type="line"/>
      <point x="140" y="91"/>
      <point x="225" y="64"/>
      <point x="284" y="64" type="qcurve" smooth="yes"/>
      <point x="350" y="64"/>
      <point x="405" y="105"/>
      <point x="405" y="144" type="qcurve" smooth="yes"/>
      <point x="405" y="165"/>
      <point x="386" y="192"/>
      <point x="332" y="220"/>
      <point x="280" y="242" type="qcurve" smooth="yes"/>
      <point x="228" y="265"/>
      <point x="154" y="305"/>
      <point x="114" y="360"/>
      <point x="114" y="403" type="qcurve" smooth="yes"/>
      <point x="114" y="451"/>
      <point x="163" y="514"/>
      <point x="256" y="546"/>
      <point x="320" y="546" type="qcurve" smooth="yes"/>
      <point x="364" y="546"/>
      <point x="444" y="530"/>
      <point x="487" y="512" type="qcurve"/>
      <point x="460" y="442" type="line"/>
      <point x="420" y="459"/>
      <point x="353" y="471"/>
      <point x="320" y="471" type="qcurve" smooth="yes"/>
      <point x="258" y="471"/>
      <point x="201" y="439"/>
      <point x="201" y="405" type="qcurve" smooth="yes"/>
      <point x="201" y="383"/>
      <point x="226" y="353"/>
      <point x="283" y="325"/>
      <point x="330" y="305" type="qcurve" smooth="yes"/>
      <point x="383" y="283"/>
      <point x="457" y="245"/>
      <point x="495" y="192"/>
      <point x="495" y="146" type="qcurve" smooth="yes"/>
      <point x="495" y="95"/>
      <point x="446" y="26"/>
      <point x="350" y="-10"/>
    </contour>
  </outline>
</glyph>
<glyph name="t" format="2">
  <advance width="600"/>
  <unicode hex="0074"/>
  <outline>
    <contour>
      <point x="402" y="-10" type="qcurve" smooth="yes"/>
      <point x="345" y="-10"/>
      <point x="255" y="20"/>
      <point x="202" y="96"/>
      <point x="202" y="163" type="qcurve" smooth="yes"/>
      <point x="202" y="461" type="line"/>
      <point x="56" y="461" type="line"/>
      <point x="56" y="523" type="line"/>
      <point x="202" y="539" type="line"/>
      <point x="220" y="679" type="line"/>
      <point x="292" y="679" type="line"/>
      <point x="292" y="536" type="line"/>
      <point x="501" y="536" type="line"/>
      <point x="501" y="461" type="line"/>
      <point x="292" y="461" type="line"/>
      <point x="292" y="180" type="line" smooth="yes"/>
      <point x="292" y="140"/>
      <point x="315" y="88"/>
      <point x="367" y="63"/>
      <point x="408" y="63" type="qcurve" smooth="yes"/>
      <point x="434" y="63"/>
      <point x="494" y="73"/>
      <point x="516" y="78" type="qcurve"/>
      <point x="516" y="6" type="line"/>
      <point x="492" y="0"/>
      <point x="434" y="-10"/>
    </contour>
  </outline>
</glyph>
<glyph name="u" format="2">
  <advance width="600"/>
  <unicode hex="0075"/>
  <outline>
    <contour>
      <point x="261" y="-10" type="qcurve" smooth="yes"/>
      <point x="166" y="-10"/>
      <point x="75" y="85"/>
      <point x="75" y="179" type="qcurve" smooth="yes"/>
      <point x="75" y="536" type="line"/>
      <point x="165" y="536" type="line"/>
      <point x="165" y="193" type="line" smooth="yes"/>
      <point x="165" y="129"/>
      <point x="218" y="63"/>
      <point x="283" y="63" type="qcurve" smooth="yes"/>
      <point x="339" y="63"/>
      <point x="403" y="110"/>
      <point x="430" y="198"/>
      <point x="430" y="260" type="qcurve" smooth="yes"/>
      <point x="430" y="536" type="line"/>
      <point x="520" y="536" type="line"/>
      <point x="520" y="0" type="line"/>
      <point x="448" y="0" type="line"/>
      <point x="435" y="72" type="line"/>
      <point x="430" y="72" type="line"/>
      <point x="411" y="42"/>
      <point x="361" y="6"/>
      <point x="299" y="-10"/>
    </contour>
  </outline>
</glyph>
<glyph name="v" format="2">
  <advance width="600"/>
  <unicode hex="0076"/>
  <outline>
    <contour>
      <point x="243" y="0" type="line"/>
      <point x="45" y="536" type="line"/>
      <point x="137" y="536" type="line"/>
      <point x="249" y="218" type="line" smooth="yes"/>
      <point x="260" y="186"/>
      <point x="285" y="116"/>
      <point x="298" y="76" type="qcurve"/>
      <point x="301" y="76" type="line"/>
      <point x="314" y="116"/>
      <point x="341" y="187"/>
      <point x="351" y="218" type="qcurve" smooth="yes"/>
      <point x="460" y="536" type="line"/>
      <point x="554" y="536" type="line"/>
      <point x="354" y="0" type="line"/>
    </contour>
  </outline>
</glyph>
<glyph name="w" format="2">
  <advance width="600"/>
  <unicode hex="0077"/>
  <outline>
    <contour>
      <point x="102" y="0" type="line"/>
      <point x="16" y="536" type="line"/>
      <point x="100" y="536" type="line"/>
      <point x="139" y="271" type="line" smooth="yes"/>
      <point x="145" y="234"/>
      <point x="150" y="176"/>
      <point x="155" y="116"/>
      <point x="157" y="75" type="qcurve"/>
      <point x="160" y="75" type="line"/>
      <point x="163" y="92"/>
      <point x="174" y="153"/>
      <point x="189" y="224"/>
      <point x="198" y="254" type="qcurve" smooth="yes"/>
      <point x="250" y="435" type="line"/>
      <point x="349" y="435" type="line"/>
      <point x="399" y="254" type="line" smooth="yes"/>
      <point x="408" y="224"/>
      <point x="424" y="155"/>
      <point x="437" y="94"/>
      <point x="439" y="75" type="qcurve"/>
      <point x="442" y="75" type="line"/>
      <point x="445" y="115"/>
      <point x="449" y="174"/>
      <point x="455" y="232"/>
      <point x="461" y="271" type="qcurve" smooth="yes"/>
      <point x="503" y="536" type="line"/>
      <point x="585" y="536" type="line"/>
      <point x="497" y="0" type="line"/>
      <point x="389" y="0" type="line"/>
      <point x="341" y="188" type="line" smooth="yes"/>
      <point x="331" y="229"/>
      <point x="309" y="311"/>
      <point x="301" y="351" type="qcurve"/>
      <point x="298" y="351" type="line"/>
      <point x="290" y="311"/>
      <point x="267" y="229"/>
      <point x="256" y="188" type="qcurve" smooth="yes"/>
      <point x="207" y="0" type="line"/>
    </contour>
  </outline>
</glyph>
<glyph name="x" format="2">
  <advance width="600"/>
  <unicode hex="0078"/>
  <outline>
    <contour>
      <point x="45" y="0" type="line"/>
      <point x="248" y="274" type="line"/>
      <point x="55" y="536" type="line"/>
      <point x="156" y="536" type="line"/>
      <point x="300" y="335" type="line"/>
      <point x="444" y="536" type="line"/>
      <point x="545" y="536" type="line"/>
      <point x="351" y="274" type="line"/>
      <point x="554" y="0" type="line"/>
      <point x="453" y="0" type="line"/>
      <point x="300" y="213" type="line"/>
      <point x="146" y="0" type="line"/>
    </contour>
  </outline>
</glyph>
<glyph name="y" format="2">
  <advance width="600"/>
  <unicode hex="0079"/>
  <outline>
    <contour>
      <point x="136" y="-245" type="qcurve" smooth="yes"/>
      <point x="116" y="-245"/>
      <point x="78" y="-240"/>
      <point x="64" y="-237" type="qcurve"/>
      <point x="64" y="-168" type="line"/>
      <point x="76" y="-170"/>
      <point x="109" y="-174"/>
      <point x="125" y="-174" type="qcurve" smooth="yes"/>
      <point x="156" y="-174"/>
      <point x="197" y="-154"/>
      <point x="228" y="-112"/>
      <point x="241" y="-78" type="qcurve" smooth="yes"/>
      <point x="270" y="-5" type="line"/>
      <point x="45" y="536" type="line"/>
      <point x="133" y="536" type="line"/>
      <point x="261" y="221" type="line" smooth="yes"/>
      <point x="274" y="190"/>
      <point x="299" y="114"/>
      <point x="309" y="79" type="qcurve"/>
      <point x="312" y="79" type="line"/>
      <point x="319" y="104"/>
      <point x="335" y="153"/>
      <point x="350" y="201"/>
      <point x="357" y="222" type="qcurve" smooth="yes"/>
      <point x="462" y="536" type="line"/>
      <point x="554" y="536" type="line"/>
      <point x="329" y="-70" type="line" smooth="yes"/>
      <point x="310" y="-122"/>
      <point x="265" y="-201"/>
      <point x="194" y="-245"/>
    </contour>
  </outline>
</glyph>
<glyph name="z" format="2">
  <advance width="600"/>
  <unicode hex="007A"/>
  <outline>
    <contour>
      <point x="90" y="0" type="line"/>
      <point x="90" y="61" type="line"/>
      <point x="405" y="467" type="line"/>
      <point x="106" y="467" type="line"/>
      <point x="106" y="536" type="line"/>
      <point x="502" y="536" type="line"/>
      <point x="502" y="465" type="line"/>
      <point x="197" y="76" type="line"/>
      <point x="510" y="76" type="line"/>
      <point x="510" y="0" type="line"/>
    </contour>
  </outline>
</glyph>
<glyph name="braceleft" format="2">
  <advance width="600"/>
  <unicode hex="007B"/>
  <outline>
    <contour>
      <point x="460" y="-158" type="line"/>
      <point x="399" y="-157"/>
      <point x="310" y="-123"/>
      <point x="262" y="-52"/>
      <point x="262" y="1" type="qcurve" smooth="yes"/>
      <point x="262" y="148" type="line" smooth="yes"/>
      <point x="262" y="199"/>
      <point x="199" y="242"/>
      <point x="140" y="242" type="qcurve"/>
      <point x="140" y="315" type="line"/>
      <point x="199" y="316"/>
      <point x="262" y="358"/>
      <point x="262" y="408" type="qcurve" smooth="yes"/>
      <point x="262" y="556" type="line" smooth="yes"/>
      <point x="262" y="609"/>
      <point x="312" y="679"/>
      <point x="402" y="714"/>
      <point x="460" y="714" type="qcurve"/>
      <point x="460" y="642" type="line"/>
      <point x="426" y="641"/>
      <point x="376" y="621"/>
      <point x="349" y="581"/>
      <point x="349" y="548" type="qcurve" smooth="yes"/>
      <point x="349" y="404" type="line" smooth="yes"/>
      <point x="349" y="353"/>
      <point x="295" y="292"/>
      <point x="240" y="282" type="qcurve"/>
      <point x="240" y="276" type="line"/>
      <point x="296" y="266"/>
      <point x="349" y="205"/>
      <point x="349" y="154" type="qcurve" smooth="yes"/>
      <point x="349" y="7" type="line" smooth="yes"/>
      <point x="349" y="-42"/>
      <point x="407" y="-85"/>
      <point x="460" y="-86" type="qcurve"/>
    </contour>
  </outline>
</glyph>
<glyph name="bar" format="2">
  <advance width="600"/>
  <unicode hex="007C"/>
  <outline>
    <contour>
      <point x="264" y="-240" type="line"/>
      <point x="264" y="760" type="line"/>
      <point x="337" y="760" type="line"/>
      <point x="337" y="-240" type="line"/>
    </contour>
  </outline>
</glyph>
<glyph name="braceright" format="2">
  <advance width="600"/>
  <unicode hex="007D"/>
  <outline>
    <contour>
      <point x="140" y="714" type="line"/>
      <point x="202" y="714"/>
      <point x="290" y="679"/>
      <point x="338" y="609"/>
      <point x="338" y="555" type="qcurve" smooth="yes"/>
      <point x="338" y="408" type="line" smooth="yes"/>
      <point x="338" y="357"/>
      <point x="401" y="314"/>
      <point x="460" y="314" type="qcurve"/>
      <point x="460" y="241" type="line"/>
      <point x="401" y="240"/>
      <point x="338" y="198"/>
      <point x="338" y="148" type="qcurve" smooth="yes"/>
      <point x="338" y="0" type="line" smooth="yes"/>
      <point x="338" y="-53"/>
      <point x="288" y="-123"/>
      <point x="199" y="-158"/>
      <point x="140" y="-158" type="qcurve"/>
      <point x="140" y="-86" type="line"/>
      <point x="175" y="-85"/>
      <point x="224" y="-65"/>
      <point x="251" y="-24"/>
      <point x="251" y="8" type="qcurve" smooth="yes"/>
      <point x="251" y="152" type="line" smooth="yes"/>
      <point x="251" y="203"/>
      <point x="305" y="264"/>
      <point x="360" y="274" type="qcurve"/>
      <point x="360" y="280" type="line"/>
      <point x="305" y="290"/>
      <point x="251" y="351"/>
      <point x="251" y="402" type="qcurve" smooth="yes"/>
      <point x="251" y="549" type="line" smooth="yes"/>
      <point x="251" y="598"/>
      <point x="193" y="641"/>
      <point x="140" y="642" type="qcurve"/>
    </contour>
  </outline>
</glyph>
<glyph name="asciitilde" format="2">
  <advance width="600"/>
  <unicode hex="007E"/>
  <outline>
    <contour>
      <point x="74" y="287" type="line"/>
      <point x="77" y="316"/>
      <point x="89" y="377"/>
      <point x="115" y="430"/>
      <point x="160" y="462"/>
      <point x="196" y="462" type="qcurve" smooth="yes"/>
      <point x="219" y="462"/>
      <point x="258" y="447"/>
      <point x="298" y="418"/>
      <point x="321" y="396" type="qcurve" smooth="yes"/>
      <point x="342" y="377"/>
      <point x="382" y="346"/>
      <point x="403" y="346" type="qcurve" smooth="yes"/>
      <point x="431" y="346"/>
      <point x="457" y="407"/>
      <point x="464" y="462" type="qcurve"/>
      <point x="524" y="462" type="line"/>
      <point x="521" y="436"/>
      <point x="508" y="376"/>
      <point x="482" y="322"/>
      <point x="437" y="287"/>
      <point x="402" y="287" type="qcurve" smooth="yes"/>
      <point x="379" y="287"/>
      <point x="338" y="303"/>
      <point x="301" y="332"/>
      <point x="282" y="350" type="qcurve" smooth="yes"/>
      <point x="259" y="373"/>
      <point x="219" y="403"/>
      <point x="196" y="403" type="qcurve" smooth="yes"/>
      <point x="167" y="403"/>
      <point x="138" y="346"/>
      <point x="133" y="287" type="qcurve"/>
    </contour>
  </outline>
</glyph>
<glyph name="exclamdown" format="2">
  <advance width="600"/>
  <unicode hex="00A1"/>
  <outline>
    <contour>
      <point x="338" y="327" type="line"/>
      <point x="354" y="-185" type="line"/>
      <point x="245" y="-185" type="line"/>
      <point x="261" y="327" type="line"/>
    </contour>
    <contour>
      <point x="300" y="539" type="qcurve" smooth="yes"/>
      <point x="326" y="539"/>
      <point x="362" y="507"/>
      <point x="362" y="471" type="qcurve" smooth="yes"/>
      <point x="362" y="434"/>
      <point x="326" y="403"/>
      <point x="300" y="403" type="qcurve" smooth="yes"/>
      <point x="275" y="403"/>
      <point x="238" y="434"/>
      <point x="238" y="471" type="qcurve" smooth="yes"/>
      <point x="238" y="507"/>
      <point x="275" y="539"/>
    </contour>
  </outline>
</glyph>
<glyph name="cent" format="2">
  <advance width="600"/>
  <unicode hex="00A2"/>
  <outline>
    <contour>
      <point x="295" y="90" type="line"/>
      <point x="233" y="99"/>
      <point x="141" y="159"/>
      <point x="90" y="273"/>
      <point x="90" y="362" type="qcurve" smooth="yes"/>
      <point x="90" y="449"/>
      <point x="141" y="566"/>
      <point x="234" y="631"/>
      <point x="295" y="640" type="qcurve"/>
      <point x="295" y="724" type="line"/>
      <point x="363" y="724" type="line"/>
      <point x="363" y="644" type="line"/>
      <point x="404" y="643"/>
      <point x="485" y="626"/>
      <point x="510" y="615" type="qcurve"/>
      <point x="484" y="542" type="line"/>
      <point x="458" y="552"/>
      <point x="388" y="568"/>
      <point x="350" y="568" type="qcurve" smooth="yes"/>
      <point x="292" y="568"/>
      <point x="217" y="523"/>
      <point x="180" y="432"/>
      <point x="180" y="363" type="qcurve" smooth="yes"/>
      <point x="180" y="294"/>
      <point x="218" y="206"/>
      <point x="292" y="164"/>
      <point x="346" y="164" type="qcurve" smooth="yes"/>
      <point x="393" y="164"/>
      <point x="470" y="181"/>
      <point x="501" y="194" type="qcurve"/>
      <point x="501" y="117" type="line"/>
      <point x="474" y="104"/>
      <point x="405" y="89"/>
      <point x="362" y="87" type="qcurve"/>
      <point x="362" y="-10" type="line"/>
      <point x="295" y="-10" type="line"/>
    </contour>
  </outline>
</glyph>
<glyph name="sterling" format="2">
  <advance width="600"/>
  <unicode hex="00A3"/>
  <outline>
    <contour>
      <point x="90" y="74" type="line"/>
      <point x="117" y="81"/>
      <point x="159" y="114"/>
      <point x="183" y="171"/>
      <point x="183" y="215" type="qcurve" smooth="yes"/>
      <point x="183" y="320" type="line"/>
      <point x="93" y="320" type="line"/>
      <point x="93" y="386" type="line"/>
      <point x="183" y="386" type="line"/>
      <point x="183" y="534" type="line" smooth="yes"/>
      <point x="183" y="623"/>
      <point x="284" y="723"/>
      <point x="367" y="723" type="qcurve" smooth="yes"/>
      <point x="413" y="723"/>
      <point x="483" y="702"/>
      <point x="516" y="682" type="qcurve"/>
      <point x="485" y="614" type="line"/>
      <point x="457" y="632"/>
      <point x="403" y="648"/>
      <point x="375" y="648" type="qcurve" smooth="yes"/>
      <point x="323" y="648"/>
      <point x="271" y="591"/>
      <point x="271" y="525" type="qcurve" smooth="yes"/>
      <point x="271" y="386" type="line"/>
      <point x="448" y="386" type="line"/>
      <point x="448" y="320" type="line"/>
      <point x="271" y="320" type="line"/>
      <point x="271" y="216" type="line" smooth="yes"/>
      <point x="271" y="189"/>
      <point x="253" y="134"/>
      <point x="225" y="91"/>
      <point x="209" y="80" type="qcurve"/>
      <point x="525" y="80" type="line"/>
      <point x="525" y="0" type="line"/>
      <point x="90" y="0" type="line"/>
    </contour>
  </outline>
</glyph>
<glyph name="currency" format="2">
  <advance width="600"/>
  <unicode hex="00A4"/>
  <outline>
    <contour>
      <point x="413" y="196" type="line"/>
      <point x="389" y="180"/>
      <point x="333" y="161"/>
      <point x="301" y="161" type="qcurve" smooth="yes"/>
      <point x="269" y="161"/>
      <point x="210" y="181"/>
      <point x="187" y="197" type="qcurve"/>
      <point x="120" y="132" type="line"/>
      <point x="71" y="180" type="line"/>
      <point x="137" y="247" type="line"/>
      <point x="121" y="271"/>
      <point x="101" y="329"/>
      <point x="101" y="360" type="qcurve" smooth="yes"/>
      <point x="101" y="391"/>
      <point x="121" y="449"/>
      <point x="137" y="472" type="qcurve"/>
      <point x="70" y="541" type="line"/>
      <point x="120" y="589" type="line"/>
      <point x="187" y="524" type="line"/>
      <point x="210" y="541"/>
      <point x="269" y="560"/>
      <point x="301" y="560" type="qcurve" smooth="yes"/>
      <point x="333" y="560"/>
      <point x="388" y="541"/>
      <point x="413" y="524" type="qcurve"/>
      <point x="481" y="589" type="line"/>
      <point x="530" y="541" type="line"/>
      <point x="465" y="473" type="line"/>
      <point x="480" y="450"/>
      <point x="501" y="391"/>
      <point x="501" y="359" type="qcurve" smooth="yes"/>
      <point x="501" y="328"/>
      <point x="482" y="270"/>
      <point x="465" y="246" type="qcurve"/>
      <point x="529" y="179" type="line"/>
      <point x="481" y="131" type="line"/>
    </contour>
    <contour>
      <point x="301" y="229" type="qcurve" smooth="yes"/>
      <point x="338" y="229"/>
      <point x="398" y="260"/>
      <point x="433" y="319"/>
      <point x="433" y="360" type="qcurve" smooth="yes"/>
      <point x="433" y="402"/>
      <point x="398" y="462"/>
      <point x="338" y="494"/>
      <point x="301" y="494" type="qcurve" smooth="yes"/>
      <point x="265" y="494"/>
      <point x="205" y="462"/>
      <point x="169" y="402"/>
      <point x="169" y="360" type="qcurve" smooth="yes"/>
      <point x="169" y="319"/>
      <point x="205" y="260"/>
      <point x="265" y="229"/>
    </contour>
  </outline>
</glyph>
<glyph name="yen" format="2">
  <advance width="600"/>
  <unicode hex="00A5"/>
  <outline>
    <contour>
      <point x="256" y="0" type="line"/>
      <point x="256" y="129" type="line"/>
      <point x="112" y="129" type="line"/>
      <point x="112" y="193" type="line"/>
      <point x="256" y="193" type="line"/>
      <point x="256" y="275" type="line"/>
      <point x="112" y="275" type="line"/>
      <point x="112" y="339" type="line"/>
      <point x="227" y="339" type="line"/>
      <point x="35" y="714" type="line"/>
      <point x="128" y="714" type="line"/>
      <point x="299" y="365" type="line"/>
      <point x="473" y="714" type="line"/>
      <point x="565" y="714" type="line"/>
      <point x="369" y="339" type="line"/>
      <point x="488" y="339" type="line"/>
      <point x="488" y="275" type="line"/>
      <point x="342" y="275" type="line"/>
      <point x="342" y="193" type="line"/>
      <point x="488" y="193" type="line"/>
      <point x="488" y="129" type="line"/>
      <point x="342" y="129" type="line"/>
      <point x="342" y="0" type="line"/>
    </contour>
  </outline>
</glyph>
<glyph name="brokenbar" format="2">
  <advance width="600"/>
  <unicode hex="00A6"/>
  <outline>
    <contour>
      <point x="263" y="379" type="line"/>
      <point x="263" y="760" type="line"/>
      <point x="336" y="760" type="line"/>
      <point x="336" y="379" type="line"/>
    </contour>
    <contour>
      <point x="263" y="-241" type="line"/>
      <point x="263" y="140" type="line"/>
      <point x="336" y="140" type="line"/>
      <point x="336" y="-241" type="line"/>
    </contour>
  </outline>
</glyph>
<glyph name="section" format="2">
  <advance width="600"/>
  <unicode hex="00A7"/>
  <outline>
    <contour>
      <point x="276" y="-10" type="qcurve" smooth="yes"/>
      <point x="221" y="-10"/>
      <point x="139" y="7"/>
      <point x="109" y="23" type="qcurve"/>
      <point x="109" y="97" type="line"/>
      <point x="130" y="87"/>
      <point x="185" y="67"/>
      <point x="248" y="54"/>
      <point x="279" y="54" type="qcurve" smooth="yes"/>
      <point x="350" y="54"/>
      <point x="407" y="99"/>
      <point x="407" y="127" type="qcurve" smooth="yes"/>
      <point x="407" y="147"/>
      <point x="389" y="179"/>
      <point x="334" y="212"/>
      <point x="280" y="233" type="qcurve" smooth="yes"/>
      <point x="229" y="253"/>
      <point x="156" y="294"/>
      <point x="117" y="352"/>
      <point x="117" y="395" type="qcurve" smooth="yes"/>
      <point x="117" y="444"/>
      <point x="167" y="505"/>
      <point x="198" y="520" type="qcurve"/>
      <point x="161" y="539"/>
      <point x="120" y="598"/>
      <point x="120" y="638" type="qcurve" smooth="yes"/>
      <point x="120" y="697"/>
      <point x="219" y="765"/>
      <point x="313" y="765" type="qcurve" smooth="yes"/>
      <point x="369" y="765"/>
      <point x="446" y="746"/>
      <point x="481" y="732" type="qcurve"/>
      <point x="455" y="669" type="line"/>
      <point x="423" y="684"/>
      <point x="358" y="700"/>
      <point x="310" y="700" type="qcurve" smooth="yes"/>
      <point x="251" y="700"/>
      <point x="202" y="667"/>
      <point x="202" y="640" type="qcurve" smooth="yes"/>
      <point x="202" y="622"/>
      <point x="224" y="591"/>
      <point x="279" y="560"/>
      <point x="329" y="541" type="qcurve" smooth="yes"/>
      <point x="380" y="522"/>
      <point x="452" y="479"/>
      <point x="490" y="423"/>
      <point x="490" y="383" type="qcurve" smooth="yes"/>
      <point x="490" y="333"/>
      <point x="443" y="268"/>
      <point x="413" y="251" type="qcurve"/>
      <point x="449" y="232"/>
      <point x="489" y="174"/>
      <point x="489" y="133" type="qcurve" smooth="yes"/>
      <point x="489" y="65"/>
      <point x="377" y="-10"/>
    </contour>
    <contour>
      <point x="351" y="280" type="line"/>
      <point x="375" y="294"/>
      <point x="417" y="337"/>
      <point x="417" y="370" type="qcurve" smooth="yes"/>
      <point x="417" y="395"/>
      <point x="390" y="435"/>
      <point x="323" y="471"/>
      <point x="262" y="490" type="qcurve"/>
      <point x="234" y="483"/>
      <point x="188" y="437"/>
      <point x="188" y="405" type="qcurve" smooth="yes"/>
      <point x="188" y="381"/>
      <point x="215" y="343"/>
      <point x="277" y="308"/>
      <point x="330" y="288" type="qcurve" smooth="yes"/>
    </contour>
  </outline>
</glyph>
<glyph name="dieresis" format="2">
  <advance width="600"/>
  <unicode hex="00A8"/>
  <outline>
    <contour>
      <point x="415" y="622" type="qcurve" smooth="yes"/>
      <point x="393" y="622"/>
      <point x="361" y="651"/>
      <point x="361" y="681" type="qcurve" smooth="yes"/>
      <point x="361" y="712"/>
      <point x="393" y="738"/>
      <point x="415" y="738" type="qcurve" smooth="yes"/>
      <point x="437" y="738"/>
      <point x="470" y="712"/>
      <point x="470" y="681" type="qcurve" smooth="yes"/>
      <point x="470" y="651"/>
      <point x="437" y="622"/>
    </contour>
    <contour>
      <point x="186" y="622" type="qcurve" smooth="yes"/>
      <point x="164" y="622"/>
      <point x="132" y="651"/>
      <point x="132" y="681" type="qcurve" smooth="yes"/>
      <point x="132" y="712"/>
      <point x="164" y="738"/>
      <point x="186" y="738" type="qcurve" smooth="yes"/>
      <point x="208" y="738"/>
      <point x="241" y="712"/>
      <point x="241" y="681" type="qcurve" smooth="yes"/>
      <point x="241" y="651"/>
      <point x="208" y="622"/>
    </contour>
  </outline>
</glyph>
<glyph name="copyright" format="2">
  <advance width="600"/>
  <unicode hex="00A9"/>
  <outline>
    <contour>
      <point x="300" y="104" type="qcurve" smooth="yes"/>
      <point x="220" y="104"/>
      <point x="105" y="169"/>
      <point x="44" y="284"/>
      <point x="44" y="359" type="qcurve" smooth="yes"/>
      <point x="44" y="436"/>
      <point x="108" y="551"/>
      <point x="224" y="616"/>
      <point x="302" y="616" type="qcurve" smooth="yes"/>
      <point x="381" y="616"/>
      <point x="494" y="551"/>
      <point x="556" y="436"/>
      <point x="556" y="361" type="qcurve" smooth="yes"/>
      <point x="556" y="284"/>
      <point x="492" y="168"/>
      <point x="377" y="104"/>
    </contour>
    <contour>
      <point x="312" y="200" type="qcurve" smooth="yes"/>
      <point x="239" y="200"/>
      <point x="169" y="287"/>
      <point x="169" y="356" type="qcurve" smooth="yes"/>
      <point x="169" y="428"/>
      <point x="243" y="519"/>
      <point x="311" y="519" type="qcurve" smooth="yes"/>
      <point x="334" y="519"/>
      <point x="380" y="508"/>
      <point x="399" y="498" type="qcurve"/>
      <point x="378" y="451" type="line"/>
      <point x="361" y="460"/>
      <point x="328" y="468"/>
      <point x="313" y="468" type="qcurve" smooth="yes"/>
      <point x="272" y="468"/>
      <point x="227" y="412"/>
      <point x="227" y="356" type="qcurve" smooth="yes"/>
      <point x="227" y="305"/>
      <point x="268" y="249"/>
      <point x="311" y="249" type="qcurve" smooth="yes"/>
      <point x="328" y="249"/>
      <point x="368" y="257"/>
      <point x="386" y="264" type="qcurve"/>
      <point x="386" y="215" type="line"/>
      <point x="370" y="208"/>
      <point x="334" y="200"/>
    </contour>
    <contour>
      <point x="300" y="151" type="qcurve" smooth="yes"/>
      <point x="361" y="151"/>
      <point x="452" y="201"/>
      <point x="504" y="294"/>
      <point x="504" y="358" type="qcurve" smooth="yes"/>
      <point x="504" y="422"/>
      <point x="453" y="516"/>
      <point x="361" y="567"/>
      <point x="299" y="567" type="qcurve" smooth="yes"/>
      <point x="239" y="567"/>
      <point x="147" y="517"/>
      <point x="96" y="425"/>
      <point x="96" y="361" type="qcurve" smooth="yes"/>
      <point x="96" y="298"/>
      <point x="147" y="203"/>
      <point x="239" y="151"/>
    </contour>
  </outline>
</glyph>
<glyph name="ordfeminine" format="2">
  <advance width="600"/>
  <unicode hex="00AA"/>
  <outline>
    <contour>
      <point x="255" y="383" type="qcurve" smooth="yes"/>
      <point x="208" y="383"/>
      <point x="152" y="432"/>
      <point x="152" y="479" type="qcurve" smooth="yes"/>
      <point x="152" y="514"/>
      <point x="186" y="561"/>
      <point x="256" y="585"/>
      <point x="310" y="587" type="qcurve" smooth="yes"/>
      <point x="366" y="589" type="line"/>
      <point x="366" y="611" type="line" smooth="yes"/>
      <point x="366" y="644"/>
      <point x="325" y="670"/>
      <point x="294" y="670" type="qcurve" smooth="yes"/>
      <point x="268" y="670"/>
      <point x="217" y="655"/>
      <point x="194" y="644" type="qcurve"/>
      <point x="172" y="693" type="line"/>
      <point x="198" y="706"/>
      <point x="262" y="722"/>
      <point x="299" y="722" type="qcurve" smooth="yes"/>
      <point x="362" y="722"/>
      <point x="428" y="668"/>
      <point x="428" y="609" type="qcurve" smooth="yes"/>
      <point x="428" y="389" type="line"/>
      <point x="381" y="389" type="line"/>
      <point x="369" y="431" type="line"/>
      <point x="349" y="410"/>
      <point x="293" y="383"/>
    </contour>
    <contour>
      <point x="275" y="434" type="qcurve" smooth="yes"/>
      <point x="321" y="434"/>
      <point x="366" y="481"/>
      <point x="366" y="521" type="qcurve" smooth="yes"/>
      <point x="366" y="544" type="line"/>
      <point x="318" y="542" type="line" smooth="yes"/>
      <point x="258" y="540"/>
      <point x="216" y="509"/>
      <point x="216" y="482" type="qcurve" smooth="yes"/>
      <point x="216" y="455"/>
      <point x="247" y="434"/>
    </contour>
  </outline>
</glyph>
<glyph name="guillemotleft" format="2">
  <advance width="600"/>
  <unicode hex="00AB"/>
  <outline>
    <contour>
      <point x="453" y="52" type="line"/>
      <point x="283" y="257" type="line"/>
      <point x="283" y="270" type="line"/>
      <point x="453" y="476" type="line"/>
      <point x="511" y="434" type="line"/>
      <point x="375" y="264" type="line"/>
      <point x="511" y="93" type="line"/>
    </contour>
    <contour>
      <point x="257" y="53" type="line"/>
      <point x="89" y="257" type="line"/>
      <point x="89" y="270" type="line"/>
      <point x="257" y="476" type="line"/>
      <point x="316" y="432" type="line"/>
      <point x="180" y="264" type="line"/>
      <point x="315" y="93" type="line"/>
    </contour>
  </outline>
</glyph>
<glyph name="logicalnot" format="2">
  <advance width="600"/>
  <unicode hex="00AC"/>
  <outline>
    <contour>
      <point x="444" y="128" type="line"/>
      <point x="444" y="317" type="line"/>
      <point x="75" y="317" type="line"/>
      <point x="75" y="388" type="line"/>
      <point x="515" y="388" type="line"/>
      <point x="515" y="128" type="line"/>
    </contour>
  </outline>
</glyph>
<glyph name="registered" format="2">
  <advance width="600"/>
  <unicode hex="00AE"/>
  <outline>
    <contour>
      <point x="300" y="104" type="qcurve" smooth="yes"/>
      <point x="220" y="104"/>
      <point x="105" y="169"/>
      <point x="44" y="284"/>
      <point x="44" y="359" type="qcurve" smooth="yes"/>
      <point x="44" y="436"/>
      <point x="108" y="551"/>
      <point x="224" y="616"/>
      <point x="302" y="616" type="qcurve" smooth="yes"/>
      <point x="381" y="616"/>
      <point x="494" y="551"/>
      <point x="556" y="436"/>
      <point x="556" y="361" type="qcurve" smooth="yes"/>
      <point x="556" y="284"/>
      <point x="492" y="168"/>
      <point x="377" y="104"/>
    </contour>
    <contour>
      <point x="300" y="151" type="qcurve" smooth="yes"/>
      <point x="361" y="151"/>
      <point x="452" y="201"/>
      <point x="504" y="294"/>
      <point x="504" y="358" type="qcurve" smooth="yes"/>
      <point x="504" y="422"/>
      <point x="453" y="516"/>
      <point x="361" y="567"/>
      <point x="299" y="567" type="qcurve" smooth="yes"/>
      <point x="239" y="567"/>
      <point x="147" y="517"/>
      <point x="96" y="425"/>
      <point x="96" y="361" type="qcurve" smooth="yes"/>
      <point x="96" y="298"/>
      <point x="147" y="203"/>
      <point x="239" y="151"/>
    </contour>
    <contour>
      <point x="210" y="207" type="line"/>
      <point x="210" y="516" type="line"/>
      <point x="297" y="516" type="line" smooth="yes"/>
      <point x="354" y="516"/>
      <point x="408" y="467"/>
      <point x="408" y="425" type="qcurve" smooth="yes"/>
      <point x="408" y="388"/>
      <point x="373" y="346"/>
      <point x="353" y="338" type="qcurve"/>
      <point x="434" y="207" type="line"/>
      <point x="373" y="207" type="line"/>
      <point x="304" y="325" type="line"/>
      <point x="261" y="325" type="line"/>
      <point x="261" y="207" type="line"/>
    </contour>
    <contour>
      <point x="296" y="369" type="line" smooth="yes"/>
      <point x="323" y="369"/>
      <point x="356" y="395"/>
      <point x="356" y="421" type="qcurve" smooth="yes"/>
      <point x="356" y="446"/>
      <point x="326" y="470"/>
      <point x="295" y="470" type="qcurve" smooth="yes"/>
      <point x="261" y="470" type="line"/>
      <point x="261" y="369" type="line"/>
    </contour>
  </outline>
</glyph>
<glyph name="macron" format="2">
  <advance width="600"/>
  <unicode hex="00AF"/>
  <outline>
    <contour>
      <point x="152" y="618" type="line"/>
      <point x="152" y="689" type="line"/>
      <point x="449" y="689" type="line"/>
      <point x="449" y="618" type="line"/>
    </contour>
  </outline>
</glyph>
<glyph name="degree" format="2">
  <advance width="600"/>
  <unicode hex="00B0"/>
  <outline>
    <contour>
      <point x="301" y="421" type="qcurve" smooth="yes"/>
      <point x="256" y="421"/>
      <point x="187" y="461"/>
      <point x="149" y="529"/>
      <point x="149" y="572" type="qcurve" smooth="yes"/>
      <point x="149" y="615"/>
      <point x="189" y="684"/>
      <point x="258" y="724"/>
      <point x="301" y="724" type="qcurve" smooth="yes"/>
      <point x="343" y="724"/>
      <point x="411" y="684"/>
      <point x="451" y="615"/>
      <point x="451" y="572" type="qcurve" smooth="yes"/>
      <point x="451" y="529"/>
      <point x="413" y="461"/>
      <point x="345" y="421"/>
    </contour>
    <contour>
      <point x="302" y="480" type="qcurve" smooth="yes"/>
      <point x="340" y="480"/>
      <point x="391" y="529"/>
      <point x="391" y="572" type="qcurve" smooth="yes"/>
      <point x="391" y="615"/>
      <point x="340" y="664"/>
      <point x="302" y="664" type="qcurve" smooth="yes"/>
      <point x="262" y="664"/>
      <point x="210" y="616"/>
      <point x="210" y="572" type="qcurve" smooth="yes"/>
      <point x="210" y="530"/>
      <point x="265" y="480"/>
    </contour>
  </outline>
</glyph>
<glyph name="plusminus" format="2">
  <advance width="600"/>
  <unicode hex="00B1"/>
  <outline>
    <contour>
      <point x="262" y="124" type="line"/>
      <point x="262" y="320" type="line"/>
      <point x="76" y="320" type="line"/>
      <point x="76" y="391" type="line"/>
      <point x="262" y="391" type="line"/>
      <point x="262" y="588" type="line"/>
      <point x="334" y="588" type="line"/>
      <point x="334" y="391" type="line"/>
      <point x="520" y="391" type="line"/>
      <point x="520" y="320" type="line"/>
      <point x="334" y="320" type="line"/>
      <point x="334" y="124" type="line"/>
    </contour>
    <contour>
      <point x="80" y="0" type="line"/>
      <point x="80" y="71" type="line"/>
      <point x="520" y="71" type="line"/>
      <point x="520" y="0" type="line"/>
    </contour>
  </outline>
</glyph>
<glyph name="twosuperior" format="2">
  <advance width="600"/>
  <unicode hex="00B2"/>
  <outline>
    <contour>
      <point x="155" y="416" type="line"/>
      <point x="155" y="470" type="line"/>
      <point x="270" y="582" type="line" smooth="yes"/>
      <point x="312" y="622"/>
      <point x="356" y="671"/>
      <point x="372" y="709"/>
      <point x="372" y="731" type="qcurve" smooth="yes"/>
      <point x="372" y="763"/>
      <point x="332" y="795"/>
      <point x="300" y="795" type="qcurve" smooth="yes"/>
      <point x="270" y="795"/>
      <point x="221" y="772"/>
      <point x="195" y="752" type="qcurve"/>
      <point x="160" y="798" type="line"/>
      <point x="189" y="823"/>
      <point x="258" y="853"/>
      <point x="301" y="853" type="qcurve" smooth="yes"/>
      <point x="366" y="853"/>
      <point x="440" y="790"/>
      <point x="440" y="735" type="qcurve" smooth="yes"/>
      <point x="440" y="702"/>
      <point x="414" y="648"/>
      <point x="362" y="592"/>
      <point x="323" y="555" type="qcurve" smooth="yes"/>
      <point x="242" y="478" type="line"/>
      <point x="455" y="478" type="line"/>
      <point x="455" y="416" type="line"/>
    </contour>
  </outline>
</glyph>
<glyph name="threesuperior" format="2">
  <advance width="600"/>
  <unicode hex="00B3"/>
  <outline>
    <contour>
      <point x="278" y="408" type="qcurve" smooth="yes"/>
      <point x="245" y="408"/>
      <point x="185" y="421"/>
      <point x="155" y="436" type="qcurve"/>
      <point x="155" y="499" type="line"/>
      <point x="189" y="483"/>
      <point x="252" y="465"/>
      <point x="282" y="465" type="qcurve" smooth="yes"/>
      <point x="329" y="465"/>
      <point x="373" y="506"/>
      <point x="373" y="539" type="qcurve" smooth="yes"/>
      <point x="373" y="577"/>
      <point x="319" y="610"/>
      <point x="270" y="610" type="qcurve" smooth="yes"/>
      <point x="213" y="610" type="line"/>
      <point x="213" y="665" type="line"/>
      <point x="270" y="665" type="line" smooth="yes"/>
      <point x="317" y="665"/>
      <point x="360" y="704"/>
      <point x="360" y="735" type="qcurve" smooth="yes"/>
      <point x="360" y="767"/>
      <point x="323" y="796"/>
      <point x="294" y="796" type="qcurve" smooth="yes"/>
      <point x="269" y="796"/>
      <point x="219" y="775"/>
      <point x="193" y="758" type="qcurve"/>
      <point x="157" y="804" type="line"/>
      <point x="188" y="827"/>
      <point x="252" y="853"/>
      <point x="296" y="853" type="qcurve" smooth="yes"/>
      <point x="363" y="853"/>
      <point x="432" y="792"/>
      <point x="432" y="742" type="qcurve" smooth="yes"/>
      <point x="432" y="702"/>
      <point x="393" y="651"/>
      <point x="366" y="641" type="qcurve"/>
      <point x="366" y="638" type="line"/>
      <point x="402" y="631"/>
      <point x="445" y="580"/>
      <point x="445" y="537" type="qcurve" smooth="yes"/>
      <point x="445" y="481"/>
      <point x="364" y="408"/>
    </contour>
  </outline>
</glyph>
<glyph name="acute" format="2">
  <advance width="600"/>
  <unicode hex="00B4"/>
  <outline>
    <contour>
      <point x="246" y="606" type="line"/>
      <point x="304" y="606" type="line"/>
      <point x="351" y="642"/>
      <point x="422" y="719"/>
      <point x="447" y="756" type="curve"/>
      <point x="447" y="766" type="line"/>
      <point x="341" y="766" type="line"/>
      <point x="318" y="721"/>
      <point x="275" y="655"/>
      <point x="246" y="618" type="curve"/>
    </contour>
  </outline>
</glyph>
<glyph name="micro" format="2">
  <advance width="600"/>
  <unicode hex="00B5"/>
  <outline>
    <component base="u"/>
    <contour>
      <point x="165" y="-240" type="line"/>
      <point x="165" y="227" type="line"/>
      <point x="75" y="227" type="line"/>
      <point x="75" y="-240" type="line"/>
    </contour>
  </outline>
</glyph>
<glyph name="paragraph" format="2">
  <advance width="600"/>
  <unicode hex="00B6"/>
  <outline>
    <contour>
      <point x="321" y="-127" type="line"/>
      <point x="379" y="-127" type="line"/>
      <point x="379" y="704" type="line"/>
      <point x="481" y="704" type="line"/>
      <point x="481" y="-127" type="line"/>
      <point x="539" y="-127" type="line"/>
      <point x="539" y="760" type="line"/>
      <point x="255" y="760" type="line" smooth="yes"/>
      <point x="133" y="760"/>
      <point x="50" y="700"/>
      <point x="50" y="509" type="curve" smooth="yes"/>
      <point x="50" y="326"/>
      <point x="125" y="264"/>
      <point x="240" y="264" type="curve" smooth="yes"/>
      <point x="267" y="264"/>
      <point x="299" y="267"/>
      <point x="321" y="273" type="curve"/>
    </contour>
  </outline>
</glyph>
<glyph name="cedilla" format="2">
  <advance width="600"/>
  <unicode hex="00B8"/>
  <outline>
    <contour>
      <point x="250" y="-240" type="qcurve" smooth="yes"/>
      <point x="234" y="-240"/>
      <point x="207" y="-237"/>
      <point x="199" y="-235" type="qcurve"/>
      <point x="199" y="-180" type="line"/>
      <point x="208" y="-182"/>
      <point x="238" y="-185"/>
      <point x="252" y="-185" type="qcurve" smooth="yes"/>
      <point x="287" y="-185"/>
      <point x="326" y="-166"/>
      <point x="326" y="-142" type="qcurve" smooth="yes"/>
      <point x="326" y="-116"/>
      <point x="279" y="-92"/>
      <point x="235" y="-86" type="qcurve"/>
      <point x="278" y="5" type="line"/>
      <point x="336" y="5" type="line"/>
      <point x="310" y="-53" type="line"/>
      <point x="346" y="-61"/>
      <point x="397" y="-100"/>
      <point x="397" y="-141" type="qcurve" smooth="yes"/>
      <point x="397" y="-187"/>
      <point x="323" y="-240"/>
    </contour>
  </outline>
</glyph>
<glyph name="onesuperior" format="2">
  <advance width="600"/>
  <unicode hex="00B9"/>
  <outline>
    <contour>
      <point x="180" y="416" type="line"/>
      <point x="180" y="467" type="line"/>
      <point x="283" y="474" type="line"/>
      <point x="283" y="692" type="line" smooth="yes"/>
      <point x="283" y="718"/>
      <point x="284" y="756"/>
      <point x="285" y="777" type="qcurve"/>
      <point x="275" y="768"/>
      <point x="253" y="752"/>
      <point x="241" y="745" type="qcurve" smooth="yes"/>
      <point x="182" y="712" type="line"/>
      <point x="148" y="768" type="line"/>
      <point x="281" y="844" type="line"/>
      <point x="348" y="844" type="line"/>
      <point x="348" y="474" type="line"/>
      <point x="455" y="467" type="line"/>
      <point x="455" y="416" type="line"/>
    </contour>
  </outline>
</glyph>
<glyph name="ordmasculine" format="2">
  <advance width="600"/>
  <unicode hex="00BA"/>
  <outline>
    <contour>
      <point x="298" y="383" type="qcurve" smooth="yes"/>
      <point x="232" y="383"/>
      <point x="153" y="470"/>
      <point x="153" y="553" type="qcurve" smooth="yes"/>
      <point x="153" y="635"/>
      <point x="232" y="722"/>
      <point x="300" y="722" type="qcurve" smooth="yes"/>
      <point x="344" y="722"/>
      <point x="410" y="683"/>
      <point x="446" y="608"/>
      <point x="446" y="553" type="qcurve" smooth="yes"/>
      <point x="446" y="469"/>
      <point x="366" y="383"/>
    </contour>
    <contour>
      <point x="299" y="436" type="qcurve" smooth="yes"/>
      <point x="343" y="436"/>
      <point x="382" y="495"/>
      <point x="382" y="553" type="qcurve" smooth="yes"/>
      <point x="382" y="593"/>
      <point x="365" y="644"/>
      <point x="328" y="669"/>
      <point x="299" y="669" type="qcurve" smooth="yes"/>
      <point x="256" y="669"/>
      <point x="216" y="607"/>
      <point x="216" y="553" type="qcurve" smooth="yes"/>
      <point x="216" y="495"/>
      <point x="255" y="436"/>
    </contour>
  </outline>
</glyph>
<glyph name="guillemotright" format="2">
  <advance width="600"/>
  <unicode hex="00BB"/>
  <outline>
    <contour>
      <point x="148" y="477" type="line"/>
      <point x="318" y="272" type="line"/>
      <point x="318" y="259" type="line"/>
      <point x="148" y="53" type="line"/>
      <point x="90" y="95" type="line"/>
      <point x="226" y="265" type="line"/>
      <point x="90" y="436" type="line"/>
    </contour>
    <contour>
      <point x="344" y="476" type="line"/>
      <point x="512" y="272" type="line"/>
      <point x="512" y="259" type="line"/>
      <point x="344" y="53" type="line"/>
      <point x="285" y="97" type="line"/>
      <point x="421" y="265" type="line"/>
      <point x="286" y="436" type="line"/>
    </contour>
  </outline>
</glyph>
<glyph name="onequarter" format="2">
  <advance width="600"/>
  <unicode hex="00BC"/>
  <outline>
    <contour>
      <point x="83" y="0" type="line"/>
      <point x="453" y="714" type="line"/>
      <point x="529" y="714" type="line"/>
      <point x="160" y="0" type="line"/>
    </contour>
    <contour>
      <point x="458" y="0" type="line"/>
      <point x="458" y="78" type="line"/>
      <point x="300" y="78" type="line"/>
      <point x="300" y="130" type="line"/>
      <point x="455" y="349" type="line"/>
      <point x="522" y="349" type="line"/>
      <point x="522" y="134" type="line"/>
      <point x="574" y="134" type="line"/>
      <point x="574" y="78" type="line"/>
      <point x="522" y="78" type="line"/>
      <point x="522" y="0" type="line"/>
    </contour>
    <contour>
      <point x="32" y="367" type="line"/>
      <point x="32" y="418" type="line"/>
      <point x="109" y="425" type="line"/>
      <point x="109" y="562" type="line" smooth="yes"/>
      <point x="109" y="588"/>
      <point x="110" y="626"/>
      <point x="111" y="647" type="qcurve"/>
      <point x="101" y="638"/>
      <point x="79" y="622"/>
      <point x="67" y="615" type="qcurve" smooth="yes"/>
      <point x="38" y="599" type="line"/>
      <point x="4" y="655" type="line"/>
      <point x="107" y="714" type="line"/>
      <point x="174" y="714" type="line"/>
      <point x="174" y="424" type="line"/>
      <point x="255" y="418" type="line"/>
      <point x="255" y="367" type="line"/>
    </contour>
    <contour>
      <point x="370" y="134" type="line"/>
      <point x="458" y="134" type="line"/>
      <point x="458" y="208" type="line" smooth="yes"/>
      <point x="458" y="228"/>
      <point x="460" y="253"/>
      <point x="460" y="271" type="qcurve"/>
      <point x="456" y="262"/>
      <point x="441" y="238"/>
      <point x="433" y="226" type="qcurve" smooth="yes"/>
    </contour>
  </outline>
</glyph>
<glyph name="onehalf" format="2">
  <advance width="600"/>
  <unicode hex="00BD"/>
  <outline>
    <contour>
      <point x="83" y="0" type="line"/>
      <point x="453" y="714" type="line"/>
      <point x="529" y="714" type="line"/>
      <point x="160" y="0" type="line"/>
    </contour>
    <contour>
      <point x="331" y="0" type="line"/>
      <point x="331" y="54" type="line"/>
      <point x="420" y="138" type="line" smooth="yes"/>
      <point x="452" y="168"/>
      <point x="485" y="203"/>
      <point x="498" y="231"/>
      <point x="498" y="248" type="qcurve" smooth="yes"/>
      <point x="498" y="272"/>
      <point x="469" y="297"/>
      <point x="446" y="297" type="qcurve" smooth="yes"/>
      <point x="424" y="297"/>
      <point x="389" y="278"/>
      <point x="370" y="263" type="qcurve"/>
      <point x="335" y="309" type="line"/>
      <point x="358" y="329"/>
      <point x="413" y="355"/>
      <point x="447" y="355" type="qcurve" smooth="yes"/>
      <point x="503" y="355"/>
      <point x="566" y="300"/>
      <point x="566" y="252" type="qcurve" smooth="yes"/>
      <point x="566" y="226"/>
      <point x="546" y="184"/>
      <point x="505" y="140"/>
      <point x="473" y="111" type="qcurve" smooth="yes"/>
      <point x="418" y="62" type="line"/>
      <point x="574" y="62" type="line"/>
      <point x="574" y="0" type="line"/>
    </contour>
    <contour>
      <point x="32" y="367" type="line"/>
      <point x="32" y="418" type="line"/>
      <point x="109" y="425" type="line"/>
      <point x="109" y="562" type="line" smooth="yes"/>
      <point x="109" y="588"/>
      <point x="110" y="626"/>
      <point x="111" y="647" type="qcurve"/>
      <point x="101" y="638"/>
      <point x="79" y="622"/>
      <point x="67" y="615" type="qcurve" smooth="yes"/>
      <point x="38" y="599" type="line"/>
      <point x="4" y="655" type="line"/>
      <point x="107" y="714" type="line"/>
      <point x="174" y="714" type="line"/>
      <point x="174" y="424" type="line"/>
      <point x="255" y="418" type="line"/>
      <point x="255" y="367" type="line"/>
    </contour>
  </outline>
</glyph>
<glyph name="threequarters" format="2">
  <advance width="600"/>
  <unicode hex="00BE"/>
  <outline>
    <contour>
      <point x="83" y="0" type="line"/>
      <point x="453" y="714" type="line"/>
      <point x="529" y="714" type="line"/>
      <point x="160" y="0" type="line"/>
    </contour>
    <contour>
      <point x="458" y="0" type="line"/>
      <point x="458" y="78" type="line"/>
      <point x="300" y="78" type="line"/>
      <point x="300" y="130" type="line"/>
      <point x="455" y="349" type="line"/>
      <point x="522" y="349" type="line"/>
      <point x="522" y="134" type="line"/>
      <point x="574" y="134" type="line"/>
      <point x="574" y="78" type="line"/>
      <point x="522" y="78" type="line"/>
      <point x="522" y="0" type="line"/>
    </contour>
    <contour>
      <point x="370" y="134" type="line"/>
      <point x="458" y="134" type="line"/>
      <point x="458" y="208" type="line" smooth="yes"/>
      <point x="458" y="228"/>
      <point x="460" y="253"/>
      <point x="460" y="271" type="qcurve"/>
      <point x="456" y="262"/>
      <point x="441" y="238"/>
      <point x="433" y="226" type="qcurve" smooth="yes"/>
    </contour>
    <contour>
      <point x="118" y="361" type="qcurve" smooth="yes"/>
      <point x="93" y="361"/>
      <point x="49" y="370"/>
      <point x="27" y="380" type="qcurve"/>
      <point x="27" y="443" type="line"/>
      <point x="53" y="431"/>
      <point x="100" y="418"/>
      <point x="122" y="418" type="qcurve" smooth="yes"/>
      <point x="157" y="418"/>
      <point x="190" y="447"/>
      <point x="190" y="471" type="qcurve" smooth="yes"/>
      <point x="190" y="497"/>
      <point x="149" y="518"/>
      <point x="114" y="518" type="qcurve" smooth="yes"/>
      <point x="66" y="518" type="line"/>
      <point x="66" y="573" type="line"/>
      <point x="114" y="573" type="line" smooth="yes"/>
      <point x="149" y="573"/>
      <point x="181" y="600"/>
      <point x="181" y="622" type="qcurve" smooth="yes"/>
      <point x="181" y="645"/>
      <point x="153" y="666"/>
      <point x="131" y="666" type="qcurve" smooth="yes"/>
      <point x="112" y="666"/>
      <point x="75" y="650"/>
      <point x="55" y="637" type="qcurve"/>
      <point x="19" y="683" type="line"/>
      <point x="45" y="701"/>
      <point x="97" y="723"/>
      <point x="133" y="723" type="qcurve" smooth="yes"/>
      <point x="192" y="723"/>
      <point x="253" y="670"/>
      <point x="253" y="627" type="qcurve" smooth="yes"/>
      <point x="253" y="596"/>
      <point x="224" y="558"/>
      <point x="203" y="552" type="qcurve"/>
      <point x="203" y="549" type="line"/>
      <point x="262" y="532"/>
      <point x="262" y="471" type="qcurve" smooth="yes"/>
      <point x="262" y="422"/>
      <point x="194" y="361"/>
    </contour>
  </outline>
</glyph>
<glyph name="questiondown" format="2">
  <advance width="600"/>
  <unicode hex="00BF"/>
  <outline>
    <contour>
      <point x="346" y="309" type="line" smooth="yes"/>
      <point x="346" y="272"/>
      <point x="328" y="215"/>
      <point x="284" y="165"/>
      <point x="245" y="137" type="qcurve" smooth="yes"/>
      <point x="211" y="113"/>
      <point x="170" y="71"/>
      <point x="151" y="21"/>
      <point x="151" y="-16" type="qcurve" smooth="yes"/>
      <point x="151" y="-59"/>
      <point x="216" y="-117"/>
      <point x="278" y="-117" type="qcurve" smooth="yes"/>
      <point x="331" y="-117"/>
      <point x="414" y="-92"/>
      <point x="454" y="-73" type="qcurve"/>
      <point x="486" y="-148" type="line"/>
      <point x="446" y="-166"/>
      <point x="350" y="-195"/>
      <point x="283" y="-195" type="qcurve" smooth="yes"/>
      <point x="216" y="-195"/>
      <point x="119" y="-152"/>
      <point x="66" y="-73"/>
      <point x="66" y="-20" type="qcurve" smooth="yes"/>
      <point x="66" y="27"/>
      <point x="90" y="95"/>
      <point x="140" y="151"/>
      <point x="178" y="179" type="qcurve" smooth="yes"/>
      <point x="218" y="208"/>
      <point x="256" y="249"/>
      <point x="268" y="290"/>
      <point x="268" y="318" type="qcurve" smooth="yes"/>
      <point x="268" y="327" type="line"/>
      <point x="346" y="327" type="line"/>
    </contour>
    <contour>
      <point x="303" y="539" type="qcurve" smooth="yes"/>
      <point x="329" y="539"/>
      <point x="365" y="507"/>
      <point x="365" y="471" type="qcurve" smooth="yes"/>
      <point x="365" y="434"/>
      <point x="329" y="403"/>
      <point x="303" y="403" type="qcurve" smooth="yes"/>
      <point x="278" y="403"/>
      <point x="241" y="434"/>
      <point x="241" y="471" type="qcurve" smooth="yes"/>
      <point x="241" y="507"/>
      <point x="278" y="539"/>
    </contour>
  </outline>
</glyph>
<glyph name="AE" format="2">
  <advance width="600"/>
  <unicode hex="00C6"/>
  <outline>
    <contour>
      <point x="277" y="296" type="line"/>
      <point x="277" y="634" type="line"/>
      <point x="242" y="634" type="line"/>
      <point x="170" y="296" type="line"/>
    </contour>
    <contour>
      <point x="20" y="0" type="line"/>
      <point x="180" y="714" type="line"/>
      <point x="543" y="714" type="line"/>
      <point x="543" y="634" type="line"/>
      <point x="363" y="634" type="line"/>
      <point x="363" y="413" type="line"/>
      <point x="524" y="413" type="line"/>
      <point x="524" y="334" type="line"/>
      <point x="363" y="334" type="line"/>
      <point x="363" y="80" type="line"/>
      <point x="543" y="80" type="line"/>
      <point x="543" y="0" type="line"/>
      <point x="277" y="0" type="line"/>
      <point x="277" y="219" type="line"/>
      <point x="154" y="219" type="line"/>
      <point x="107" y="0" type="line"/>
    </contour>
  </outline>
</glyph>
<glyph name="Eth" format="2">
  <advance width="600"/>
  <unicode hex="00D0"/>
  <anchor x="300" y="0" name="bottom"/>
  <anchor x="300" y="714" name="top"/>
  <outline>
    <component base="D" xOffset="10"/>
    <contour>
      <point x="292" y="314" type="line"/>
      <point x="292" y="392" type="line"/>
      <point x="0" y="392" type="line"/>
      <point x="0" y="314" type="line"/>
    </contour>
  </outline>
</glyph>
<glyph name="Oslash" format="2">
  <advance width="600"/>
  <unicode hex="00D8"/>
  <anchor x="300" y="0" name="bottom"/>
  <anchor x="300" y="714" name="top"/>
  <outline>
    <component base="O"/>
    <contour>
      <point x="550" y="714" type="line"/>
      <point x="486" y="749" type="line"/>
      <point x="56" y="-3" type="line"/>
      <point x="121" y="-38" type="line"/>
    </contour>
  </outline>
</glyph>
<glyph name="Thorn" format="2">
  <advance width="600"/>
  <unicode hex="00DE"/>
  <anchor x="300" y="0" name="bottom"/>
  <anchor x="300" y="714" name="top"/>
  <outline>
    <contour>
      <point x="185" y="0" type="line"/>
      <point x="185" y="145" type="line"/>
      <point x="286" y="145" type="line" smooth="yes"/>
      <point x="480" y="145"/>
      <point x="545" y="256"/>
      <point x="545" y="375" type="curve" smooth="yes"/>
      <point x="545" y="508"/>
      <point x="470" y="584"/>
      <point x="299" y="584" type="curve" smooth="yes"/>
      <point x="185" y="584" type="line"/>
      <point x="185" y="714" type="line"/>
      <point x="95" y="714" type="line"/>
      <point x="95" y="0" type="line"/>
    </contour>
    <contour>
      <point x="185" y="223" type="line"/>
      <point x="185" y="506" type="line"/>
      <point x="291" y="506" type="line" smooth="yes"/>
      <point x="401" y="506"/>
      <point x="453" y="461"/>
      <point x="453" y="370" type="curve" smooth="yes"/>
      <point x="453" y="265"/>
      <point x="394" y="223"/>
      <point x="276" y="223" type="curve" smooth="yes"/>
    </contour>
  </outline>
</glyph>
<glyph name="germandbls" format="2">
  <advance width="600"/>
  <unicode hex="00DF"/>
  <outline>
    <contour>
      <point x="385" y="-10" type="qcurve" smooth="yes"/>
      <point x="342" y="-10"/>
      <point x="270" y="8"/>
      <point x="244" y="24" type="qcurve"/>
      <point x="244" y="105" type="line"/>
      <point x="270" y="89"/>
      <point x="346" y="63"/>
      <point x="388" y="63" type="qcurve" smooth="yes"/>
      <point x="441" y="63"/>
      <point x="487" y="110"/>
      <point x="487" y="153" type="qcurve" smooth="yes"/>
      <point x="487" y="178"/>
      <point x="470" y="210"/>
      <point x="430" y="242"/>
      <point x="393" y="267" type="qcurve" smooth="yes"/>
      <point x="356" y="293"/>
      <point x="308" y="333"/>
      <point x="285" y="375"/>
      <point x="285" y="403" type="qcurve" smooth="yes"/>
      <point x="285" y="437"/>
      <point x="312" y="483"/>
      <point x="353" y="516"/>
      <point x="393" y="547"/>
      <point x="420" y="584"/>
      <point x="420" y="610" type="qcurve" smooth="yes"/>
      <point x="420" y="651"/>
      <point x="351" y="689"/>
      <point x="295" y="689" type="qcurve" smooth="yes"/>
      <point x="260" y="689"/>
      <point x="200" y="670"/>
      <point x="163" y="624"/>
      <point x="163" y="581" type="qcurve" smooth="yes"/>
      <point x="163" y="0" type="line"/>
      <point x="75" y="0" type="line"/>
      <point x="75" y="584" type="line" smooth="yes"/>
      <point x="75" y="651"/>
      <point x="133" y="730"/>
      <point x="232" y="765"/>
      <point x="295" y="765" type="qcurve" smooth="yes"/>
      <point x="360" y="765"/>
      <point x="457" y="732"/>
      <point x="511" y="668"/>
      <point x="511" y="620" type="qcurve" smooth="yes"/>
      <point x="511" y="584"/>
      <point x="483" y="532"/>
      <point x="441" y="493"/>
      <point x="399" y="461"/>
      <point x="371" y="428"/>
      <point x="371" y="407" type="qcurve" smooth="yes"/>
      <point x="371" y="394"/>
      <point x="387" y="373"/>
      <point x="426" y="347"/>
      <point x="459" y="323" type="qcurve" smooth="yes"/>
      <point x="494" y="299"/>
      <point x="546" y="253"/>
      <point x="575" y="194"/>
      <point x="575" y="150" type="qcurve" smooth="yes"/>
      <point x="575" y="95"/>
      <point x="527" y="24"/>
      <point x="442" y="-10"/>
    </contour>
  </outline>
</glyph>
<glyph name="ae" format="2">
  <advance width="600"/>
  <unicode hex="00E6"/>
  <outline>
    <contour>
      <point x="145" y="-10" type="qcurve" smooth="yes"/>
      <point x="94" y="-10"/>
      <point x="20" y="68"/>
      <point x="20" y="150" type="qcurve" smooth="yes"/>
      <point x="20" y="203"/>
      <point x="58" y="278"/>
      <point x="130" y="319"/>
      <point x="180" y="320" type="qcurve" smooth="yes"/>
      <point x="258" y="322" type="line"/>
      <point x="258" y="356" type="line" smooth="yes"/>
      <point x="258" y="421"/>
      <point x="218" y="473"/>
      <point x="180" y="473" type="qcurve" smooth="yes"/>
      <point x="157" y="473"/>
      <point x="106" y="452"/>
      <point x="86" y="435" type="qcurve"/>
      <point x="55" y="499" type="line"/>
      <point x="80" y="519"/>
      <point x="153" y="546"/>
      <point x="184" y="546" type="qcurve" smooth="yes"/>
      <point x="232" y="546"/>
      <point x="295" y="508"/>
      <point x="311" y="467" type="qcurve"/>
      <point x="328" y="505"/>
      <point x="390" y="546"/>
      <point x="433" y="546" type="qcurve" smooth="yes"/>
      <point x="479" y="546"/>
      <point x="545" y="490"/>
      <point x="580" y="383"/>
      <point x="580" y="306" type="qcurve" smooth="yes"/>
      <point x="580" y="251" type="line"/>
      <point x="335" y="251" type="line"/>
      <point x="336" y="182"/>
      <point x="366" y="99"/>
      <point x="419" y="63"/>
      <point x="453" y="63" type="qcurve" smooth="yes"/>
      <point x="485" y="63"/>
      <point x="538" y="83"/>
      <point x="567" y="105" type="qcurve"/>
      <point x="567" y="26" type="line"/>
      <point x="539" y="7"/>
      <point x="485" y="-10"/>
      <point x="449" y="-10" type="qcurve" smooth="yes"/>
      <point x="401" y="-10"/>
      <point x="319" y="37"/>
      <point x="297" y="98" type="qcurve"/>
      <point x="272" y="40"/>
      <point x="199" y="-10"/>
    </contour>
    <contour>
      <point x="161" y="63" type="qcurve" smooth="yes"/>
      <point x="186" y="63"/>
      <point x="229" y="91"/>
      <point x="256" y="158"/>
      <point x="256" y="214" type="qcurve" smooth="yes"/>
      <point x="256" y="259" type="line"/>
      <point x="211" y="256" type="line" smooth="yes"/>
      <point x="153" y="252"/>
      <point x="100" y="199"/>
      <point x="100" y="149" type="qcurve" smooth="yes"/>
      <point x="100" y="104"/>
      <point x="136" y="63"/>
    </contour>
    <contour>
      <point x="498" y="321" type="line"/>
      <point x="498" y="371"/>
      <point x="483" y="439"/>
      <point x="451" y="473"/>
      <point x="424" y="473" type="qcurve" smooth="yes"/>
      <point x="389" y="473"/>
      <point x="340" y="395"/>
      <point x="337" y="321" type="qcurve"/>
    </contour>
  </outline>
</glyph>
<glyph name="eth" format="2">
  <advance width="600"/>
  <unicode hex="00F0"/>
  <outline>
    <contour>
      <point x="196" y="533" type="line"/>
      <point x="158" y="588" type="line"/>
      <point x="267" y="651" type="line"/>
      <point x="226" y="681"/>
      <point x="180" y="705" type="qcurve"/>
      <point x="216" y="765" type="line"/>
      <point x="282" y="733"/>
      <point x="336" y="690" type="qcurve"/>
      <point x="457" y="760" type="line"/>
      <point x="495" y="706" type="line"/>
      <point x="388" y="644" type="line"/>
      <point x="426" y="607"/>
      <point x="456" y="564" type="qcurve" smooth="yes"/>
      <point x="499" y="500"/>
      <point x="545" y="354"/>
      <point x="545" y="275" type="qcurve" smooth="yes"/>
      <point x="545" y="133"/>
      <point x="414" y="-10"/>
      <point x="301" y="-10" type="qcurve" smooth="yes"/>
      <point x="229" y="-10"/>
      <point x="118" y="49"/>
      <point x="55" y="158"/>
      <point x="55" y="233" type="qcurve" smooth="yes"/>
      <point x="55" y="308"/>
      <point x="113" y="415"/>
      <point x="218" y="473"/>
      <point x="290" y="473" type="qcurve" smooth="yes"/>
      <point x="343" y="473"/>
      <point x="422" y="445"/>
      <point x="446" y="415" type="qcurve"/>
      <point x="450" y="417" type="line"/>
      <point x="435" y="464"/>
      <point x="381" y="548"/>
      <point x="346" y="584" type="qcurve"/>
      <point x="334" y="595"/>
      <point x="322" y="606" type="qcurve"/>
    </contour>
    <contour>
      <point x="303" y="62" type="qcurve" smooth="yes"/>
      <point x="356" y="62"/>
      <point x="424" y="105"/>
      <point x="456" y="190"/>
      <point x="456" y="251" type="qcurve" smooth="yes"/>
      <point x="456" y="293"/>
      <point x="423" y="361"/>
      <point x="355" y="402"/>
      <point x="303" y="402" type="qcurve" smooth="yes"/>
      <point x="247" y="402"/>
      <point x="177" y="362"/>
      <point x="144" y="286"/>
      <point x="144" y="230" type="qcurve" smooth="yes"/>
      <point x="144" y="181"/>
      <point x="177" y="105"/>
      <point x="248" y="62"/>
    </contour>
  </outline>
</glyph>
<glyph name="divide" format="2">
  <advance width="600"/>
  <unicode hex="00F7"/>
  <outline>
    <contour>
      <point x="80" y="317" type="line"/>
      <point x="80" y="388" type="line"/>
      <point x="520" y="388" type="line"/>
      <point x="520" y="317" type="line"/>
    </contour>
    <contour>
      <point x="299" y="121" type="qcurve" smooth="yes"/>
      <point x="276" y="121"/>
      <point x="243" y="150"/>
      <point x="243" y="182" type="qcurve" smooth="yes"/>
      <point x="243" y="216"/>
      <point x="276" y="242"/>
      <point x="299" y="242" type="qcurve" smooth="yes"/>
      <point x="322" y="242"/>
      <point x="354" y="216"/>
      <point x="354" y="182" type="qcurve" smooth="yes"/>
      <point x="354" y="150"/>
      <point x="322" y="121"/>
    </contour>
    <contour>
      <point x="299" y="462" type="qcurve" smooth="yes"/>
      <point x="276" y="462"/>
      <point x="243" y="491"/>
      <point x="243" y="523" type="qcurve" smooth="yes"/>
      <point x="243" y="557"/>
      <point x="276" y="583"/>
      <point x="299" y="583" type="qcurve" smooth="yes"/>
      <point x="322" y="583"/>
      <point x="354" y="557"/>
      <point x="354" y="523" type="qcurve" smooth="yes"/>
      <point x="354" y="491"/>
      <point x="322" y="462"/>
    </contour>
  </outline>
</glyph>
<glyph name="oslash" format="2">
  <advance width="600"/>
  <unicode hex="00F8"/>
  <anchor x="300" y="0" name="bottom"/>
  <anchor x="300" y="536" name="top"/>
  <outline>
    <component base="o"/>
    <contour>
      <point x="533" y="528" type="line"/>
      <point x="474" y="566" type="line"/>
      <point x="74" y="6" type="line"/>
      <point x="132" y="-33" type="line"/>
    </contour>
  </outline>
</glyph>
<glyph name="dcaron" format="2">
  <advance width="600"/>
  <unicode hex="010F"/>
  <anchor x="300" y="0" name="bottom"/>
  <anchor x="261" y="268" name="center"/>
  <anchor x="327" y="760" name="top"/>
  <anchor x="580" y="760" name="topright"/>
  <outline>
    <contour>
      <point x="245" y="-10" type="curve" smooth="yes"/>
      <point x="317" y="-10"/>
      <point x="363" y="22"/>
      <point x="392" y="72" type="curve"/>
      <point x="396" y="72" type="line"/>
      <point x="406" y="0" type="line"/>
      <point x="480" y="0" type="line"/>
      <point x="480" y="760" type="line"/>
      <point x="391" y="760" type="line"/>
      <point x="391" y="551" type="line" smooth="yes"/>
      <point x="391" y="520"/>
      <point x="394" y="491"/>
      <point x="397" y="468" type="curve"/>
      <point x="391" y="468" type="line"/>
      <point x="365" y="513"/>
      <point x="327" y="546"/>
      <point x="249" y="546" type="curve" smooth="yes"/>
      <point x="116" y="546"/>
      <point x="45" y="449"/>
      <point x="45" y="270" type="curve" smooth="yes"/>
      <point x="45" y="81"/>
      <point x="124" y="-10"/>
    </contour>
    <contour>
      <point x="261" y="63" type="curve" smooth="yes"/>
      <point x="177" y="63"/>
      <point x="137" y="129"/>
      <point x="137" y="262" type="curve" smooth="yes"/>
      <point x="137" y="405"/>
      <point x="183" y="473"/>
      <point x="265" y="473" type="curve" smooth="yes"/>
      <point x="359" y="473"/>
      <point x="391" y="383"/>
      <point x="391" y="267" type="curve" smooth="yes"/>
      <point x="391" y="247" type="line" smooth="yes"/>
      <point x="391" y="134"/>
      <point x="349" y="63"/>
    </contour>
  </outline>
</glyph>
<glyph name="dcroat" format="2">
  <advance width="600"/>
  <unicode hex="0111"/>
  <outline>
    <contour>
      <point x="254" y="604" type="line"/>
      <point x="254" y="670" type="line"/>
      <point x="431" y="670" type="line"/>
      <point x="431" y="760" type="line"/>
      <point x="520" y="760" type="line"/>
      <point x="520" y="670" type="line"/>
      <point x="600" y="670" type="line"/>
      <point x="600" y="604" type="line"/>
      <point x="520" y="604" type="line"/>
      <point x="520" y="0" type="line"/>
      <point x="446" y="0" type="line"/>
      <point x="436" y="72" type="line"/>
      <point x="432" y="72" type="line"/>
      <point x="417" y="48"/>
      <point x="374" y="11"/>
      <point x="315" y="-10"/>
      <point x="274" y="-10" type="qcurve" smooth="yes"/>
      <point x="225" y="-10"/>
      <point x="144" y="24"/>
      <point x="86" y="93"/>
      <point x="55" y="198"/>
      <point x="55" y="269" type="qcurve" smooth="yes"/>
      <point x="55" y="357"/>
      <point x="106" y="478"/>
      <point x="208" y="541"/>
      <point x="284" y="541" type="qcurve" smooth="yes"/>
      <point x="321" y="541"/>
      <point x="378" y="521"/>
      <point x="419" y="486"/>
      <point x="431" y="463" type="qcurve"/>
      <point x="437" y="463" type="line"/>
      <point x="436" y="476"/>
      <point x="433" y="502"/>
      <point x="431" y="529"/>
      <point x="431" y="542" type="qcurve" smooth="yes"/>
      <point x="431" y="604" type="line"/>
    </contour>
    <contour>
      <point x="291" y="63" type="qcurve" smooth="yes"/>
      <point x="362" y="63"/>
      <point x="431" y="161"/>
      <point x="431" y="245" type="qcurve" smooth="yes"/>
      <point x="431" y="265" type="line" smooth="yes"/>
      <point x="431" y="323"/>
      <point x="405" y="414"/>
      <point x="345" y="468"/>
      <point x="294" y="468" type="qcurve" smooth="yes"/>
      <point x="224" y="468"/>
      <point x="147" y="366"/>
      <point x="147" y="260" type="qcurve" smooth="yes"/>
      <point x="147" y="162"/>
      <point x="218" y="63"/>
    </contour>
  </outline>
</glyph>
<glyph name="eogonek" format="2">
  <advance width="600"/>
  <unicode hex="0119"/>
  <anchor x="320" y="-220" name="bottom"/>
  <anchor x="300" y="536" name="top"/>
  <outline>
    <component base="e"/>
    <contour>
      <point x="447" y="-220" type="curve" smooth="yes"/>
      <point x="470" y="-220"/>
      <point x="488" y="-216"/>
      <point x="507" y="-211" type="curve"/>
      <point x="507" y="-155" type="line"/>
      <point x="496" y="-159"/>
      <point x="478" y="-161"/>
      <point x="466" y="-161" type="curve" smooth="yes"/>
      <point x="433" y="-161"/>
      <point x="414" y="-146"/>
      <point x="414" y="-110" type="curve" smooth="yes"/>
      <point x="414" y="-54"/>
      <point x="461" y="-13"/>
      <point x="516" y="28" type="curve"/>
      <point x="458" y="28" type="line"/>
      <point x="400" y="-4"/>
      <point x="342" y="-52"/>
      <point x="342" y="-124" type="curve" smooth="yes"/>
      <point x="342" y="-178"/>
      <point x="374" y="-220"/>
    </contour>
  </outline>
</glyph>
<glyph name="Hbar" format="2">
  <advance width="600"/>
  <unicode hex="0126"/>
  <outline>
    <contour>
      <point x="600" y="523" type="line"/>
      <point x="0" y="523" type="line"/>
      <point x="0" y="595" type="line"/>
      <point x="600" y="595" type="line"/>
    </contour>
    <contour>
      <point x="160" y="0" type="line"/>
      <point x="70" y="0" type="line"/>
      <point x="70" y="714" type="line"/>
      <point x="160" y="714" type="line"/>
      <point x="160" y="413" type="line"/>
      <point x="440" y="413" type="line"/>
      <point x="440" y="714" type="line"/>
      <point x="530" y="714" type="line"/>
      <point x="530" y="0" type="line"/>
      <point x="440" y="0" type="line"/>
      <point x="440" y="333" type="line"/>
      <point x="160" y="333" type="line"/>
    </contour>
  </outline>
</glyph>
<glyph name="dotlessi" format="2">
  <advance width="600"/>
  <unicode hex="0131"/>
  <outline>
    <contour>
      <point x="80" y="0" type="line"/>
      <point x="80" y="60" type="line"/>
      <point x="271" y="75" type="line"/>
      <point x="271" y="461" type="line"/>
      <point x="96" y="474" type="line"/>
      <point x="96" y="536" type="line"/>
      <point x="361" y="536" type="line"/>
      <point x="361" y="75" type="line"/>
      <point x="540" y="60" type="line"/>
      <point x="540" y="0" type="line"/>
    </contour>
  </outline>
</glyph>
<glyph name="idotless" format="2">
  <advance width="600"/>
  <unicode hex="0131"/>
  <anchor x="300" y="0" name="bottom"/>
  <anchor x="320" y="283" name="center"/>
  <anchor x="300" y="536" name="top"/>
  <outline>
    <contour>
      <point x="540" y="0" type="line"/>
      <point x="80" y="0" type="line"/>
      <point x="80" y="60" type="line"/>
      <point x="271" y="75" type="line"/>
      <point x="271" y="461" type="line"/>
      <point x="96" y="474" type="line"/>
      <point x="96" y="536" type="line"/>
      <point x="361" y="536" type="line"/>
      <point x="361" y="75" type="line"/>
      <point x="540" y="60" type="line"/>
    </contour>
  </outline>
</glyph>
<glyph name="IJ" format="2">
  <advance width="600"/>
  <unicode hex="0132"/>
  <anchor x="300" y="0" name="bottom"/>
  <anchor x="300" y="714" name="top"/>
  <anchor x="20" y="714" name="topleft"/>
  <outline>
    <contour>
      <point x="270" y="-10" type="curve" smooth="yes"/>
      <point x="211" y="-10"/>
      <point x="134" y="2"/>
      <point x="102" y="19" type="curve"/>
      <point x="102" y="104" type="line"/>
      <point x="129" y="91"/>
      <point x="202" y="73"/>
      <point x="263" y="73" type="curve" smooth="yes"/>
      <point x="350" y="73"/>
      <point x="410" y="115"/>
      <point x="410" y="229" type="curve" smooth="yes"/>
      <point x="410" y="714" type="line"/>
      <point x="500" y="714" type="line"/>
      <point x="500" y="217" type="line" smooth="yes"/>
      <point x="500" y="72"/>
      <point x="419" y="-10"/>
    </contour>
    <contour>
      <point x="190" y="200" type="line"/>
      <point x="100" y="200" type="line"/>
      <point x="100" y="714" type="line"/>
      <point x="190" y="714" type="line"/>
    </contour>
  </outline>
</glyph>
<glyph name="kgreenlandic" format="2">
  <advance width="600"/>
  <unicode hex="0138"/>
  <anchor x="300" y="0" name="bottom"/>
  <anchor x="300" y="536" name="top"/>
  <outline>
    <contour>
      <point x="195" y="0" type="line"/>
      <point x="195" y="167" type="line"/>
      <point x="283" y="252" type="line"/>
      <point x="466" y="0" type="line"/>
      <point x="570" y="0" type="line"/>
      <point x="343" y="305" type="line"/>
      <point x="556" y="536" type="line"/>
      <point x="448" y="536" type="line"/>
      <point x="263" y="331" type="line" smooth="yes"/>
      <point x="236" y="302"/>
      <point x="215" y="276"/>
      <point x="190" y="243" type="curve"/>
      <point x="188" y="243" type="line"/>
      <point x="191" y="290"/>
      <point x="195" y="352"/>
      <point x="195" y="394" type="curve" smooth="yes"/>
      <point x="195" y="536" type="line"/>
      <point x="105" y="536" type="line"/>
      <point x="105" y="0" type="line"/>
    </contour>
  </outline>
</glyph>
<glyph name="Lslash" format="2">
  <advance width="600"/>
  <unicode hex="0141"/>
  <outline>
    <contour>
      <point x="89" y="213" type="line"/>
      <point x="54" y="273" type="line"/>
      <point x="155" y="333" type="line"/>
      <point x="155" y="714" type="line"/>
      <point x="245" y="714" type="line"/>
      <point x="245" y="386" type="line"/>
      <point x="365" y="457" type="line"/>
      <point x="401" y="394" type="line"/>
      <point x="245" y="304" type="line"/>
      <point x="245" y="83" type="line"/>
      <point x="555" y="83" type="line"/>
      <point x="555" y="0" type="line"/>
      <point x="155" y="0" type="line"/>
      <point x="155" y="251" type="line"/>
    </contour>
  </outline>
</glyph>
<glyph name="lslash" format="2">
  <advance width="600"/>
  <unicode hex="0142"/>
  <anchor x="300" y="0" name="bottom"/>
  <anchor x="300" y="760" name="top"/>
  <outline>
    <component base="l"/>
    <contour>
      <point x="489" y="428" type="line"/>
      <point x="452" y="487" type="line"/>
      <point x="144" y="296" type="line"/>
      <point x="180" y="237" type="line"/>
    </contour>
  </outline>
</glyph>
<glyph name="napostrophe" format="2">
  <advance width="600"/>
  <unicode hex="0149"/>
  <anchor x="312" y="0" name="bottom"/>
  <anchor x="312" y="536" name="top"/>
  <outline>
    <component base="quoteright" xOffset="-260"/>
    <contour>
      <point x="185" y="0" type="line"/>
      <point x="185" y="275" type="line" smooth="yes"/>
      <point x="185" y="400"/>
      <point x="225" y="473"/>
      <point x="324" y="473" type="curve" smooth="yes"/>
      <point x="394" y="473"/>
      <point x="435" y="432"/>
      <point x="435" y="342" type="curve" smooth="yes"/>
      <point x="435" y="0" type="line"/>
      <point x="525" y="0" type="line"/>
      <point x="525" y="358" type="line" smooth="yes"/>
      <point x="525" y="487"/>
      <point x="455" y="546"/>
      <point x="350" y="546" type="curve" smooth="yes"/>
      <point x="274" y="546"/>
      <point x="216" y="518"/>
      <point x="185" y="457" type="curve"/>
      <point x="180" y="457" type="line"/>
      <point x="167" y="536" type="line"/>
      <point x="95" y="536" type="line"/>
      <point x="95" y="0" type="line"/>
    </contour>
  </outline>
</glyph>
<glyph name="eng" format="2">
  <advance width="600"/>
  <unicode hex="014B"/>
  <anchor x="312" y="-240" name="bottom"/>
  <anchor x="312" y="536" name="top"/>
  <anchor x="580" y="536" name="topright"/>
  <outline>
    <component base="n"/>
    <contour>
      <point x="380" y="-240" type="curve" smooth="yes"/>
      <point x="479" y="-240"/>
      <point x="525" y="-180"/>
      <point x="525" y="-80" type="curve" smooth="yes"/>
      <point x="525" y="250" type="line"/>
      <point x="435" y="244" type="line"/>
      <point x="435" y="-83" type="line" smooth="yes"/>
      <point x="435" y="-148"/>
      <point x="407" y="-167"/>
      <point x="369" y="-167" type="curve" smooth="yes"/>
      <point x="345" y="-167"/>
      <point x="327" y="-163"/>
      <point x="309" y="-157" type="curve"/>
      <point x="309" y="-228" type="line"/>
      <point x="326" y="-235"/>
      <point x="348" y="-240"/>
    </contour>
  </outline>
</glyph>
<glyph name="OE" format="2">
  <advance width="600"/>
  <unicode hex="0152"/>
  <outline>
    <contour>
      <point x="240" y="-10" type="qcurve" smooth="yes"/>
      <point x="169" y="-10"/>
      <point x="81" y="82"/>
      <point x="40" y="248"/>
      <point x="40" y="359" type="qcurve" smooth="yes"/>
      <point x="40" y="442"/>
      <point x="64" y="576"/>
      <point x="115" y="672"/>
      <point x="196" y="724"/>
      <point x="252" y="724" type="qcurve" smooth="yes"/>
      <point x="272" y="724"/>
      <point x="310" y="719"/>
      <point x="327" y="714" type="qcurve"/>
      <point x="570" y="714" type="line"/>
      <point x="570" y="634" type="line"/>
      <point x="397" y="634" type="line"/>
      <point x="397" y="413" type="line"/>
      <point x="551" y="413" type="line"/>
      <point x="551" y="334" type="line"/>
      <point x="397" y="334" type="line"/>
      <point x="397" y="80" type="line"/>
      <point x="570" y="80" type="line"/>
      <point x="570" y="0" type="line"/>
      <point x="311" y="0" type="line"/>
      <point x="295" y="-4"/>
      <point x="259" y="-10"/>
    </contour>
    <contour>
      <point x="245" y="70" type="qcurve" smooth="yes"/>
      <point x="264" y="70"/>
      <point x="297" y="79"/>
      <point x="310" y="86" type="qcurve"/>
      <point x="310" y="629" type="line"/>
      <point x="297" y="637"/>
      <point x="264" y="645"/>
      <point x="246" y="645" type="qcurve" smooth="yes"/>
      <point x="216" y="645"/>
      <point x="172" y="606"/>
      <point x="145" y="531"/>
      <point x="132" y="425"/>
      <point x="132" y="358" type="qcurve" smooth="yes"/>
      <point x="132" y="269"/>
      <point x="155" y="139"/>
      <point x="205" y="70"/>
    </contour>
  </outline>
</glyph>
<glyph name="oe" format="2">
  <advance width="600"/>
  <unicode hex="0153"/>
  <outline>
    <contour>
      <point x="190" y="-10" type="qcurve" smooth="yes"/>
      <point x="136" y="-10"/>
      <point x="61" y="57"/>
      <point x="22" y="184"/>
      <point x="22" y="273" type="qcurve" smooth="yes"/>
      <point x="22" y="339"/>
      <point x="43" y="441"/>
      <point x="86" y="511"/>
      <point x="148" y="547"/>
      <point x="189" y="547" type="qcurve" smooth="yes"/>
      <point x="237" y="547"/>
      <point x="296" y="498"/>
      <point x="316" y="451" type="qcurve"/>
      <point x="329" y="483"/>
      <point x="365" y="525"/>
      <point x="411" y="546"/>
      <point x="438" y="546" type="qcurve" smooth="yes"/>
      <point x="488" y="546"/>
      <point x="551" y="483"/>
      <point x="580" y="375"/>
      <point x="580" y="309" type="qcurve" smooth="yes"/>
      <point x="580" y="253" type="line"/>
      <point x="356" y="253" type="line"/>
      <point x="357" y="187"/>
      <point x="378" y="101"/>
      <point x="422" y="58"/>
      <point x="458" y="58" type="qcurve" smooth="yes"/>
      <point x="481" y="58"/>
      <point x="530" y="75"/>
      <point x="560" y="94" type="qcurve"/>
      <point x="560" y="24" type="line"/>
      <point x="532" y="7"/>
      <point x="479" y="-10"/>
      <point x="450" y="-10" type="qcurve" smooth="yes"/>
      <point x="404" y="-10"/>
      <point x="339" y="36"/>
      <point x="317" y="87" type="qcurve"/>
      <point x="298" y="39"/>
      <point x="236" y="-10"/>
    </contour>
    <contour>
      <point x="194" y="60" type="qcurve" smooth="yes"/>
      <point x="223" y="60"/>
      <point x="260" y="104"/>
      <point x="277" y="196"/>
      <point x="277" y="267" type="qcurve" smooth="yes"/>
      <point x="277" y="337"/>
      <point x="260" y="429"/>
      <point x="223" y="476"/>
      <point x="192" y="476" type="qcurve" smooth="yes"/>
      <point x="145" y="476"/>
      <point x="102" y="371"/>
      <point x="102" y="270" type="qcurve" smooth="yes"/>
      <point x="102" y="164"/>
      <point x="148" y="60"/>
    </contour>
    <contour>
      <point x="505" y="317" type="line"/>
      <point x="505" y="362"/>
      <point x="491" y="435"/>
      <point x="461" y="479"/>
      <point x="435" y="479" type="qcurve" smooth="yes"/>
      <point x="418" y="479"/>
      <point x="390" y="458"/>
      <point x="370" y="417"/>
      <point x="358" y="357"/>
      <point x="357" y="317" type="qcurve"/>
    </contour>
  </outline>
</glyph>
<glyph name="tbar" format="2">
  <advance width="600"/>
  <unicode hex="0167"/>
  <anchor x="323" y="0" name="bottom"/>
  <anchor x="255" y="679" name="top"/>
  <outline>
    <component base="t"/>
    <contour>
      <point x="516" y="280" type="line"/>
      <point x="516" y="346" type="line"/>
      <point x="56" y="346" type="line"/>
      <point x="56" y="280" type="line"/>
    </contour>
  </outline>
</glyph>
<glyph name="uni0180" format="2">
  <advance width="600"/>
  <unicode hex="0180"/>
  <anchor x="300" y="0" name="bottom"/>
  <anchor x="273" y="760" name="top"/>
  <outline>
    <component base="b"/>
    <contour>
      <point x="366" y="605" type="line"/>
      <point x="366" y="671" type="line"/>
      <point x="-1" y="671" type="line"/>
      <point x="-1" y="605" type="line"/>
    </contour>
  </outline>
</glyph>
<glyph name="uni0183" format="2">
  <advance width="600"/>
  <unicode hex="0183"/>
  <anchor x="300" y="0" name="bottom"/>
  <anchor x="300" y="760" name="top"/>
  <outline>
    <component base="b"/>
    <contour>
      <point x="486" y="686" type="line"/>
      <point x="486" y="760" type="line"/>
      <point x="123" y="760" type="line"/>
      <point x="123" y="686" type="line"/>
    </contour>
  </outline>
</glyph>
<glyph name="uni0187" format="2">
  <advance width="600"/>
  <unicode hex="0187"/>
  <anchor x="350" y="0" name="bottom"/>
  <anchor x="350" y="858" name="top"/>
  <outline>
    <component base="C"/>
    <contour>
      <point x="474" y="682" type="line"/>
      <point x="550" y="682" type="line"/>
      <point x="550" y="735" type="line" smooth="yes"/>
      <point x="550" y="767"/>
      <point x="567" y="783"/>
      <point x="597" y="783" type="curve" smooth="yes"/>
      <point x="619" y="783"/>
      <point x="640" y="777"/>
      <point x="649" y="773" type="curve"/>
      <point x="649" y="845" type="line"/>
      <point x="635" y="851"/>
      <point x="614" y="858"/>
      <point x="589" y="858" type="curve" smooth="yes"/>
      <point x="507" y="858"/>
      <point x="474" y="810"/>
      <point x="474" y="724" type="curve" smooth="yes"/>
    </contour>
  </outline>
</glyph>
<glyph name="uni0188" format="2">
  <advance width="600"/>
  <unicode hex="0188"/>
  <anchor x="300" y="0" name="bottom"/>
  <anchor x="300" y="765" name="top"/>
  <outline>
    <component base="c"/>
    <contour>
      <point x="429" y="509" type="line"/>
      <point x="505" y="509" type="line"/>
      <point x="505" y="641" type="line" smooth="yes"/>
      <point x="505" y="673"/>
      <point x="522" y="689"/>
      <point x="552" y="689" type="curve" smooth="yes"/>
      <point x="574" y="689"/>
      <point x="595" y="683"/>
      <point x="604" y="679" type="curve"/>
      <point x="604" y="752" type="line"/>
      <point x="590" y="758"/>
      <point x="569" y="765"/>
      <point x="544" y="765" type="curve" smooth="yes"/>
      <point x="462" y="765"/>
      <point x="429" y="717"/>
      <point x="429" y="631" type="curve" smooth="yes"/>
    </contour>
  </outline>
</glyph>
<glyph name="uni018B" format="2">
  <advance width="600"/>
  <unicode hex="018B"/>
  <anchor x="300" y="0" name="bottom"/>
  <anchor x="300" y="714" name="top"/>
  <outline>
    <component base="P" xScale="-1" yScale="-1" xOffset="600" yOffset="714"/>
    <contour>
      <point x="458" y="635" type="line"/>
      <point x="458" y="714" type="line"/>
      <point x="94" y="714" type="line"/>
      <point x="94" y="635" type="line"/>
    </contour>
  </outline>
</glyph>
<glyph name="uni018C" format="2">
  <advance width="600"/>
  <unicode hex="018C"/>
  <anchor x="300" y="0" name="bottom"/>
  <anchor x="313" y="760" name="top"/>
  <outline>
    <component base="d"/>
    <contour>
      <point x="482" y="686" type="line"/>
      <point x="482" y="760" type="line"/>
      <point x="109" y="760" type="line"/>
      <point x="109" y="686" type="line"/>
    </contour>
  </outline>
</glyph>
<glyph name="florin" format="2">
  <advance width="600"/>
  <unicode hex="0192"/>
  <outline>
    <contour>
      <point x="200" y="-241" type="qcurve" smooth="yes"/>
      <point x="130" y="-241"/>
      <point x="56" y="-163"/>
      <point x="56" y="-105" type="qcurve" smooth="yes"/>
      <point x="56" y="-91"/>
      <point x="60" y="-66"/>
      <point x="63" y="-56" type="qcurve"/>
      <point x="151" y="-76" type="line"/>
      <point x="150" y="-82"/>
      <point x="147" y="-97"/>
      <point x="147" y="-105" type="qcurve" smooth="yes"/>
      <point x="147" y="-134"/>
      <point x="177" y="-166"/>
      <point x="202" y="-166" type="qcurve" smooth="yes"/>
      <point x="232" y="-166"/>
      <point x="261" y="-119"/>
      <point x="261" y="-76" type="qcurve" smooth="yes"/>
      <point x="261" y="461" type="line"/>
      <point x="96" y="461" type="line"/>
      <point x="96" y="523" type="line"/>
      <point x="261" y="536" type="line"/>
      <point x="261" y="597" type="line" smooth="yes"/>
      <point x="261" y="661"/>
      <point x="307" y="734"/>
      <point x="391" y="765"/>
      <point x="446" y="765" type="qcurve" smooth="yes"/>
      <point x="487" y="765"/>
      <point x="548" y="753"/>
      <point x="570" y="745" type="qcurve"/>
      <point x="550" y="676" type="line"/>
      <point x="531" y="682"/>
      <point x="477" y="691"/>
      <point x="451" y="691" type="qcurve" smooth="yes"/>
      <point x="403" y="691"/>
      <point x="351" y="647"/>
      <point x="351" y="585" type="qcurve" smooth="yes"/>
      <point x="351" y="536" type="line"/>
      <point x="533" y="536" type="line"/>
      <point x="533" y="461" type="line"/>
      <point x="351" y="461" type="line"/>
      <point x="351" y="-77" type="line" smooth="yes"/>
      <point x="351" y="-124"/>
      <point x="320" y="-199"/>
      <point x="254" y="-241"/>
    </contour>
  </outline>
</glyph>
<glyph name="uni0193" format="2">
  <advance width="600"/>
  <unicode hex="0193"/>
  <anchor x="310" y="0" name="bottom"/>
  <anchor x="310" y="858" name="top"/>
  <outline>
    <component base="G"/>
    <contour>
      <point x="446" y="682" type="line"/>
      <point x="522" y="682" type="line"/>
      <point x="522" y="735" type="line" smooth="yes"/>
      <point x="522" y="767"/>
      <point x="539" y="783"/>
      <point x="569" y="783" type="curve" smooth="yes"/>
      <point x="591" y="783"/>
      <point x="612" y="777"/>
      <point x="621" y="773" type="curve"/>
      <point x="621" y="845" type="line"/>
      <point x="607" y="851"/>
      <point x="586" y="858"/>
      <point x="561" y="858" type="curve" smooth="yes"/>
      <point x="479" y="858"/>
      <point x="446" y="810"/>
      <point x="446" y="724" type="curve" smooth="yes"/>
    </contour>
  </outline>
</glyph>
<glyph name="uni0197" format="2">
  <advance width="600"/>
  <unicode hex="0197"/>
  <anchor x="300" y="0" name="bottom"/>
  <anchor x="300" y="714" name="top"/>
  <outline>
    <component base="I"/>
    <contour>
      <point x="470" y="338" type="line"/>
      <point x="470" y="413" type="line"/>
      <point x="130" y="413" type="line"/>
      <point x="130" y="338" type="line"/>
    </contour>
  </outline>
</glyph>
<glyph name="uni019A" format="2">
  <advance width="600"/>
  <unicode hex="019A"/>
  <anchor x="300" y="0" name="bottom"/>
  <anchor x="300" y="760" name="top"/>
  <outline>
    <component base="l"/>
    <contour>
      <point x="505" y="354" type="line"/>
      <point x="505" y="420" type="line"/>
      <point x="137" y="420" type="line"/>
      <point x="137" y="354" type="line"/>
    </contour>
  </outline>
</glyph>
<glyph name="uni019B" format="2">
  <advance width="600"/>
  <unicode hex="019B"/>
  <anchor x="250" y="0" name="bottom"/>
  <anchor x="256" y="766" name="top"/>
  <outline>
    <component base="lambda"/>
    <contour>
      <point x="437" y="624" type="line"/>
      <point x="418" y="687" type="line"/>
      <point x="129" y="599" type="line"/>
      <point x="148" y="536" type="line"/>
    </contour>
  </outline>
</glyph>
<glyph name="uni019D" format="2">
  <advance width="600"/>
  <unicode hex="019D"/>
  <anchor x="300" y="-195" name="bottom"/>
  <anchor x="300" y="714" name="top"/>
  <outline>
    <component base="N"/>
    <contour>
      <point x="18" y="-195" type="curve" smooth="yes"/>
      <point x="108" y="-195"/>
      <point x="157" y="-148"/>
      <point x="157" y="-38" type="curve" smooth="yes"/>
      <point x="157" y="193" type="line"/>
      <point x="70" y="193" type="line"/>
      <point x="70" y="-34" type="line" smooth="yes"/>
      <point x="70" y="-100"/>
      <point x="48" y="-120"/>
      <point x="7" y="-120" type="curve" smooth="yes"/>
      <point x="-10" y="-120"/>
      <point x="-25" y="-116"/>
      <point x="-38" y="-110" type="curve"/>
      <point x="-38" y="-182" type="line"/>
      <point x="-24" y="-190"/>
      <point x="-6" y="-195"/>
    </contour>
  </outline>
</glyph>
<glyph name="uni01AB" format="2">
  <advance width="600"/>
  <unicode hex="01AB"/>
  <anchor x="386" y="-240" name="bottom"/>
  <anchor x="300" y="679" name="top"/>
  <outline>
    <component base="t"/>
    <contour>
      <point x="399" y="-240" type="curve" smooth="yes"/>
      <point x="479" y="-240"/>
      <point x="516" y="-193"/>
      <point x="516" y="-107" type="curve" smooth="yes"/>
      <point x="516" y="43" type="line"/>
      <point x="437" y="20" type="line"/>
      <point x="437" y="-112" type="line" smooth="yes"/>
      <point x="437" y="-148"/>
      <point x="419" y="-164"/>
      <point x="389" y="-164" type="curve" smooth="yes"/>
      <point x="368" y="-164"/>
      <point x="350" y="-159"/>
      <point x="339" y="-155" type="curve"/>
      <point x="339" y="-228" type="line"/>
      <point x="352" y="-233"/>
      <point x="374" y="-240"/>
    </contour>
  </outline>
</glyph>
<glyph name="uni01AC" format="2">
  <advance width="600"/>
  <unicode hex="01AC"/>
  <anchor x="300" y="0" name="bottom"/>
  <anchor x="300" y="714" name="top"/>
  <outline>
    <contour>
      <point x="343" y="0" type="line"/>
      <point x="343" y="635" type="line"/>
      <point x="565" y="635" type="line"/>
      <point x="565" y="714" type="line"/>
      <point x="151" y="714" type="line" smooth="yes"/>
      <point x="55" y="714"/>
      <point x="10" y="674"/>
      <point x="10" y="588" type="curve" smooth="yes"/>
      <point x="10" y="572"/>
      <point x="15" y="547"/>
      <point x="21" y="533" type="curve"/>
      <point x="100" y="533" type="line"/>
      <point x="96" y="542"/>
      <point x="90" y="565"/>
      <point x="90" y="587" type="curve" smooth="yes"/>
      <point x="90" y="617"/>
      <point x="109" y="635"/>
      <point x="165" y="635" type="curve" smooth="yes"/>
      <point x="253" y="635" type="line"/>
      <point x="253" y="0" type="line"/>
    </contour>
  </outline>
</glyph>
<glyph name="uni01AE" format="2">
  <advance width="600"/>
  <unicode hex="01AE"/>
  <anchor x="354" y="-180" name="bottom"/>
  <anchor x="300" y="714" name="top"/>
  <outline>
    <contour>
      <point x="390" y="-180" type="curve" smooth="yes"/>
      <point x="414" y="-180"/>
      <point x="439" y="-175"/>
      <point x="453" y="-167" type="curve"/>
      <point x="453" y="-91" type="line"/>
      <point x="440" y="-97"/>
      <point x="425" y="-101"/>
      <point x="408" y="-101" type="curve" smooth="yes"/>
      <point x="367" y="-101"/>
      <point x="345" y="-82"/>
      <point x="345" y="-19" type="curve" smooth="yes"/>
      <point x="345" y="634" type="line"/>
      <point x="555" y="634" type="line"/>
      <point x="555" y="714" type="line"/>
      <point x="45" y="714" type="line"/>
      <point x="45" y="634" type="line"/>
      <point x="255" y="634" type="line"/>
      <point x="255" y="-23" type="line" smooth="yes"/>
      <point x="255" y="-133"/>
      <point x="300" y="-180"/>
    </contour>
  </outline>
</glyph>
<glyph name="uni01B3" format="2">
  <advance width="600"/>
  <unicode hex="01B3"/>
  <anchor x="300" y="0" name="bottom"/>
  <anchor x="300" y="714" name="top"/>
  <outline>
    <contour>
      <point x="343" y="0" type="line"/>
      <point x="343" y="277" type="line"/>
      <point x="507" y="614" type="line" smooth="yes"/>
      <point x="519" y="638"/>
      <point x="532" y="649"/>
      <point x="549" y="649" type="curve" smooth="yes"/>
      <point x="563" y="649"/>
      <point x="577" y="646"/>
      <point x="588" y="641" type="curve"/>
      <point x="588" y="714" type="line"/>
      <point x="575" y="719"/>
      <point x="555" y="725"/>
      <point x="528" y="725" type="curve" smooth="yes"/>
      <point x="485" y="725"/>
      <point x="454" y="710"/>
      <point x="428" y="650" type="curve" smooth="yes"/>
      <point x="301" y="353" type="line"/>
      <point x="134" y="714" type="line"/>
      <point x="35" y="714" type="line"/>
      <point x="257" y="278" type="line"/>
      <point x="257" y="0" type="line"/>
    </contour>
  </outline>
</glyph>
<glyph name="uni01B5" format="2">
  <advance width="600"/>
  <unicode hex="01B5"/>
  <anchor x="311" y="0" name="bottom"/>
  <anchor x="311" y="714" name="top"/>
  <outline>
    <component base="Z"/>
    <contour>
      <point x="494" y="329" type="line"/>
      <point x="494" y="407" type="line"/>
      <point x="116" y="407" type="line"/>
      <point x="116" y="329" type="line"/>
    </contour>
  </outline>
</glyph>
<glyph name="uni01B6" format="2">
  <advance width="600"/>
  <unicode hex="01B6"/>
  <anchor x="300" y="0" name="bottom"/>
  <anchor x="300" y="536" name="top"/>
  <outline>
    <component base="z"/>
    <contour>
      <point x="486" y="243" type="line"/>
      <point x="486" y="313" type="line"/>
      <point x="129" y="313" type="line"/>
      <point x="129" y="243" type="line"/>
    </contour>
  </outline>
</glyph>
<glyph name="uni01BB" format="2">
  <advance width="600"/>
  <unicode hex="01BB"/>
  <anchor x="327" y="0" name="bottom"/>
  <anchor x="310" y="714" name="top"/>
  <outline>
    <component base="two"/>
    <contour>
      <point x="533" y="313" type="line"/>
      <point x="533" y="383" type="line"/>
      <point x="96" y="383" type="line"/>
      <point x="96" y="313" type="line"/>
    </contour>
  </outline>
</glyph>
<glyph name="uni01C0" format="2">
  <advance width="600"/>
  <unicode hex="01C0"/>
  <anchor x="300" y="0" name="bottom"/>
  <anchor x="300" y="760" name="top"/>
  <outline>
    <contour>
      <point x="339" y="0" type="line"/>
      <point x="339" y="760" type="line"/>
      <point x="261" y="760" type="line"/>
      <point x="261" y="0" type="line"/>
    </contour>
  </outline>
</glyph>
<glyph name="uni01C2" format="2">
  <advance width="600"/>
  <unicode hex="01C2"/>
  <anchor x="300" y="0" name="bottom"/>
  <anchor x="300" y="760" name="top"/>
  <outline>
    <component base="uni01C0"/>
    <contour>
      <point x="493" y="452" type="line"/>
      <point x="493" y="524" type="line"/>
      <point x="107" y="524" type="line"/>
      <point x="107" y="452" type="line"/>
    </contour>
    <contour>
      <point x="493" y="256" type="line"/>
      <point x="493" y="328" type="line"/>
      <point x="107" y="328" type="line"/>
      <point x="107" y="256" type="line"/>
    </contour>
  </outline>
</glyph>
<glyph name="uni01E4" format="2">
  <advance width="600"/>
  <unicode hex="01E4"/>
  <outline>
    <component base="G"/>
    <contour>
      <point x="599.931" y="159" type="line"/>
      <point x="313" y="159" type="line"/>
      <point x="313" y="230" type="line"/>
      <point x="599.931" y="230" type="line"/>
    </contour>
  </outline>
</glyph>
<glyph name="uni0224" format="2">
  <advance width="600"/>
  <unicode hex="0224"/>
  <anchor x="328" y="-240" name="bottom"/>
  <anchor x="300" y="714" name="top"/>
  <outline>
    <component base="Z"/>
    <contour>
      <point x="409" y="-198" type="curve" smooth="yes"/>
      <point x="489" y="-198"/>
      <point x="526" y="-151"/>
      <point x="526" y="-65" type="curve" smooth="yes"/>
      <point x="526" y="80" type="line"/>
      <point x="437" y="80" type="line"/>
      <point x="437" y="0" type="line"/>
      <point x="447" y="0" type="line"/>
      <point x="447" y="-70" type="line" smooth="yes"/>
      <point x="447" y="-106"/>
      <point x="429" y="-122"/>
      <point x="399" y="-122" type="curve" smooth="yes"/>
      <point x="378" y="-122"/>
      <point x="360" y="-117"/>
      <point x="349" y="-113" type="curve"/>
      <point x="349" y="-186" type="line"/>
      <point x="362" y="-191"/>
      <point x="384" y="-198"/>
    </contour>
  </outline>
</glyph>
<glyph name="uni0225" format="2">
  <advance width="600"/>
  <unicode hex="0225"/>
  <anchor x="328" y="-240" name="bottom"/>
  <anchor x="300" y="536" name="top"/>
  <outline>
    <component base="z"/>
    <contour>
      <point x="405" y="-198" type="curve" smooth="yes"/>
      <point x="485" y="-198"/>
      <point x="522" y="-151"/>
      <point x="522" y="-65" type="curve" smooth="yes"/>
      <point x="522" y="76" type="line"/>
      <point x="433" y="76" type="line"/>
      <point x="433" y="0" type="line"/>
      <point x="443" y="0" type="line"/>
      <point x="443" y="-70" type="line" smooth="yes"/>
      <point x="443" y="-106"/>
      <point x="425" y="-122"/>
      <point x="395" y="-122" type="curve" smooth="yes"/>
      <point x="374" y="-122"/>
      <point x="356" y="-117"/>
      <point x="345" y="-113" type="curve"/>
      <point x="345" y="-186" type="line"/>
      <point x="358" y="-191"/>
      <point x="380" y="-198"/>
    </contour>
  </outline>
</glyph>
<glyph name="uni023A" format="2">
  <advance width="600"/>
  <unicode hex="023A"/>
  <anchor x="300" y="-75" name="bottom"/>
  <anchor x="300" y="760" name="top"/>
  <outline>
    <component base="A"/>
    <contour>
      <point x="219" y="-75" type="line"/>
      <point x="474" y="760" type="line"/>
      <point x="407" y="760" type="line"/>
      <point x="152" y="-75" type="line"/>
    </contour>
  </outline>
</glyph>
<glyph name="uni023B" format="2">
  <advance width="600"/>
  <unicode hex="023B"/>
  <anchor x="300" y="-75" name="bottom"/>
  <anchor x="355" y="760" name="top"/>
  <outline>
    <component base="C"/>
    <contour>
      <point x="229" y="-75" type="line"/>
      <point x="484" y="760" type="line"/>
      <point x="417" y="760" type="line"/>
      <point x="162" y="-75" type="line"/>
    </contour>
  </outline>
</glyph>
<glyph name="uni023C" format="2">
  <advance width="600"/>
  <unicode hex="023C"/>
  <anchor x="300" y="-208" name="bottom"/>
  <anchor x="320" y="760" name="top"/>
  <outline>
    <component base="c"/>
    <contour>
      <point x="178" y="-208" type="line"/>
      <point x="523" y="760" type="line"/>
      <point x="456" y="760" type="line"/>
      <point x="111" y="-208" type="line"/>
    </contour>
  </outline>
</glyph>
<glyph name="uni023D" format="2">
  <advance width="600"/>
  <unicode hex="023D"/>
  <anchor x="300" y="0" name="bottom"/>
  <anchor x="163" y="714" name="top"/>
  <outline>
    <component base="L"/>
    <contour>
      <point x="357" y="332" type="line"/>
      <point x="357" y="403" type="line"/>
      <point x="0" y="403" type="line"/>
      <point x="0" y="332" type="line"/>
    </contour>
  </outline>
</glyph>
<glyph name="uni023E" format="2">
  <advance width="600"/>
  <unicode hex="023E"/>
  <anchor x="300" y="-75" name="bottom"/>
  <anchor x="300" y="760" name="top"/>
  <outline>
    <component base="T"/>
    <contour>
      <point x="132" y="-75" type="line"/>
      <point x="540" y="760" type="line"/>
      <point x="470" y="760" type="line"/>
      <point x="62" y="-75" type="line"/>
    </contour>
  </outline>
</glyph>
<glyph name="uni023F" format="2">
  <advance width="600"/>
  <unicode hex="023F"/>
  <anchor x="320" y="-240" name="bottom"/>
  <anchor x="300" y="536" name="top"/>
  <outline>
    <component base="s"/>
    <contour>
      <point x="402" y="-240" type="curve" smooth="yes"/>
      <point x="437" y="-240"/>
      <point x="465" y="-231"/>
      <point x="482" y="-223" type="curve"/>
      <point x="482" y="-151" type="line"/>
      <point x="465" y="-159"/>
      <point x="439" y="-167"/>
      <point x="407" y="-167" type="curve" smooth="yes"/>
      <point x="352" y="-167"/>
      <point x="325" y="-138"/>
      <point x="301" y="-74" type="curve" smooth="yes"/>
      <point x="283" y="-26"/>
      <point x="270" y="-10"/>
      <point x="251" y="0" type="curve"/>
      <point x="136" y="13" type="line"/>
      <point x="188" y="-2"/>
      <point x="201" y="-28"/>
      <point x="222" y="-91" type="curve" smooth="yes"/>
      <point x="257" y="-197"/>
      <point x="299" y="-240"/>
    </contour>
  </outline>
</glyph>
<glyph name="uni0241" format="2">
  <advance width="600"/>
  <unicode hex="0241"/>
  <anchor x="277" y="0" name="bottom"/>
  <anchor x="277" y="714" name="top"/>
  <outline>
    <contour>
      <point x="237" y="0" type="line"/>
      <point x="327" y="0" type="line"/>
      <point x="327" y="271" type="line"/>
      <point x="481" y="330"/>
      <point x="538" y="405"/>
      <point x="538" y="517" type="curve" smooth="yes"/>
      <point x="538" y="642"/>
      <point x="455" y="724"/>
      <point x="285" y="724" type="curve" smooth="yes"/>
      <point x="185" y="724"/>
      <point x="111" y="693"/>
      <point x="59" y="659" type="curve"/>
      <point x="92" y="587" type="line"/>
      <point x="138" y="619"/>
      <point x="205" y="645"/>
      <point x="281" y="645" type="curve" smooth="yes"/>
      <point x="406" y="645"/>
      <point x="443" y="589"/>
      <point x="443" y="514" type="curve" smooth="yes"/>
      <point x="443" y="415"/>
      <point x="368" y="359"/>
      <point x="237" y="322" type="curve"/>
    </contour>
  </outline>
</glyph>
<glyph name="uni0243" format="2">
  <advance width="600"/>
  <unicode hex="0243"/>
  <anchor x="300" y="0" name="bottom"/>
  <anchor x="300" y="714" name="top"/>
  <outline>
    <component base="B"/>
    <contour>
      <point x="290" y="167" type="line"/>
      <point x="290" y="245" type="line"/>
      <point x="0" y="245" type="line"/>
      <point x="0" y="167" type="line"/>
    </contour>
  </outline>
</glyph>
<glyph name="uni0244" format="2">
  <advance width="600"/>
  <unicode hex="0244"/>
  <anchor x="300" y="0" name="bottom"/>
  <anchor x="300" y="714" name="top"/>
  <outline>
    <component base="U"/>
    <contour>
      <point x="600" y="354" type="line"/>
      <point x="600" y="432" type="line"/>
      <point x="0" y="432" type="line"/>
      <point x="0" y="354" type="line"/>
    </contour>
  </outline>
</glyph>
<glyph name="uni0246" format="2">
  <advance width="600"/>
  <unicode hex="0246"/>
  <anchor x="300" y="-75" name="bottom"/>
  <anchor x="300" y="760" name="top"/>
  <outline>
    <component base="E"/>
    <contour>
      <point x="249" y="-75" type="line"/>
      <point x="504" y="760" type="line"/>
      <point x="437" y="760" type="line"/>
      <point x="182" y="-75" type="line"/>
    </contour>
  </outline>
</glyph>
<glyph name="uni0247" format="2">
  <advance width="600"/>
  <unicode hex="0247"/>
  <anchor x="300" y="-208" name="bottom"/>
  <anchor x="300" y="760" name="top"/>
  <outline>
    <component base="e"/>
    <contour>
      <point x="163" y="-208" type="line"/>
      <point x="508" y="760" type="line"/>
      <point x="441" y="760" type="line"/>
      <point x="96" y="-208" type="line"/>
    </contour>
  </outline>
</glyph>
<glyph name="uni0249" format="2">
  <advance width="600"/>
  <unicode hex="0249"/>
  <anchor x="300" y="-245" name="bottom"/>
  <anchor x="342" y="760" name="top"/>
  <outline>
    <component base="j"/>
    <contour>
      <point x="519" y="225" type="line"/>
      <point x="519" y="296" type="line"/>
      <point x="171" y="296" type="line"/>
      <point x="171" y="225" type="line"/>
    </contour>
  </outline>
</glyph>
<glyph name="uni024A" format="2">
  <advance width="600"/>
  <unicode hex="024A"/>
  <anchor x="300" y="-240" name="bottom"/>
  <anchor x="300" y="714" name="top"/>
  <outline>
    <component base="uni2C6D"/>
    <contour>
      <point x="579" y="-240" type="curve" smooth="yes"/>
      <point x="607" y="-240"/>
      <point x="624" y="-235"/>
      <point x="638" y="-227" type="curve"/>
      <point x="638" y="-151" type="line"/>
      <point x="625" y="-157"/>
      <point x="610" y="-161"/>
      <point x="592" y="-161" type="curve" smooth="yes"/>
      <point x="552" y="-161"/>
      <point x="530" y="-142"/>
      <point x="530" y="-79" type="curve" smooth="yes"/>
      <point x="530" y="124" type="line"/>
      <point x="445" y="92" type="line"/>
      <point x="442" y="69"/>
      <point x="440" y="45"/>
      <point x="440" y="20" type="curve" smooth="yes"/>
      <point x="440" y="-83" type="line"/>
      <point x="440" y="-193"/>
      <point x="493" y="-240"/>
    </contour>
  </outline>
</glyph>
<glyph name="uni024C" format="2">
  <advance width="600"/>
  <unicode hex="024C"/>
  <anchor x="334" y="0" name="bottom"/>
  <anchor x="300" y="714" name="top"/>
  <outline>
    <component base="R"/>
    <contour>
      <point x="197" y="292" type="line"/>
      <point x="197" y="370" type="line"/>
      <point x="0" y="370" type="line"/>
      <point x="0" y="292" type="line"/>
    </contour>
  </outline>
</glyph>
<glyph name="uni024D" format="2">
  <advance width="600"/>
  <unicode hex="024D"/>
  <anchor x="300" y="0" name="bottom"/>
  <anchor x="300" y="536" name="top"/>
  <outline>
    <component base="r"/>
    <contour>
      <point x="446" y="212" type="line"/>
      <point x="446" y="283" type="line"/>
      <point x="107" y="283" type="line"/>
      <point x="107" y="212" type="line"/>
    </contour>
  </outline>
</glyph>
<glyph name="uni024E" format="2">
  <advance width="600"/>
  <unicode hex="024E"/>
  <anchor x="300" y="0" name="bottom"/>
  <anchor x="300" y="714" name="top"/>
  <outline>
    <component base="Y"/>
    <contour>
      <point x="600" y="515" type="line"/>
      <point x="600" y="593" type="line"/>
      <point x="0" y="593" type="line"/>
      <point x="0" y="515" type="line"/>
    </contour>
  </outline>
</glyph>
<glyph name="uni024F" format="2">
  <advance width="600"/>
  <unicode hex="024F"/>
  <anchor x="300" y="-245" name="bottom"/>
  <anchor x="300" y="536" name="top"/>
  <outline>
    <component base="y"/>
    <contour>
      <point x="581" y="288" type="line"/>
      <point x="581" y="359" type="line"/>
      <point x="20" y="359" type="line"/>
      <point x="20" y="288" type="line"/>
    </contour>
  </outline>
</glyph>
